<?xml version="1.0" encoding="UTF-8" standalone="no"?>
<svg
   xmlns:dc="http://purl.org/dc/elements/1.1/"
   xmlns:cc="http://creativecommons.org/ns#"
   xmlns:rdf="http://www.w3.org/1999/02/22-rdf-syntax-ns#"
   xmlns:svg="http://www.w3.org/2000/svg"
   xmlns="http://www.w3.org/2000/svg"
   xmlns:sodipodi="http://sodipodi.sourceforge.net/DTD/sodipodi-0.dtd"
   xmlns:inkscape="http://www.inkscape.org/namespaces/inkscape"
   inkscape:version="1.0 (4035a4fb49, 2020-05-01)"
   sodipodi:docname="slider.svg"
   id="svg72"
   version="1.1"
   height="66"
   width="76">
  <metadata
     id="metadata78">
    <rdf:RDF>
      <cc:Work
         rdf:about="">
        <dc:format>image/svg+xml</dc:format>
        <dc:type
           rdf:resource="http://purl.org/dc/dcmitype/StillImage" />
      </cc:Work>
    </rdf:RDF>
  </metadata>
  <defs
     id="defs76" />
  <sodipodi:namedview
     inkscape:document-rotation="0"
     inkscape:current-layer="svg72"
     inkscape:window-maximized="1"
     inkscape:window-y="32"
     inkscape:window-x="0"
     inkscape:cy="-19.277248"
     inkscape:cx="7.5293411"
     inkscape:zoom="44.90874"
     showgrid="true"
     id="namedview74"
     inkscape:window-height="1023"
     inkscape:window-width="1920"
     inkscape:pageshadow="2"
     inkscape:pageopacity="0"
     guidetolerance="10"
     gridtolerance="10"
     objecttolerance="10"
     borderopacity="1"
     bordercolor="#666666"
     pagecolor="#ffffff">
    <inkscape:grid
       id="grid885"
       type="xygrid" />
  </sodipodi:namedview>
  <g
     id="g40"
     stroke-width=".91667">
    <g
       transform="matrix(.75 0 0 .75 -18.75 28)"
       id="horizontal-slider-handle">
      <rect
         id="rect2"
         opacity="0"
         height="32"
         width="32"
         y="4"
         x="25" />
      <circle
         id="circle4"
         fill="#3278e6"
         r="8"
         cy="20"
         cx="41" />
    </g>
    <g
       transform="matrix(.75 0 0 .75 6.25 27)"
       id="horizontal-slider-hover">
      <rect
         id="rect7"
         opacity="0"
         height="32"
         width="32"
         y="4"
         x="25" />
      <circle
         id="circle9"
         opacity=".2"
         fill="#3278e6"
         r="16"
         cy="20"
         cx="41" />
      <circle
         id="circle11"
         fill="#3278e6"
         r="8"
         cy="20"
         cx="41" />
    </g>
    <g
       transform="matrix(.75 0 0 .75 31.25 28)"
       id="horizontal-slider-focus">
      <rect
         id="rect14"
         opacity="0"
         height="32"
         width="32"
         y="4"
         x="25" />
      <circle
         id="circle16"
         opacity=".3"
         fill="#3278e6"
         r="16"
         cy="20"
         cx="41" />
      <circle
         id="circle18"
         fill="#3278e6"
         r="8"
         cy="20"
         cx="41" />
    </g>
    <g
       transform="matrix(.75 0 0 .75 -18.75 -3)"
       id="vertical-slider-handle">
      <rect
         id="rect21"
         opacity="0"
         height="32"
         width="32"
         y="4"
         x="25" />
      <circle
         id="circle23"
         fill="#3278e6"
         r="8"
         cy="20"
         cx="41" />
    </g>
    <g
       transform="matrix(.75 0 0 .75 6.25 -3)"
       id="vertical-slider-hover">
      <rect
         id="rect26"
         opacity="0"
         height="32"
         width="32"
         y="4"
         x="25" />
      <circle
         id="circle28"
         opacity=".2"
         fill="#3278e6"
         r="16"
         cy="20"
         cx="41" />
      <circle
         id="circle30"
         fill="#3278e6"
         r="8"
         cy="20"
         cx="41" />
    </g>
    <g
       transform="matrix(.75 0 0 .75 31.25 -3)"
       id="vertical-slider-focus">
      <rect
         id="rect33"
         opacity="0"
         height="32"
         width="32"
         y="4"
         x="25" />
      <circle
         id="circle35"
         opacity=".3"
         fill="#3278e6"
         r="16"
         cy="20"
         cx="41" />
      <circle
         id="circle37"
         fill="#3278e6"
         r="8"
         cy="20"
         cx="41" />
    </g>
  </g>
  <path
     id="groove-top"
     class="ColorScheme-Text"
     d="m 7,-20 v 1 h 1 v -1 z"
     inkscape:connector-curvature="0"
     style="opacity:0.7;stroke-width:1;fill:#000000;fill-opacity:1" />
  <path
     id="groove-topleft"
     class="ColorScheme-Text"
     d="m 6,-20.019723 c -0.5607333,0 -1,0.44793 -1,1.019723 h 1 z"
     inkscape:connector-curvature="0"
     style="opacity:0.7;stroke-width:1;fill:#000000;fill-opacity:1" />
  <rect
     id="hint-tile-center"
     x="-1"
     y="-24"
     width="2"
     height="2"
     rx="0"
     ry="2"
     style="fill:#4e9a06" />
  <path
     id="groove-topright"
     class="ColorScheme-Text"
     d="m 10,-19 c 0,-0.516272 -0.439267,-0.920708 -1,-0.920708 V -19 Z"
     inkscape:connector-curvature="0"
     style="opacity:0.7;stroke-width:0.99999994;fill:#000000;fill-opacity:1" />
  <path
     id="groove-bottom"
     class="ColorScheme-Text"
     d="m 7,-15 v -1 h 1 v 1 z"
     inkscape:connector-curvature="0"
     style="opacity:0.7;stroke-width:1;fill:#000000;fill-opacity:1" />
  <path
     id="groove-bottomleft"
     class="ColorScheme-Text"
     d="m 6,-15 c -0.4977652,0 -0.887704,-0.439267 -0.887704,-1 H 6 Z"
     inkscape:connector-curvature="0"
     style="opacity:0.7;stroke-width:1;fill:#000000;fill-opacity:1" />
  <path
     id="groove-bottomright"
     class="ColorScheme-Text"
     d="m 10,-16 c 0,0.560733 -0.4392667,1 -1,1 v -1 z"
     inkscape:connector-curvature="0"
     style="opacity:0.7;stroke-width:1;fill:#000000;fill-opacity:1" />
  <path
     style="opacity:0.7;stroke-width:1;fill:#000000;fill-opacity:1"
     inkscape:connector-curvature="0"
     d="m 7,-18 v 1 h 1 v -1 z"
     class="ColorScheme-Text"
     id="groove-center" />
  <path
     style="opacity:0.7;stroke-width:1;fill:#000000;fill-opacity:1"
     inkscape:connector-curvature="0"
     d="m 5,-18 v 1 h 1 v -1 z"
     class="ColorScheme-Text"
     id="groove-left" />
  <path
     style="opacity:0.7;stroke-width:1;fill:#000000;fill-opacity:1"
     inkscape:connector-curvature="0"
     d="m 9,-18 v 1 h 1 v -1 z"
     class="ColorScheme-Text"
     id="groove-right" />
  <path
     id="groove-highlight-top"
     class="ColorScheme-ButtonHover"
     d="m 25,-20 v 1 h 1 v -1 z"
     inkscape:connector-curvature="0"
     style="fill:#3278e6;stroke-width:1" />
  <path
     id="groove-highlight-topleft"
     class="ColorScheme-ButtonHover"
     d="m 24,-20 c -0.560733,0 -1,0.439266 -1,1 h 1 z"
     inkscape:connector-curvature="0"
     style="fill:#3278e6;stroke-width:1" />
  <path
     id="groove-highlight-topright"
     class="ColorScheme-ButtonHover"
     d="m 28,-19 c 0,-0.560734 -0.439267,-1 -1,-1 v 1 z"
     inkscape:connector-curvature="0"
     style="fill:#3278e6;stroke-width:1" />
  <path
     id="groove-highlight-bottom"
     class="ColorScheme-ButtonHover"
     d="m 25,-15 v -1 h 1 v 1 z"
     inkscape:connector-curvature="0"
     style="fill:#3278e6;stroke-width:1" />
  <path
     id="groove-highlight-bottomleft"
     class="ColorScheme-ButtonHover"
     d="m 24,-15 c -0.569866,0 -1.016288,-0.439267 -1.016288,-1 H 24 Z"
     inkscape:connector-curvature="0"
     style="fill:#3278e6;stroke-width:1" />
  <path
     id="groove-highlight-bottomright"
     class="ColorScheme-ButtonHover"
     d="m 28.039625,-16 c 0,0.560733 -0.456673,1 -1.039625,1 v -1 z"
     inkscape:connector-curvature="0"
     style="fill:#3278e6;stroke-width:1" />
  <path
     inkscape:connector-curvature="0"
     d="m 25,-18 v 1 h 1 v -1 z"
     class="ColorScheme-ButtonHover"
     id="groove-highlight-center"
     style="fill:#3278e6;stroke-width:1" />
  <path
     inkscape:connector-curvature="0"
     d="m 23,-18 v 1 h 1 v -1 z"
     class="ColorScheme-ButtonHover"
     id="groove-highlight-left"
     style="fill:#3278e6;stroke-width:1" />
  <path
     inkscape:connector-curvature="0"
     d="m 27,-18 v 1 h 1 v -1 z"
     class="ColorScheme-ButtonHover"
     id="groove-highlight-right"
     style="fill:#3278e6;stroke-width:1" />
  <circle
     fill="#ff2a2a"
     r="12"
     cy="-15.313"
     cx="50.955"
     id="hint-handle-size" />
</svg>
