<?xml version="1.0" encoding="UTF-8" standalone="no"?>
<svg
   xmlns:dc="http://purl.org/dc/elements/1.1/"
   xmlns:cc="http://creativecommons.org/ns#"
   xmlns:rdf="http://www.w3.org/1999/02/22-rdf-syntax-ns#"
   xmlns:svg="http://www.w3.org/2000/svg"
   xmlns="http://www.w3.org/2000/svg"
   xmlns:sodipodi="http://sodipodi.sourceforge.net/DTD/sodipodi-0.dtd"
   xmlns:inkscape="http://www.inkscape.org/namespaces/inkscape"
   inkscape:version="1.0 (4035a4fb49, 2020-05-01)"
   sodipodi:docname="tabbar.svg"
   id="svg112"
   version="1.1"
   height="300"
   width="500">
  <metadata
     id="metadata116">
    <rdf:RDF>
      <cc:Work
         rdf:about="">
        <dc:format>image/svg+xml</dc:format>
        <dc:type
           rdf:resource="http://purl.org/dc/dcmitype/StillImage" />
        <dc:title />
      </cc:Work>
    </rdf:RDF>
  </metadata>
  <sodipodi:namedview
     inkscape:document-rotation="0"
     inkscape:bbox-nodes="true"
     inkscape:snap-bbox-edge-midpoints="true"
     inkscape:snap-bbox="true"
     inkscape:current-layer="svg112"
     inkscape:window-maximized="1"
     inkscape:window-y="32"
     inkscape:window-x="0"
     inkscape:cy="163.2245"
     inkscape:cx="308.78637"
     inkscape:zoom="3.5879894"
     inkscape:guide-bbox="true"
     showguides="true"
     showgrid="true"
     id="namedview114"
     inkscape:window-height="1023"
     inkscape:window-width="1920"
     inkscape:pageshadow="2"
     inkscape:pageopacity="0"
     guidetolerance="10"
     gridtolerance="10"
     objecttolerance="10"
     borderopacity="1"
     bordercolor="#666666"
     pagecolor="#3a3a3a">
    <inkscape:grid
       id="grid943"
       type="xygrid" />
  </sodipodi:namedview>
  <defs
     id="defs3">
    <style
       type="text/css"
       id="current-color-scheme">.ColorScheme-Text {
        color:#31363b;
      }
      .ColorScheme-Background{
        color:#eff0f1;
      }
      .ColorScheme-ViewText {
        color:#31363b;
      }
      .ColorScheme-ViewBackground{
        color:#fcfcfc;
      }
      .ColorScheme-ViewHover {
        color:#3daee9;
      }
      .ColorScheme-ViewFocus{
        color:#3daee9;
      }
      .ColorScheme-ButtonText {
        color:#31363b;
      }
      .ColorScheme-ButtonBackground{
        color:#eff0f1;
      }
      .ColorScheme-ButtonHover {
        color:#3daee9;
      }
      .ColorScheme-ButtonFocus{
        color:#3daee9;
      }</style>
  </defs>
  <g
     transform="matrix(0.81250094,0,0,1.6666698,290.56249,-1450.2732)"
     id="north-active-tab-top">
    <rect
       class="ColorScheme-Background"
       transform="matrix(0,-1,-1,0,0,0)"
       style="color:#eff0f1;opacity:0.15;fill:#ffffff;fill-opacity:1;stroke:none"
       id="rect4152"
       width="6"
       height="32"
       x="-916.36218"
       y="-50.999985" />
  </g>
  <g
     transform="matrix(0.83333453,0,0,0.83333453,283.16668,-691.63644)"
     id="north-active-tab-topleft">
    <path
       inkscape:connector-curvature="0"
       id="rect4159"
       d="m 25,910.36218 c -6.647974,0 -12,5.35203 -12,12 h 8 2 2 v -2 -8 z"
       style="opacity:0.15;fill:#ffffff;fill-opacity:1;stroke:none;stroke-width:2" />
  </g>
  <g
     transform="matrix(0.83333731,0,0,0.83333731,296.49976,-691.63894)"
     id="north-active-tab-topright">
    <path
       inkscape:connector-curvature="0"
       id="rect4177"
       d="m 45.00004,910.36218 v 1.99999 7.99998 1.99999 h 1.999994 1.999993 5.99998 H 57 c 0,-6.64795 -5.352008,-11.99996 -11.99996,-11.99996 z"
       style="opacity:0.15;fill:#ffffff;fill-opacity:1;stroke:none;stroke-width:1.99999332" />
  </g>
  <g
     transform="matrix(0.81250094,0,0,1.6666612,290.56249,-1479.5986)"
     id="north-active-tab-bottom">
    <rect
       class="ColorScheme-Background"
       y="-50.999985"
       x="948.36218"
       height="32"
       width="6"
       id="rect4148"
       style="color:#eff0f1;opacity:0.15;fill:#ffffff;fill-opacity:1;stroke:none"
       transform="rotate(90)" />
  </g>
  <g
     transform="matrix(0.83333074,0,0,0.83333074,283.16673,-684.29954)"
     id="north-active-tab-bottomleft">
    <path
       inkscape:connector-curvature="0"
       id="path5048"
       d="m 13,942.36216 c 0,6.64798 5.352035,12.00002 12.00002,12.00002 v -2 -8.00002 -2 h -2.000003 -2.000004 -6.00001 z"
       style="opacity:0.15;fill:#ffffff;fill-opacity:1;stroke:none;stroke-width:2.00000334" />
  </g>
  <g
     transform="matrix(0.83333074,0,0,0.83333074,296.50014,-684.29954)"
     id="north-active-tab-bottomright">
    <path
       inkscape:connector-curvature="0"
       id="rect4177-6"
       d="m 44.99998,942.36216 v 2 8.00002 2 C 51.647965,954.36218 57,949.01014 57,942.36216 h -2.000003 -6.00001 -2.000004 z"
       style="opacity:0.15;fill:#ffffff;fill-opacity:1;stroke:none;stroke-width:2.00000334" />
  </g>
  <g
     transform="matrix(1.6666667,0,0,0.62499857,272.33336,-493.72514)"
     id="north-active-tab-left">
    <rect
       class="ColorScheme-Background"
       y="916.36218"
       x="-19.000004"
       height="32"
       width="5.9999995"
       id="rect4144"
       style="color:#eff0f1;opacity:0.15;fill:#ffffff;fill-opacity:1;stroke:none"
       transform="scale(-1,1)" />
  </g>
  <g
     transform="matrix(1.6666578,0,0,0.62499857,249.00051,-493.72514)"
     id="north-active-tab-right">
    <rect
       class="ColorScheme-Background"
       style="color:#eff0f1;opacity:0.15;fill:#ffffff;fill-opacity:1;stroke:none"
       id="rect4140"
       width="5.9999995"
       height="32"
       x="50.999985"
       y="916.36218" />
  </g>
  <rect
     style="color:#eff0f1;opacity:0.15;fill:#ffffff;fill-opacity:1;stroke:none;stroke-width:0.71260923"
     id="north-active-tab-center"
     width="25.999981"
     height="19.999992"
     x="306.00003"
     y="78.999863"
     class="ColorScheme-Background" />
  <rect
     style="opacity:0.875;fill:#008000"
     height="41.120998"
     width="41.362999"
     y="120"
     x="40"
     id="hint-tile-center" />
  <rect
     style="fill:#4e9a06;stroke-width:1.09544516"
     height="2"
     width="18"
     y="-89.999863"
     x="-344.00003"
     transform="scale(-1)"
     id="north-focus-hint-right-margin" />
  <rect
     style="fill:#4e9a06;stroke-width:1.09544516"
     height="2"
     width="18"
     y="-89.999863"
     x="-312.00003"
     transform="scale(-1)"
     id="north-focus-hint-left-margin" />
  <rect
     style="fill:#4e9a06;stroke-width:0.77459669"
     height="12"
     width="2"
     y="-110.99986"
     x="-320.00003"
     transform="scale(-1)"
     id="north-focus-hint-bottom-margin" />
  <rect
     style="fill:#4e9a06;stroke-width:1.09544516"
     height="12"
     width="2"
     y="-78.999863"
     x="-320.00003"
     transform="scale(-1)"
     id="north-focus-hint-top-margin" />
  <g
     transform="matrix(0.81250095,0,0,1.6666698,290.56249,-1340.2732)"
     id="south-active-tab-top">
    <rect
       class="ColorScheme-Background"
       transform="matrix(0,-1,-1,0,0,0)"
       style="color:#eff0f1;opacity:0.15;fill:#ffffff;fill-opacity:1;stroke:none"
       id="rect4152-3"
       width="6"
       height="32"
       x="-916.36218"
       y="-50.999985" />
  </g>
  <g
     transform="matrix(0.83333454,0,0,0.83333454,283.16668,-581.63644)"
     id="south-active-tab-topleft">
    <path
       inkscape:connector-curvature="0"
       id="rect4159-6"
       d="m 25,910.36218 c -6.647974,0 -12,5.35203 -12,12 h 8 2 2 v -2 -8 z"
       style="opacity:0.15;fill:#ffffff;fill-opacity:1;stroke:none;stroke-width:2" />
  </g>
  <g
     transform="matrix(0.8333373,0,0,0.8333373,296.49976,-581.63884)"
     id="south-active-tab-topright">
    <path
       inkscape:connector-curvature="0"
       id="rect4177-7"
       d="m 45.00004,910.36218 v 1.99999 7.99998 1.99999 h 1.999994 1.999993 5.99998 H 57 c 0,-6.64795 -5.352008,-11.99996 -11.99996,-11.99996 z"
       style="opacity:0.15;fill:#ffffff;fill-opacity:1;stroke:none;stroke-width:1.99999332" />
  </g>
  <g
     transform="matrix(0.81250095,0,0,1.6666612,290.56249,-1369.5987)"
     id="south-active-tab-bottom">
    <rect
       class="ColorScheme-Background"
       y="-50.999985"
       x="948.36218"
       height="32"
       width="6"
       id="rect4148-5"
       style="color:#eff0f1;opacity:0.15;fill:#ffffff;fill-opacity:1;stroke:none"
       transform="rotate(90)" />
  </g>
  <g
     transform="matrix(0.83333072,0,0,0.83333072,283.16673,-574.29944)"
     id="south-active-tab-bottomleft">
    <path
       inkscape:connector-curvature="0"
       id="path5048-3"
       d="m 13,942.36216 c 0,6.64798 5.352035,12.00002 12.00002,12.00002 v -2 -8.00002 -2 h -2.000003 -2.000004 -6.00001 z"
       style="opacity:0.15;fill:#ffffff;fill-opacity:1;stroke:none;stroke-width:2.00000334" />
  </g>
  <g
     transform="matrix(0.83333072,0,0,0.83333072,296.50014,-574.29944)"
     id="south-active-tab-bottomright">
    <path
       inkscape:connector-curvature="0"
       id="rect4177-6-5"
       d="m 44.99998,942.36216 v 2 8.00002 2 C 51.647965,954.36218 57,949.01014 57,942.36216 h -2.000003 -6.00001 -2.000004 z"
       style="opacity:0.15;fill:#ffffff;fill-opacity:1;stroke:none;stroke-width:2.00000334" />
  </g>
  <g
     transform="matrix(1.6666667,0,0,0.62499855,272.33336,-383.72514)"
     id="south-active-tab-left">
    <rect
       class="ColorScheme-Background"
       y="916.36218"
       x="-19.000004"
       height="32"
       width="5.9999995"
       id="rect4144-6"
       style="color:#eff0f1;opacity:0.15;fill:#ffffff;fill-opacity:1;stroke:none"
       transform="scale(-1,1)" />
  </g>
  <g
     transform="matrix(1.6666578,0,0,0.62499855,249.00051,-383.72514)"
     id="south-active-tab-right">
    <rect
       class="ColorScheme-Background"
       style="color:#eff0f1;opacity:0.15;fill:#ffffff;fill-opacity:1;stroke:none"
       id="rect4140-2"
       width="5.9999995"
       height="32"
       x="50.999985"
       y="916.36218" />
  </g>
  <rect
     style="color:#eff0f1;opacity:0.15;fill:#ffffff;fill-opacity:1;stroke:none;stroke-width:0.71260923"
     id="south-active-tab-center"
     width="25.999983"
     height="19.999992"
     x="306.00003"
     y="188.99986"
     class="ColorScheme-Background" />
  <rect
     style="fill:#4e9a06;stroke-width:1.09544516"
     height="1.9999999"
     width="18"
     y="-199.99986"
     x="-344.00003"
     transform="scale(-1)"
     id="south-focus-hint-right-margin" />
  <rect
     style="fill:#4e9a06;stroke-width:1.09544516"
     height="1.9999999"
     width="18"
     y="-199.99986"
     x="-312.00003"
     transform="scale(-1)"
     id="south-focus-hint-left-margin" />
  <rect
     style="fill:#4e9a06;stroke-width:0.77459669"
     height="12"
     width="1.9999999"
     y="-220.99986"
     x="-320.00003"
     transform="scale(-1)"
     id="south-focus-hint-bottom-margin" />
  <rect
     style="fill:#4e9a06;stroke-width:1.09544516"
     height="12"
     width="1.9999999"
     y="-188.99986"
     x="-320.00003"
     transform="scale(-1)"
     id="south-focus-hint-top-margin" />
  <g
     transform="matrix(0.81250095,0,0,1.6666698,209.56249,-1392.2732)"
     id="west-active-tab-top">
    <rect
       class="ColorScheme-Background"
       transform="matrix(0,-1,-1,0,0,0)"
       style="color:#eff0f1;opacity:0.15;fill:#ffffff;fill-opacity:1;stroke:none"
       id="rect4152-9"
       width="6"
       height="32"
       x="-916.36218"
       y="-50.999985" />
  </g>
  <g
     transform="matrix(0.83333454,0,0,0.83333454,202.16668,-633.63644)"
     id="west-active-tab-topleft">
    <path
       inkscape:connector-curvature="0"
       id="rect4159-1"
       d="m 25,910.36218 c -6.647974,0 -12,5.35203 -12,12 h 8 2 2 v -2 -8 z"
       style="opacity:0.15;fill:#ffffff;fill-opacity:1;stroke:none;stroke-width:2" />
  </g>
  <g
     transform="matrix(0.8333373,0,0,0.8333373,215.49976,-633.63884)"
     id="west-active-tab-topright">
    <path
       inkscape:connector-curvature="0"
       id="rect4177-2"
       d="m 45.00004,910.36218 v 1.99999 7.99998 1.99999 h 1.999994 1.999993 5.99998 H 57 c 0,-6.64795 -5.352008,-11.99996 -11.99996,-11.99996 z"
       style="opacity:0.15;fill:#ffffff;fill-opacity:1;stroke:none;stroke-width:1.99999332" />
  </g>
  <g
     transform="matrix(0.81250095,0,0,1.6666612,209.56249,-1421.5987)"
     id="west-active-tab-bottom">
    <rect
       class="ColorScheme-Background"
       y="-50.999985"
       x="948.36218"
       height="32"
       width="6"
       id="rect4148-7"
       style="color:#eff0f1;opacity:0.15;fill:#ffffff;fill-opacity:1;stroke:none"
       transform="rotate(90)" />
  </g>
  <g
     transform="matrix(0.83333072,0,0,0.83333072,202.16673,-626.29944)"
     id="west-active-tab-bottomleft">
    <path
       inkscape:connector-curvature="0"
       id="path5048-0"
       d="m 13,942.36216 c 0,6.64798 5.352035,12.00002 12.00002,12.00002 v -2 -8.00002 -2 h -2.000003 -2.000004 -6.00001 z"
       style="opacity:0.15;fill:#ffffff;fill-opacity:1;stroke:none;stroke-width:2.00000334" />
  </g>
  <g
     transform="matrix(0.83333072,0,0,0.83333072,215.50014,-626.29944)"
     id="west-active-tab-bottomright">
    <path
       inkscape:connector-curvature="0"
       id="rect4177-6-9"
       d="m 44.99998,942.36216 v 2 8.00002 2 C 51.647965,954.36218 57,949.01014 57,942.36216 h -2.000003 -6.00001 -2.000004 z"
       style="opacity:0.15;fill:#ffffff;fill-opacity:1;stroke:none;stroke-width:2.00000334" />
  </g>
  <g
     transform="matrix(1.6666667,0,0,0.62499855,191.33336,-435.72514)"
     id="west-active-tab-left">
    <rect
       class="ColorScheme-Background"
       y="916.36218"
       x="-19.000004"
       height="32"
       width="5.9999995"
       id="rect4144-3"
       style="color:#eff0f1;opacity:0.15;fill:#ffffff;fill-opacity:1;stroke:none"
       transform="scale(-1,1)" />
  </g>
  <g
     transform="matrix(1.6666578,0,0,0.62499855,168.00051,-435.72514)"
     id="west-active-tab-right">
    <rect
       class="ColorScheme-Background"
       style="color:#eff0f1;opacity:0.15;fill:#ffffff;fill-opacity:1;stroke:none"
       id="rect4140-6"
       width="5.9999995"
       height="32"
       x="50.999985"
       y="916.36218" />
  </g>
  <rect
     style="color:#eff0f1;opacity:0.15;fill:#ffffff;fill-opacity:1;stroke:none;stroke-width:0.71260923"
     id="west-active-tab-center"
     width="25.999983"
     height="19.999992"
     x="225.00005"
     y="136.99986"
     class="ColorScheme-Background" />
  <rect
     style="fill:#4e9a06;stroke-width:0.89442724"
     height="1.9999999"
     width="12"
     y="-147.99986"
     x="-263.00003"
     transform="scale(-1)"
     id="west-focus-hint-right-margin" />
  <rect
     style="fill:#4e9a06;stroke-width:0.89442664"
     height="1.9999999"
     width="11.999985"
     y="-147.99986"
     x="-225.00005"
     transform="scale(-1)"
     id="west-focus-hint-left-margin" />
  <rect
     style="fill:#4e9a06;stroke-width:0.77459669"
     height="12"
     width="1.9999999"
     y="-168.99986"
     x="-239.00005"
     transform="scale(-1)"
     id="west-focus-hint-bottom-margin" />
  <rect
     style="fill:#4e9a06;stroke-width:1.09544516"
     height="12"
     width="1.9999999"
     y="-136.99986"
     x="-239.00005"
     transform="scale(-1)"
     id="west-focus-hint-top-margin" />
  <g
     transform="matrix(0.81250095,0,0,1.6666698,373.56248,-1394.2731)"
     id="east-active-tab-top">
    <rect
       class="ColorScheme-Background"
       transform="matrix(0,-1,-1,0,0,0)"
       style="color:#eff0f1;opacity:0.15;fill:#ffffff;fill-opacity:1;stroke:none"
       id="rect4152-0"
       width="6"
       height="32"
       x="-916.36218"
       y="-50.999985" />
  </g>
  <g
     transform="matrix(0.83333454,0,0,0.83333454,366.16667,-635.63632)"
     id="east-active-tab-topleft">
    <path
       inkscape:connector-curvature="0"
       id="rect4159-62"
       d="m 25,910.36218 c -6.647974,0 -12,5.35203 -12,12 h 8 2 2 v -2 -8 z"
       style="opacity:0.15;fill:#ffffff;fill-opacity:1;stroke:none;stroke-width:2" />
  </g>
  <g
     transform="matrix(0.8333373,0,0,0.8333373,379.49975,-635.63882)"
     id="east-active-tab-topright">
    <path
       inkscape:connector-curvature="0"
       id="rect4177-61"
       d="m 45.00004,910.36218 v 1.99999 7.99998 1.99999 h 1.999994 1.999993 5.99998 H 57 c 0,-6.64795 -5.352008,-11.99996 -11.99996,-11.99996 z"
       style="opacity:0.15;fill:#ffffff;fill-opacity:1;stroke:none;stroke-width:1.99999332" />
  </g>
  <g
     transform="matrix(0.81250095,0,0,1.6666612,373.56248,-1423.5986)"
     id="east-active-tab-bottom">
    <rect
       class="ColorScheme-Background"
       y="-50.999985"
       x="948.36218"
       height="32"
       width="6"
       id="rect4148-8"
       style="color:#eff0f1;opacity:0.15;fill:#ffffff;fill-opacity:1;stroke:none"
       transform="rotate(90)" />
  </g>
  <g
     transform="matrix(0.83333072,0,0,0.83333072,366.16672,-628.29932)"
     id="east-active-tab-bottomleft">
    <path
       inkscape:connector-curvature="0"
       id="path5048-7"
       d="m 13,942.36216 c 0,6.64798 5.352035,12.00002 12.00002,12.00002 v -2 -8.00002 -2 h -2.000003 -2.000004 -6.00001 z"
       style="opacity:0.15;fill:#ffffff;fill-opacity:1;stroke:none;stroke-width:2.00000334" />
  </g>
  <g
     transform="matrix(0.83333072,0,0,0.83333072,379.50013,-628.29932)"
     id="east-active-tab-bottomright">
    <path
       inkscape:connector-curvature="0"
       id="rect4177-6-92"
       d="m 44.99998,942.36216 v 2 8.00002 2 C 51.647965,954.36218 57,949.01014 57,942.36216 h -2.000003 -6.00001 -2.000004 z"
       style="opacity:0.15;fill:#ffffff;fill-opacity:1;stroke:none;stroke-width:2.00000334" />
  </g>
  <g
     transform="matrix(1.6666667,0,0,0.62499855,355.33335,-437.72502)"
     id="east-active-tab-left">
    <rect
       class="ColorScheme-Background"
       y="916.36218"
       x="-19.000004"
       height="32"
       width="5.9999995"
       id="rect4144-0"
       style="color:#eff0f1;opacity:0.15;fill:#ffffff;fill-opacity:1;stroke:none"
       transform="scale(-1,1)" />
  </g>
  <g
     transform="matrix(1.6666578,0,0,0.62499855,332.0005,-437.72502)"
     id="east-active-tab-right">
    <rect
       class="ColorScheme-Background"
       style="color:#eff0f1;opacity:0.15;fill:#ffffff;fill-opacity:1;stroke:none"
       id="rect4140-23"
       width="5.9999995"
       height="32"
       x="50.999985"
       y="916.36218" />
  </g>
  <rect
     style="color:#eff0f1;opacity:0.15;fill:#ffffff;fill-opacity:1;stroke:none;stroke-width:0.71260923"
     id="east-active-tab-center"
     width="25.999983"
     height="19.999992"
     x="389.00003"
     y="134.99998"
     class="ColorScheme-Background" />
  <rect
     style="fill:#4e9a06;stroke-width:0.89442724"
     height="1.9999999"
     width="12"
     y="-145.99998"
     x="-427.00003"
     transform="scale(-1)"
     id="east-focus-hint-right-margin" />
  <rect
     style="fill:#4e9a06;stroke-width:0.89442724"
     height="1.9999999"
     width="12"
     y="-145.99998"
     x="-389.00003"
     transform="scale(-1)"
     id="east-focus-hint-left-margin" />
  <rect
     style="fill:#4e9a06;stroke-width:0.77459669"
     height="12"
     width="1.9999999"
     y="-166.99998"
     x="-403.00003"
     transform="scale(-1)"
     id="east-focus-hint-bottom-margin" />
  <rect
     style="fill:#4e9a06;stroke-width:1.09544516"
     height="12"
     width="1.9999999"
     y="-134.99998"
     x="-403.00003"
     transform="scale(-1)"
     id="east-focus-hint-top-margin" />
</svg>
