<?xml version="1.0" encoding="UTF-8" standalone="no"?>
<svg
   xmlns:dc="http://purl.org/dc/elements/1.1/"
   xmlns:cc="http://creativecommons.org/ns#"
   xmlns:rdf="http://www.w3.org/1999/02/22-rdf-syntax-ns#"
   xmlns:svg="http://www.w3.org/2000/svg"
   xmlns="http://www.w3.org/2000/svg"
   xmlns:sodipodi="http://sodipodi.sourceforge.net/DTD/sodipodi-0.dtd"
   xmlns:inkscape="http://www.inkscape.org/namespaces/inkscape"
   viewBox="0 0 200 200"
   version="1.1"
   sodipodi:docname="kde.svg"
   inkscape:version="1.0 (4035a4fb49, 2020-05-01)"
   height="200"
   width="200"
   id="svg4379">
  <metadata
     id="metadata10">
    <rdf:RDF>
      <cc:Work
         rdf:about="">
        <dc:format>image/svg+xml</dc:format>
        <dc:type
           rdf:resource="http://purl.org/dc/dcmitype/StillImage" />
      </cc:Work>
    </rdf:RDF>
  </metadata>
  <defs
     id="defs8" />
  <sodipodi:namedview
     inkscape:document-rotation="0"
     inkscape:snap-bbox-edge-midpoints="true"
     inkscape:bbox-nodes="true"
     inkscape:snap-bbox="true"
     showgrid="true"
     pagecolor="#dfe2e4"
     objecttolerance="10"
     inkscape:zoom="1.4124458"
     inkscape:window-y="32"
     inkscape:window-x="0"
     inkscape:window-width="1920"
     inkscape:window-maximized="1"
     inkscape:window-height="1023"
     inkscape:pageshadow="2"
     inkscape:pageopacity="0"
     inkscape:cy="130.93028"
     inkscape:cx="-79.712659"
     inkscape:current-layer="svg4379"
     guidetolerance="10"
     gridtolerance="10"
     borderopacity="1"
     bordercolor="#666666"
     id="namedview39">
    <inkscape:grid
       type="xygrid"
       id="grid839" />
  </sodipodi:namedview>
  <g
     transform="matrix(4.6153846,0,0,4.6153846,418.46154,29.230769)"
     id="g1092">
    <path
       inkscape:connector-curvature="0"
       style="opacity:1;fill:#fafafa;fill-opacity:1;stroke:none;stroke-width:1.47578;stroke-linecap:round;stroke-linejoin:round;stroke-miterlimit:4;stroke-dasharray:none;stroke-opacity:1;paint-order:normal"
       d="m -69,-2 a 13,13 0 0 0 -13,13 13,13 0 0 0 13,13 13,13 0 0 0 13,-13 13,13 0 0 0 -13,-13 z m 0,4 a 9,9 0 0 1 9,9 9,9 0 0 1 -9,9 9,9 0 0 1 -9,-9 9,9 0 0 1 9,-9 z"
       id="circle1066" />
    <circle
       style="opacity:1;fill:#fafafa;fill-opacity:1;stroke:none;stroke-width:0.454088;stroke-linecap:round;stroke-linejoin:round;stroke-miterlimit:4;stroke-dasharray:none;stroke-opacity:1;paint-order:normal"
       id="circle1086"
       cx="-69"
       cy="11"
       r="4" />
  </g>
</svg>
