<?xml version="1.0" encoding="UTF-8" standalone="no"?>
<svg
   xmlns:dc="http://purl.org/dc/elements/1.1/"
   xmlns:cc="http://creativecommons.org/ns#"
   xmlns:rdf="http://www.w3.org/1999/02/22-rdf-syntax-ns#"
   xmlns:svg="http://www.w3.org/2000/svg"
   xmlns="http://www.w3.org/2000/svg"
   xmlns:sodipodi="http://sodipodi.sourceforge.net/DTD/sodipodi-0.dtd"
   xmlns:inkscape="http://www.inkscape.org/namespaces/inkscape"
   id="svg4379"
   width="200"
   height="200"
   inkscape:version="0.92.4 5da689c313, 2019-01-14"
   sodipodi:docname="kde.svg"
   version="1.1"
   viewBox="0 0 200 200">
  <metadata
     id="metadata10">
    <rdf:RDF>
      <cc:Work
         rdf:about="">
        <dc:format>image/svg+xml</dc:format>
        <dc:type
           rdf:resource="http://purl.org/dc/dcmitype/StillImage" />
      </cc:Work>
    </rdf:RDF>
  </metadata>
  <defs
     id="defs8" />
  <sodipodi:namedview
     id="namedview39"
     bordercolor="#666666"
     borderopacity="1"
     gridtolerance="10"
     guidetolerance="10"
     inkscape:current-layer="svg4379"
     inkscape:cx="47.889278"
     inkscape:cy="35.863716"
     inkscape:pageopacity="0"
     inkscape:pageshadow="2"
     inkscape:window-height="973"
     inkscape:window-maximized="1"
     inkscape:window-width="1920"
     inkscape:window-x="0"
     inkscape:window-y="36"
     inkscape:zoom="1.4124458"
     objecttolerance="10"
     pagecolor="#dfe2e4"
     showgrid="true"
     inkscape:snap-bbox="true"
     inkscape:bbox-nodes="true"
     inkscape:snap-bbox-edge-midpoints="true">
    <inkscape:grid
       id="grid839"
       type="xygrid" />
  </sodipodi:namedview>
  <g
     transform="matrix(5.7692308,0,0,5.7692308,498.07693,36.538461)"
     id="g948">
    <path
       inkscape:connector-curvature="0"
       style="opacity:1;fill:#fafafa;fill-opacity:1;stroke:none;stroke-width:1.4757849;stroke-linecap:round;stroke-linejoin:round;stroke-miterlimit:4;stroke-dasharray:none;stroke-opacity:1;paint-order:normal"
       d="m -69,-2 a 13,13 0 0 0 -13,13 13,13 0 0 0 13,13 13,13 0 0 0 13,-13 13,13 0 0 0 -13,-13 z m 0,4 a 9,9 0 0 1 9,9 9,9 0 0 1 -9,9 9,9 0 0 1 -9,-9 9,9 0 0 1 9,-9 z"
       id="path944" />
    <circle
       style="opacity:1;fill:#fafafa;fill-opacity:1;stroke:none;stroke-width:0.45408767;stroke-linecap:round;stroke-linejoin:round;stroke-miterlimit:4;stroke-dasharray:none;stroke-opacity:1;paint-order:normal"
       id="circle946"
       cx="-69"
       cy="11"
       r="4" />
  </g>
</svg>
