<?xml version="1.0" encoding="UTF-8" standalone="no"?>
<svg
   width="32"
   height="32"
   viewBox="0 0 8.4666665 8.4666669"
   version="1.1"
   id="svg847"
   inkscape:version="1.1.1 (3bf5ae0d25, 2021-09-20, custom)"
   sodipodi:docname="activities.svg"
   xmlns:inkscape="http://www.inkscape.org/namespaces/inkscape"
   xmlns:sodipodi="http://sodipodi.sourceforge.net/DTD/sodipodi-0.dtd"
   xmlns="http://www.w3.org/2000/svg"
   xmlns:svg="http://www.w3.org/2000/svg"
   xmlns:rdf="http://www.w3.org/1999/02/22-rdf-syntax-ns#"
   xmlns:cc="http://creativecommons.org/ns#"
   xmlns:dc="http://purl.org/dc/elements/1.1/">
  <defs
     id="defs841" />
  <sodipodi:namedview
     id="base"
     pagecolor="#c8c8c8"
     bordercolor="#000000"
     borderopacity="1"
     inkscape:pageopacity="0"
     inkscape:pageshadow="2"
     inkscape:zoom="16"
     inkscape:cx="13.96875"
     inkscape:cy="15.875"
     inkscape:document-units="px"
     inkscape:current-layer="layer1"
     inkscape:document-rotation="0"
     showgrid="true"
     units="px"
     inkscape:window-width="1920"
     inkscape:window-height="1005"
     inkscape:window-x="0"
     inkscape:window-y="0"
     inkscape:window-maximized="1"
     inkscape:snap-bbox="true"
     inkscape:bbox-nodes="true"
     inkscape:showpageshadow="false"
     inkscape:lockguides="false"
     inkscape:pagecheckerboard="0"
     inkscape:snap-smooth-nodes="true"
     inkscape:snap-nodes="true"
     inkscape:snap-bbox-edge-midpoints="true">
    <inkscape:grid
       type="xygrid"
       id="grid1410"
       originx="-8.4666677"
       originy="-2.6458333" />
  </sodipodi:namedview>
  <metadata
     id="metadata844">
    <rdf:RDF>
      <cc:Work
         rdf:about="">
        <dc:format>image/svg+xml</dc:format>
        <dc:type
           rdf:resource="http://purl.org/dc/dcmitype/StillImage" />
      </cc:Work>
    </rdf:RDF>
    <style
       id="current-color-scheme" />
  </metadata>
  <g
     inkscape:label="Layer 1"
     inkscape:groupmode="layer"
     id="layer1"
     transform="translate(-8.4666681,-2.6458333)">
    <g
       id="activities">
      <rect
         y="2.6458335"
         x="8.4666681"
         height="8.4666662"
         width="8.4666662"
         id="rect1430"
         style="opacity:0.003;fill:#000000;stroke-width:0.529167" />
      <g
         id="g2074"
         transform="translate(7.9375006)">
        <rect
           style="opacity:1;fill:#dedede;fill-opacity:1;fill-rule:evenodd;stroke-width:0.264583;stroke-linecap:round;stroke-linejoin:round"
           id="rect1024"
           width="4.2333331"
           height="4.2333331"
           x="3.7041671"
           y="5.8208332"
           ry="0.79375017" />
        <path
           id="rect1140"
           style="opacity:1;fill:#dedede;fill-opacity:1;fill-rule:evenodd;stroke-width:1.0625;stroke-linecap:round;stroke-linejoin:round"
           d="M -19.078125,8 C -20.703946,8.0409155 -22,9.3639683 -22,11 v 11 c 0,1.31093 0.832723,2.419906 2,2.830078 V 13 c 0,-1.662 1.338,-3 3,-3 h 10 0.072266 1.7558594 C -5.5819686,8.8330266 -6.6894681,8 -8,8 h -11 c -0.02597,0 -0.05232,-6.495e-4 -0.07813,0 z"
           transform="matrix(0.26458333,0,0,0.26458333,8.4666681,2.6458333)" />
        <path
           id="rect1521"
           style="opacity:1;fill:#dedede;fill-opacity:1;fill-rule:evenodd;stroke-width:1.0625;stroke-linecap:round;stroke-linejoin:round"
           d="m -23,4 c -1.662,0 -3,1.3379995 -3,3 v 11 c 0,1.31093 0.832723,2.419906 2,2.830078 V 9 c 0,-1.6620003 1.338,-3 3,-3 h 10 1.8261719 C -9.5839464,4.8330726 -10.689501,4 -12,4 Z"
           transform="matrix(0.26458333,0,0,0.26458333,8.4666681,2.6458333)" />
      </g>
    </g>
    <g
       id="22-22-activities">
      <rect
         style="opacity:0.003;fill:#000000;stroke-width:0.363802"
         id="rect1430-3-7-5"
         width="5.8208323"
         height="5.8208323"
         x="17.462502"
         y="2.6458333" />
      <g
         id="g3434"
         transform="translate(-5.5562508)">
        <rect
           style="opacity:1;fill:#dedede;fill-rule:evenodd;stroke-width:0.264583;stroke-linecap:round;stroke-linejoin:round;fill-opacity:1"
           id="rect2975"
           width="3.175"
           height="3.175"
           x="25.135418"
           y="4.7624998"
           ry="0.79375023" />
        <path
           id="rect3076"
           style="opacity:1;fill:#dedede;fill-rule:evenodd;stroke-width:0.999999;stroke-linecap:round;stroke-linejoin:round;fill-opacity:1"
           d="m 63,5 c -1.662,0 -3,1.3379995 -3,3 v 6 c 0,1.31093 0.832723,2.419906 2,2.830078 V 10 c 0,-1.662 1.338,-3 3,-3 h 6.830078 C 71.419906,5.8327233 70.31093,5 69,5 Z"
           transform="matrix(0.26458333,0,0,0.26458333,8.4666681,2.6458333)" />
        <path
           id="rect3078"
           style="opacity:1;fill:#dedede;fill-rule:evenodd;stroke-width:0.999999;stroke-linecap:round;stroke-linejoin:round;fill-opacity:1"
           d="m 60,2 c -1.662,0 -3,1.3379995 -3,3 v 6 c 0,1.31093 0.832723,2.419906 2,2.830078 V 7 c 0,-1.662 1.338,-3 3,-3 h 6.830078 C 68.419906,2.8327233 67.31093,2 66,2 Z"
           transform="matrix(0.26458333,0,0,0.26458333,8.4666681,2.6458333)" />
      </g>
    </g>
  </g>
</svg>
