<?xml version="1.0" encoding="UTF-8" standalone="no"?>
<svg
   xmlns:dc="http://purl.org/dc/elements/1.1/"
   xmlns:cc="http://creativecommons.org/ns#"
   xmlns:rdf="http://www.w3.org/1999/02/22-rdf-syntax-ns#"
   xmlns:svg="http://www.w3.org/2000/svg"
   xmlns="http://www.w3.org/2000/svg"
   xmlns:sodipodi="http://sodipodi.sourceforge.net/DTD/sodipodi-0.dtd"
   xmlns:inkscape="http://www.inkscape.org/namespaces/inkscape"
   width="32"
   height="32"
   version="1.1"
   viewBox="0 0 32 32"
   id="svg19"
   sodipodi:docname="applications.svg"
   inkscape:version="0.92.4 5da689c313, 2019-01-14">
  <metadata
     id="metadata23">
    <rdf:RDF>
      <cc:Work
         rdf:about="">
        <dc:format>image/svg+xml</dc:format>
        <dc:type
           rdf:resource="http://purl.org/dc/dcmitype/StillImage" />
        <dc:title />
      </cc:Work>
    </rdf:RDF>
  </metadata>
  <sodipodi:namedview
     pagecolor="#3a3a3a"
     bordercolor="#666666"
     borderopacity="1"
     objecttolerance="10"
     gridtolerance="10"
     guidetolerance="10"
     inkscape:pageopacity="0"
     inkscape:pageshadow="2"
     inkscape:window-width="1920"
     inkscape:window-height="973"
     id="namedview21"
     showgrid="true"
     inkscape:snap-bbox="true"
     inkscape:bbox-nodes="true"
     inkscape:object-paths="true"
     inkscape:snap-intersection-paths="true"
     inkscape:snap-bbox-edge-midpoints="true"
     inkscape:zoom="7.375"
     inkscape:cx="-29.597269"
     inkscape:cy="9.7081596"
     inkscape:window-x="0"
     inkscape:window-y="36"
     inkscape:window-maximized="1"
     inkscape:current-layer="svg19">
    <inkscape:grid
       type="xygrid"
       id="grid848" />
  </sodipodi:namedview>
  <defs
     id="defs6">
    <style
       id="current-color-scheme"
       type="text/css">.ColorScheme-Text { color:#dedede; } .ColorScheme-Highlight { color:#5294e2; } .ColorScheme-ButtonBackground { color:#dedede; }</style>
    <filter
       id="a"
       x="-.036"
       y="-.036"
       width="1.072"
       height="1.072"
       color-interpolation-filters="sRGB">
      <feGaussianBlur
         stdDeviation="0.43506"
         id="feGaussianBlur3" />
    </filter>
    <style
       id="style834"
       type="text/css" />
  </defs>
  <g
     id="applications-other">
    <rect
       x="-2.7562999e-07"
       y="-1.2834001e-09"
       width="32"
       height="32"
       rx="0"
       ry="0"
       style="opacity:0;stroke-width:2;paint-order:fill markers stroke"
       id="rect8" />
    <path
       style="color:#000000;overflow:visible;opacity:0.8;fill:#ffffff;fill-opacity:0.98824002;stroke-width:1.14285719"
       d="m 5.3933983,5.3933983 a 15,15 0 0 0 0,21.2132037 15,15 0 0 0 21.2132037,0 15,15 0 0 0 0,-21.2132037 15,15 0 0 0 -21.2132037,0 z m 0.7071068,7.7781747 c 1.5537214,-1.553722 4.1031329,-1.553722 5.6568539,0 l 1.726335,1.726335 c 0.597507,0.597506 0.597507,1.606678 0,2.204184 l -1.726335,1.726335 c -1.553721,1.553722 -4.1031325,1.553722 -5.6568539,0 -1.5537219,-1.553722 -1.5537219,-4.103132 0,-5.656854 z M 13.171573,6.1005051 c 1.553721,-1.5537216 4.103132,-1.5537217 5.656854,0 1.553722,1.5537215 1.553722,4.1031329 0,5.6568539 l -1.726335,1.726335 c -0.597506,0.597507 -1.606678,0.597507 -2.204184,0 l -1.726335,-1.726335 c -1.553722,-1.553721 -1.553722,-4.1031325 0,-5.6568539 z M 6.8076118,13.87868 a 2.9999999,2.9999999 0 0 0 0,4.24264 2.9999999,2.9999999 0 0 0 4.2426412,0 l 1.726334,-1.726334 c 0.219107,-0.219107 0.219107,-0.570865 0,-0.789972 L 11.050253,13.87868 a 2.9999999,2.9999999 0 0 0 -4.2426412,0 z M 13.87868,6.8076118 a 2.9999999,2.9999999 0 0 0 0,4.2426412 l 1.726334,1.726334 c 0.219107,0.219107 0.570865,0.219107 0.789972,0 l 1.726334,-1.726334 a 2.9999999,2.9999999 0 0 0 0,-4.2426412 2.9999999,2.9999999 0 0 0 -4.24264,0 z m -0.707107,13.4350292 1.726335,-1.726335 c 0.597506,-0.597507 1.606678,-0.597507 2.204184,0 l 1.726335,1.726335 c 1.553722,1.553721 1.553722,4.103132 0,5.656854 -1.553722,1.553722 -4.103133,1.553721 -5.656854,0 -1.553722,-1.553721 -1.553722,-4.103133 0,-5.656854 z m 5.344733,-5.344733 1.726335,-1.726335 c 1.553721,-1.553722 4.103132,-1.553722 5.656854,0 1.553721,1.553721 1.553721,4.103133 0,5.656854 -1.553722,1.553722 -4.103133,1.553722 -5.656854,0 l -1.726335,-1.726335 c -0.597507,-0.597506 -0.597507,-1.606678 0,-2.204184 z m -4.637626,6.051839 a 2.9999999,2.9999999 0 0 0 0,4.242641 2.9999999,2.9999999 0 0 0 4.24264,0 2.9999999,2.9999999 0 0 0 0,-4.242641 l -1.726334,-1.726334 c -0.219107,-0.219107 -0.570865,-0.219107 -0.789972,0 z m 5.344733,-5.344733 c -0.219107,0.219107 -0.219107,0.570865 0,0.789972 l 1.726334,1.726334 a 2.9999999,2.9999999 0 0 0 4.242641,0 2.9999999,2.9999999 0 0 0 0,-4.24264 2.9999999,2.9999999 0 0 0 -4.242641,0 z"
       id="path12"
       inkscape:connector-curvature="0" />
  </g>
  <g
     id="22-22-applications-other"
     transform="translate(-46)">
    <rect
       id="rect822"
       style="opacity:0;stroke-width:2;paint-order:fill markers stroke"
       ry="0"
       rx="0"
       height="32"
       width="32"
       y="-1.2834001e-09"
       x="-2.7562999e-07" />
    <path
       inkscape:connector-curvature="0"
       id="path824"
       d="m 5.3933983,5.3933983 a 15,15 0 0 0 0,21.2132037 15,15 0 0 0 21.2132037,0 15,15 0 0 0 0,-21.2132037 15,15 0 0 0 -21.2132037,0 z m 0.7071068,7.7781747 c 1.5537214,-1.553722 4.1031329,-1.553722 5.6568539,0 l 1.726335,1.726335 c 0.597507,0.597506 0.597507,1.606678 0,2.204184 l -1.726335,1.726335 c -1.553721,1.553722 -4.1031325,1.553722 -5.6568539,0 -1.5537219,-1.553722 -1.5537219,-4.103132 0,-5.656854 z M 13.171573,6.1005051 c 1.553721,-1.5537216 4.103132,-1.5537217 5.656854,0 1.553722,1.5537215 1.553722,4.1031329 0,5.6568539 l -1.726335,1.726335 c -0.597506,0.597507 -1.606678,0.597507 -2.204184,0 l -1.726335,-1.726335 c -1.553722,-1.553721 -1.553722,-4.1031325 0,-5.6568539 z M 6.8076118,13.87868 a 2.9999999,2.9999999 0 0 0 0,4.24264 2.9999999,2.9999999 0 0 0 4.2426412,0 l 1.726334,-1.726334 c 0.219107,-0.219107 0.219107,-0.570865 0,-0.789972 L 11.050253,13.87868 a 2.9999999,2.9999999 0 0 0 -4.2426412,0 z M 13.87868,6.8076118 a 2.9999999,2.9999999 0 0 0 0,4.2426412 l 1.726334,1.726334 c 0.219107,0.219107 0.570865,0.219107 0.789972,0 l 1.726334,-1.726334 a 2.9999999,2.9999999 0 0 0 0,-4.2426412 2.9999999,2.9999999 0 0 0 -4.24264,0 z m -0.707107,13.4350292 1.726335,-1.726335 c 0.597506,-0.597507 1.606678,-0.597507 2.204184,0 l 1.726335,1.726335 c 1.553722,1.553721 1.553722,4.103132 0,5.656854 -1.553722,1.553722 -4.103133,1.553721 -5.656854,0 -1.553722,-1.553721 -1.553722,-4.103133 0,-5.656854 z m 5.344733,-5.344733 1.726335,-1.726335 c 1.553721,-1.553722 4.103132,-1.553722 5.656854,0 1.553721,1.553721 1.553721,4.103133 0,5.656854 -1.553722,1.553722 -4.103133,1.553722 -5.656854,0 l -1.726335,-1.726335 c -0.597507,-0.597506 -0.597507,-1.606678 0,-2.204184 z m -4.637626,6.051839 a 2.9999999,2.9999999 0 0 0 0,4.242641 2.9999999,2.9999999 0 0 0 4.24264,0 2.9999999,2.9999999 0 0 0 0,-4.242641 l -1.726334,-1.726334 c -0.219107,-0.219107 -0.570865,-0.219107 -0.789972,0 z m 5.344733,-5.344733 c -0.219107,0.219107 -0.219107,0.570865 0,0.789972 l 1.726334,1.726334 a 2.9999999,2.9999999 0 0 0 4.242641,0 2.9999999,2.9999999 0 0 0 0,-4.24264 2.9999999,2.9999999 0 0 0 -4.242641,0 z"
       style="color:#000000;overflow:visible;opacity:0.8;fill:#ffffff;fill-opacity:0.98824002;stroke-width:1.14285719" />
  </g>
</svg>
