<?xml version="1.0" encoding="UTF-8" standalone="no"?>
<svg
   xmlns:dc="http://purl.org/dc/elements/1.1/"
   xmlns:cc="http://creativecommons.org/ns#"
   xmlns:rdf="http://www.w3.org/1999/02/22-rdf-syntax-ns#"
   xmlns:svg="http://www.w3.org/2000/svg"
   xmlns="http://www.w3.org/2000/svg"
   xmlns:sodipodi="http://sodipodi.sourceforge.net/DTD/sodipodi-0.dtd"
   xmlns:inkscape="http://www.inkscape.org/namespaces/inkscape"
   width="32"
   height="32"
   version="1.1"
   viewBox="0 0 32 32"
   id="svg19"
   sodipodi:docname="applications.svg"
   inkscape:version="0.92.4 5da689c313, 2019-01-14">
  <metadata
     id="metadata23">
    <rdf:RDF>
      <cc:Work
         rdf:about="">
        <dc:format>image/svg+xml</dc:format>
        <dc:type
           rdf:resource="http://purl.org/dc/dcmitype/StillImage" />
        <dc:title />
      </cc:Work>
    </rdf:RDF>
  </metadata>
  <sodipodi:namedview
     pagecolor="#c8c8c8"
     bordercolor="#666666"
     borderopacity="1"
     objecttolerance="10"
     gridtolerance="10"
     guidetolerance="10"
     inkscape:pageopacity="0"
     inkscape:pageshadow="2"
     inkscape:window-width="1920"
     inkscape:window-height="1027"
     id="namedview21"
     showgrid="true"
     inkscape:snap-bbox="true"
     inkscape:bbox-nodes="true"
     inkscape:object-paths="true"
     inkscape:snap-intersection-paths="true"
     inkscape:snap-bbox-edge-midpoints="true"
     inkscape:zoom="14.75"
     inkscape:cx="-6.0321492"
     inkscape:cy="25.696289"
     inkscape:window-x="0"
     inkscape:window-y="28"
     inkscape:window-maximized="1"
     inkscape:current-layer="svg19">
    <inkscape:grid
       type="xygrid"
       id="grid848" />
  </sodipodi:namedview>
  <defs
     id="defs6">
    <style
       id="current-color-scheme"
       type="text/css">.ColorScheme-Text { color:#dedede; } .ColorScheme-Highlight { color:#5294e2; } .ColorScheme-ButtonBackground { color:#dedede; }</style>
    <filter
       id="a"
       x="-.036"
       y="-.036"
       width="1.072"
       height="1.072"
       color-interpolation-filters="sRGB">
      <feGaussianBlur
         stdDeviation="0.43506"
         id="feGaussianBlur3" />
    </filter>
    <style
       id="style834"
       type="text/css" />
    <style
       id="style825"
       type="text/css" />
    <style
       id="style823"
       type="text/css" />
    <style
       type="text/css"
       id="current-color-scheme-5">.ColorScheme-Text { color:#dedede; } .ColorScheme-Highlight { color:#5294e2; } .ColorScheme-ButtonBackground { color:#dedede; }</style>
    <filter
       color-interpolation-filters="sRGB"
       height="1.072"
       width="1.072"
       y="-.036"
       x="-.036"
       id="a-6">
      <feGaussianBlur
         id="feGaussianBlur3-2"
         stdDeviation="0.43506" />
    </filter>
    <style
       type="text/css"
       id="style834-9" />
    <style
       type="text/css"
       id="style825-1" />
  </defs>
  <g
     id="22-22-applications-other">
    <rect
       id="rect822"
       style="opacity:0;stroke-width:2;paint-order:fill markers stroke"
       ry="0"
       rx="0"
       height="32"
       width="32"
       y="-3.5527137e-15"
       x="-42" />
    <g
       transform="translate(-7.5,31.5)"
       id="g953">
      <path
         inkscape:connector-curvature="0"
         id="path922"
         d="M -18.5,-28 A 12.5,12.5 0 0 0 -31,-15.5 12.5,12.5 0 0 0 -18.5,-3 12.5,12.5 0 0 0 -6,-15.5 12.5,12.5 0 0 0 -18.5,-28 Z m 0,2 A 10.5,10.5 0 0 1 -8,-15.5 10.5,10.5 0 0 1 -18.5,-5 10.5,10.5 0 0 1 -29,-15.5 10.5,10.5 0 0 1 -18.5,-26 Z"
         style="opacity:1;fill:#eaeaea;fill-opacity:1;stroke:none;stroke-width:0.05952381;stroke-miterlimit:4;stroke-dasharray:none;stroke-opacity:1" />
      <g
         transform="translate(-36.499545,-1.157431)"
         id="g930">
        <rect
           style="opacity:1;fill:#eaeaea;fill-opacity:1;stroke:none;stroke-width:0.04714045;stroke-miterlimit:4;stroke-dasharray:none;stroke-opacity:1"
           id="rect924"
           width="2"
           height="8"
           x="17"
           y="-15.481889"
           ry="1" />
        <rect
           ry="1"
           y="0.65439492"
           x="21.13534"
           height="8"
           width="2"
           id="rect926"
           style="opacity:1;fill:#eaeaea;fill-opacity:1;stroke:none;stroke-width:0.04714045;stroke-miterlimit:4;stroke-dasharray:none;stroke-opacity:1"
           transform="rotate(-60)" />
        <rect
           transform="matrix(-0.5,-0.8660254,-0.8660254,0.5,0,0)"
           style="opacity:1;fill:#eaeaea;fill-opacity:1;stroke:none;stroke-width:0.04714045;stroke-miterlimit:4;stroke-dasharray:none;stroke-opacity:1"
           id="rect928"
           width="2"
           height="8"
           x="3.1357944"
           y="-30.521732"
           ry="1" />
      </g>
    </g>
  </g>
  <g
     id="applications-other">
    <rect
       x="0"
       y="-3.5527137e-15"
       width="32"
       height="32"
       rx="0"
       ry="0"
       style="opacity:0;stroke-width:2;paint-order:fill markers stroke"
       id="rect8" />
    <g
       transform="translate(34.5,31.5)"
       id="g965">
      <path
         style="opacity:1;fill:#eaeaea;fill-opacity:1;stroke:none;stroke-width:0.05952381;stroke-miterlimit:4;stroke-dasharray:none;stroke-opacity:1"
         d="M -18.5,-28 A 12.5,12.5 0 0 0 -31,-15.5 12.5,12.5 0 0 0 -18.5,-3 12.5,12.5 0 0 0 -6,-15.5 12.5,12.5 0 0 0 -18.5,-28 Z m 0,2 A 10.5,10.5 0 0 1 -8,-15.5 10.5,10.5 0 0 1 -18.5,-5 10.5,10.5 0 0 1 -29,-15.5 10.5,10.5 0 0 1 -18.5,-26 Z"
         id="path955"
         inkscape:connector-curvature="0" />
      <g
         id="g963"
         transform="translate(-36.499545,-1.157431)">
        <rect
           ry="1"
           y="-15.481889"
           x="17"
           height="8"
           width="2"
           id="rect957"
           style="opacity:1;fill:#eaeaea;fill-opacity:1;stroke:none;stroke-width:0.04714045;stroke-miterlimit:4;stroke-dasharray:none;stroke-opacity:1" />
        <rect
           transform="rotate(-60)"
           style="opacity:1;fill:#eaeaea;fill-opacity:1;stroke:none;stroke-width:0.04714045;stroke-miterlimit:4;stroke-dasharray:none;stroke-opacity:1"
           id="rect959"
           width="2"
           height="8"
           x="21.13534"
           y="0.65439492"
           ry="1" />
        <rect
           ry="1"
           y="-30.521732"
           x="3.1357944"
           height="8"
           width="2"
           id="rect961"
           style="opacity:1;fill:#eaeaea;fill-opacity:1;stroke:none;stroke-width:0.04714045;stroke-miterlimit:4;stroke-dasharray:none;stroke-opacity:1"
           transform="matrix(-0.5,-0.8660254,-0.8660254,0.5,0,0)" />
      </g>
    </g>
  </g>
</svg>
