<?xml version="1.0" encoding="UTF-8" standalone="no"?>
<svg
   xmlns:dc="http://purl.org/dc/elements/1.1/"
   xmlns:cc="http://creativecommons.org/ns#"
   xmlns:rdf="http://www.w3.org/1999/02/22-rdf-syntax-ns#"
   xmlns:svg="http://www.w3.org/2000/svg"
   xmlns="http://www.w3.org/2000/svg"
   xmlns:sodipodi="http://sodipodi.sourceforge.net/DTD/sodipodi-0.dtd"
   xmlns:inkscape="http://www.inkscape.org/namespaces/inkscape"
   width="32"
   height="32"
   version="1.1"
   viewBox="0 0 32 32"
   id="svg19"
   sodipodi:docname="applications.svg"
   inkscape:version="0.92.4 5da689c313, 2019-01-14">
  <metadata
     id="metadata23">
    <rdf:RDF>
      <cc:Work
         rdf:about="">
        <dc:format>image/svg+xml</dc:format>
        <dc:type
           rdf:resource="http://purl.org/dc/dcmitype/StillImage" />
        <dc:title />
      </cc:Work>
    </rdf:RDF>
  </metadata>
  <sodipodi:namedview
     pagecolor="#c8c8c8"
     bordercolor="#666666"
     borderopacity="1"
     objecttolerance="10"
     gridtolerance="10"
     guidetolerance="10"
     inkscape:pageopacity="0"
     inkscape:pageshadow="2"
     inkscape:window-width="1920"
     inkscape:window-height="1023"
     id="namedview21"
     showgrid="true"
     inkscape:snap-bbox="true"
     inkscape:bbox-nodes="true"
     inkscape:object-paths="true"
     inkscape:snap-intersection-paths="true"
     inkscape:snap-bbox-edge-midpoints="true"
     inkscape:zoom="10.429825"
     inkscape:cx="-7.8668275"
     inkscape:cy="20.098551"
     inkscape:window-x="0"
     inkscape:window-y="32"
     inkscape:window-maximized="1"
     inkscape:current-layer="svg19">
    <inkscape:grid
       type="xygrid"
       id="grid848" />
  </sodipodi:namedview>
  <defs
     id="defs6">
    <style
       id="current-color-scheme"
       type="text/css">.ColorScheme-Text { color:#dedede; } .ColorScheme-Highlight { color:#5294e2; } .ColorScheme-ButtonBackground { color:#dedede; }</style>
    <filter
       id="a"
       x="-.036"
       y="-.036"
       width="1.072"
       height="1.072"
       color-interpolation-filters="sRGB">
      <feGaussianBlur
         stdDeviation="0.43506"
         id="feGaussianBlur3" />
    </filter>
    <style
       id="style834"
       type="text/css" />
  </defs>
  <g
     id="applications-other"
     inkscape:label="#applications-other">
    <rect
       x="-2.7562999e-07"
       y="-1.2834001e-09"
       width="32"
       height="32"
       rx="0"
       ry="0"
       style="opacity:0;stroke-width:2;paint-order:fill markers stroke"
       id="rect8-6" />
    <path
       inkscape:connector-curvature="0"
       style="color:#000000;overflow:visible;opacity:0.8;fill:#ffffff;fill-opacity:0.98824002;stroke-width:1.14285719"
       d="m 15.78125,1.0019531 a 15.000001,15.000001 0 0 0 -0.707031,0.044922 c 0.270693,-0.016599 0.540087,-0.038993 0.814453,-0.041016 a 15.000001,15.000001 0 0 0 -0.107422,-0.00391 z m 0.832031,0.029297 c 0.263685,0.010707 0.529039,0.016838 0.789063,0.041016 a 15.000001,15.000001 0 0 0 -0.789063,-0.041016 z m -2.236328,0.060547 a 15.000001,15.000001 0 0 0 -0.671875,0.1015625 c 0.223939,-0.034532 0.444798,-0.077069 0.671875,-0.1015625 z M 18.255859,1.1875 c 0.200079,0.030311 0.402197,0.05365 0.59961,0.091797 A 15.000001,15.000001 0 0 0 18.255859,1.1875 Z m -5.388671,0.1464844 a 15.000001,15.000001 0 0 0 -0.494141,0.1269531 c 0.165143,-0.041152 0.326892,-0.091332 0.494141,-0.1269531 z m 6.951171,0.1757812 c 0.161864,0.042625 0.326646,0.079097 0.486329,0.1269532 A 15.000001,15.000001 0 0 0 19.818359,1.5097656 Z M 11.421875,1.71875 a 15.000001,15.000001 0 0 0 -0.441406,0.1621094 c 0.147947,-0.052684 0.291366,-0.113984 0.441406,-0.1621094 z m 9.787109,0.2324219 c 0.169612,0.06301 0.343106,0.1166366 0.509766,0.1855469 A 15.000001,15.000001 0 0 0 21.208984,1.9511719 Z M 16,2 C 8.2621349,2 2,8.2621349 2,16 2,23.737865 8.2621349,30 16,30 23.737865,30 30,23.737865 30,16 30,8.2621349 23.737865,2 16,2 Z M 10.037109,2.2402344 A 15.000001,15.000001 0 0 0 9.5175781,2.4921875 C 9.6910725,2.4086712 9.8599956,2.3171896 10.037109,2.2402344 Z m 12.476563,0.2675781 c 0.186648,0.090386 0.3783,0.1717325 0.560547,0.2695313 A 15.000001,15.000001 0 0 0 22.513672,2.5078125 Z M 8.734375,2.8847656 A 15.000001,15.000001 0 0 0 8.1464844,3.2402344 C 8.3412925,3.1199812 8.5337991,2.9962222 8.734375,2.8847656 Z m 15.101563,0.3457032 c 0.163132,0.100399 0.333259,0.190486 0.492187,0.296875 A 15.000001,15.000001 0 0 0 23.835938,3.2304688 Z M 7.4980469,3.6503906 A 15.000001,15.000001 0 0 0 6.8535156,4.1328125 C 7.0658547,3.9688526 7.2769082,3.8030069 7.4980469,3.6503906 Z M 24.943359,3.9804688 c 0.199085,0.1484421 0.404396,0.2893546 0.595703,0.4472656 A 15.000001,15.000001 0 0 0 24.943359,3.9804688 Z m 0.595703,0.4472656 c 0.702876,0.5801734 1.346648,1.2267924 1.933594,1.9238281 A 15.000001,15.000001 0 0 0 26.607422,5.3925781 15.000001,15.000001 0 0 0 25.539062,4.4277344 Z M 6.3515625,4.5273438 A 15.000001,15.000001 0 0 0 5.3925781,5.3925781 15.000001,15.000001 0 0 0 4.4277344,6.4609375 C 5.0079078,5.7580624 5.6545268,5.1142896 6.3515625,4.5273438 Z M 4.4277344,6.4609375 A 15.000001,15.000001 0 0 0 3.9804688,7.0566406 C 4.1289109,6.8575562 4.2698234,6.6522453 4.4277344,6.4609375 Z M 16,4.9355469 c 1.025783,0 2.051264,0.3872016 2.828125,1.1640625 1.553723,1.5537217 1.553723,4.1044826 0,5.6582026 l -1.726563,1.726563 c -0.597505,0.597506 -1.605617,0.597506 -2.203124,0 l -1.726563,-1.726563 c -1.553722,-1.55372 -1.553722,-4.1044809 0,-5.6582026 C 13.948736,5.3227485 14.974217,4.9355469 16,4.9355469 Z m -0.04297,0.9941406 a 3,3 0 0 0 -2.078125,0.8769531 3,3 0 0 0 0,4.2441404 l 1.726563,1.726563 c 0.219106,0.219106 0.569955,0.219106 0.789062,0 l 1.726563,-1.726563 a 3,3 0 0 0 0,-4.2441404 3,3 0 0 0 -2.164063,-0.8769531 z m 11.910157,0.9238281 c 0.163959,0.2123391 0.329805,0.4233926 0.482421,0.6445313 A 15.000001,15.000001 0 0 0 27.867187,6.8535156 Z M 3.5273438,7.671875 a 15.000001,15.000001 0 0 0 -0.296875,0.4921875 c 0.100399,-0.1631328 0.190486,-0.33326 0.296875,-0.4921875 z M 28.759766,8.1464844 c 0.120253,0.1948081 0.244012,0.3873147 0.355468,0.5878906 A 15.000001,15.000001 0 0 0 28.759766,8.1464844 Z M 2.7773438,8.9257812 A 15.000001,15.000001 0 0 0 2.5078125,9.4863281 C 2.5981989,9.2996803 2.679545,9.1080283 2.7773438,8.9257812 Z M 29.507812,9.5175781 c 0.08352,0.1734944 0.174998,0.3424175 0.251954,0.5195309 A 15.000001,15.000001 0 0 0 29.507812,9.5175781 Z M 2.1367188,10.28125 a 15.000001,15.000001 0 0 0 -0.1855469,0.509766 c 0.06301,-0.169612 0.1166366,-0.343106 0.1855469,-0.509766 z m 27.9824222,0.699219 c 0.05268,0.147947 0.113984,0.291366 0.162109,0.441406 A 15.000001,15.000001 0 0 0 30.119141,10.980469 Z M 1.6367188,11.695312 a 15.000001,15.000001 0 0 0 -0.1269532,0.486329 c 0.042625,-0.161864 0.079097,-0.326646 0.1269532,-0.486329 z m 7.2929687,0.310547 c 1.0257831,0 2.0512645,0.389154 2.8281245,1.166016 l 1.726563,1.726563 c 0.597508,0.597505 0.597508,1.605617 0,2.203124 l -1.726563,1.726563 c -1.55372,1.553722 -4.1044808,1.553722 -5.6582026,0 -1.553722,-1.553722 -1.553722,-4.102528 0,-5.65625 0.7768609,-0.776861 1.804295,-1.166016 2.8300781,-1.166016 z m 14.1406245,0 c 1.025784,0 2.053218,0.389155 2.830079,1.166016 1.55372,1.553721 1.55372,4.102528 0,5.65625 -1.553722,1.553722 -4.104482,1.553722 -5.658203,0 l -1.726563,-1.726563 c -0.597506,-0.597507 -0.597506,-1.605618 0,-2.203124 l 1.726563,-1.726563 c 0.77686,-0.776861 1.802341,-1.166016 2.828124,-1.166016 z m 7.46875,0.367188 c 0.04115,0.165143 0.09133,0.326892 0.126954,0.494141 A 15.000001,15.000001 0 0 0 30.539062,12.373047 Z M 8.8847656,13 a 3,3 0 0 0 -2.078125,0.878906 3,3 0 0 0 0,4.242188 3,3 0 0 0 4.2441404,0 l 1.726563,-1.726563 c 0.219108,-0.219106 0.219108,-0.569955 0,-0.789062 L 11.050781,13.878906 A 3,3 0 0 0 8.8847656,13 Z m 14.1425784,0 a 3,3 0 0 0 -2.078125,0.878906 l -1.726563,1.726563 c -0.219107,0.219107 -0.219107,0.569956 0,0.789062 l 1.726563,1.726563 a 3,3 0 0 0 4.24414,0 3,3 0 0 0 0,-4.242188 A 3,3 0 0 0 23.027344,13 Z M 1.2792969,13.144531 A 15.000001,15.000001 0 0 0 1.1875,13.744141 c 0.030311,-0.200079 0.05365,-0.402197 0.091797,-0.59961 z m 29.5273441,0.560547 c 0.03453,0.223939 0.07707,0.444798 0.101562,0.671875 A 15.000001,15.000001 0 0 0 30.806641,13.705078 Z M 1.0722656,14.597656 A 15.000001,15.000001 0 0 0 1.03125,15.386719 c 0.010707,-0.263685 0.016838,-0.529039 0.041016,-0.789063 z m 29.8808594,0.476563 c 0.0166,0.270693 0.03899,0.540087 0.04102,0.814453 a 15.000001,15.000001 0 0 0 -0.04102,-0.814453 z M 1.0058594,16.111328 a 15.000001,15.000001 0 0 0 0.041016,0.814453 C 1.0302762,16.655088 1.0078815,16.385694 1.0058594,16.111328 Z M 30.96875,16.613281 c -0.01071,0.263685 -0.01684,0.529039 -0.04102,0.789063 a 15.000001,15.000001 0 0 0 0.04102,-0.789063 z M 1.0917969,17.623047 a 15.000001,15.000001 0 0 0 0.1015625,0.671875 C 1.1588276,18.070983 1.1162906,17.850124 1.0917969,17.623047 Z M 16,18.068359 c 0.40167,0 0.80281,0.148512 1.101562,0.447266 l 1.726563,1.726563 c 1.553723,1.55372 1.553723,4.104481 0,5.658203 -1.553722,1.553723 -4.102528,1.553722 -5.65625,0 -1.553722,-1.55372 -1.553722,-4.104483 0,-5.658203 l 1.726563,-1.726563 C 15.197191,18.216871 15.59833,18.068359 16,18.068359 Z m 14.8125,0.1875 c -0.03031,0.200079 -0.05365,0.402197 -0.0918,0.59961 a 15.000001,15.000001 0 0 0 0.0918,-0.59961 z M 16,19.058594 c -0.142716,0 -0.284978,0.05451 -0.394531,0.164062 l -1.726563,1.726563 a 3,3 0 0 0 0,4.24414 3,3 0 0 0 4.242188,0 3,3 0 0 0 0,-4.24414 L 16.394531,19.222656 C 16.284978,19.113103 16.142716,19.058594 16,19.058594 Z m -14.6660156,0.07422 a 15.000001,15.000001 0 0 0 0.1269531,0.494141 C 1.4197852,19.46181 1.3696051,19.300061 1.3339844,19.132812 Z m 29.1562496,0.685547 c -0.04263,0.161864 -0.0791,0.326646 -0.126953,0.486329 a 15.000001,15.000001 0 0 0 0.126953,-0.486329 z M 1.71875,20.578125 a 15.000001,15.000001 0 0 0 0.1621094,0.441406 C 1.8281751,20.871584 1.7668754,20.728165 1.71875,20.578125 Z m 28.330078,0.630859 c -0.06301,0.169612 -0.116637,0.343106 -0.185547,0.509766 a 15.000001,15.000001 0 0 0 0.185547,-0.509766 z M 2.2402344,21.962891 a 15.000001,15.000001 0 0 0 0.2519531,0.519531 C 2.4086712,22.308927 2.3171896,22.140004 2.2402344,21.962891 Z m 27.2519536,0.550781 c -0.09039,0.186648 -0.171733,0.3783 -0.269532,0.560547 a 15.000001,15.000001 0 0 0 0.269532,-0.560547 z M 2.8847656,23.265625 a 15.000001,15.000001 0 0 0 0.3554688,0.587891 C 3.1199812,23.658708 2.9962222,23.466201 2.8847656,23.265625 Z m 25.8847654,0.570313 c -0.100399,0.163132 -0.190486,0.333259 -0.296875,0.492187 a 15.000001,15.000001 0 0 0 0.296875,-0.492187 z M 3.6503906,24.501953 a 15.000001,15.000001 0 0 0 0.4824219,0.644531 C 3.9688526,24.934145 3.8030069,24.723092 3.6503906,24.501953 Z m 24.3691404,0.441406 c -0.148442,0.199085 -0.289354,0.404396 -0.447265,0.595703 a 15.000001,15.000001 0 0 0 0.447265,-0.595703 z m -0.447265,0.595703 c -0.580174,0.702876 -1.226793,1.346648 -1.923828,1.933594 a 15.000001,15.000001 0 0 0 0.958984,-0.865234 15.000001,15.000001 0 0 0 0.964844,-1.06836 z M 4.5273438,25.648438 a 15.000001,15.000001 0 0 0 0.8652343,0.958984 15.000001,15.000001 0 0 0 1.0683594,0.964844 C 5.7580624,26.992092 5.1142896,26.345473 4.5273438,25.648438 Z m 1.9335937,1.923828 a 15.000001,15.000001 0 0 0 0.5957031,0.447265 C 6.8575562,27.871089 6.6522453,27.730177 6.4609375,27.572266 Z m 18.6855465,0.294922 c -0.212339,0.163959 -0.423392,0.329805 -0.644531,0.482421 a 15.000001,15.000001 0 0 0 0.644531,-0.482421 z M 7.671875,28.472656 a 15.000001,15.000001 0 0 0 0.4921875,0.296875 C 8.0009297,28.669132 7.8308025,28.579045 7.671875,28.472656 Z m 16.181641,0.28711 c -0.194808,0.120253 -0.387315,0.244012 -0.587891,0.355468 a 15.000001,15.000001 0 0 0 0.587891,-0.355468 z m -14.9277348,0.46289 a 15.000001,15.000001 0 0 0 0.5605469,0.269532 C 9.2996803,29.401801 9.1080283,29.320455 8.9257812,29.222656 Z m 13.5566408,0.285156 c -0.173495,0.08352 -0.342418,0.174998 -0.519531,0.251954 a 15.000001,15.000001 0 0 0 0.519531,-0.251954 z M 10.28125,29.863281 a 15.000001,15.000001 0 0 0 0.509766,0.185547 C 10.621404,29.985818 10.44791,29.932191 10.28125,29.863281 Z m 10.738281,0.25586 c -0.147947,0.05268 -0.291366,0.113984 -0.441406,0.162109 a 15.000001,15.000001 0 0 0 0.441406,-0.162109 z m -9.324219,0.24414 a 15.000001,15.000001 0 0 0 0.486329,0.126953 c -0.161864,-0.04263 -0.326646,-0.0791 -0.486329,-0.126953 z m 7.931641,0.175781 c -0.165143,0.04115 -0.326892,0.09133 -0.494141,0.126954 a 15.000001,15.000001 0 0 0 0.494141,-0.126954 z m -6.482422,0.181641 a 15.000001,15.000001 0 0 0 0.59961,0.0918 c -0.200079,-0.03031 -0.402197,-0.05365 -0.59961,-0.0918 z m 5.150391,0.08594 c -0.223939,0.03453 -0.444798,0.07707 -0.671875,0.101562 a 15.000001,15.000001 0 0 0 0.671875,-0.101562 z m -3.697266,0.121093 a 15.000001,15.000001 0 0 0 0.789063,0.04102 c -0.263685,-0.01071 -0.529039,-0.01684 -0.789063,-0.04102 z m 2.328125,0.02539 c -0.270693,0.0166 -0.540087,0.03899 -0.814453,0.04102 a 15.000001,15.000001 0 0 0 0.814453,-0.04102 z"
       id="path12-7" />
  </g>
  <g
     id="22-22-applications-other">
    <rect
       id="rect822"
       style="opacity:0;stroke-width:2;paint-order:fill markers stroke"
       ry="0"
       rx="0"
       height="32"
       width="32"
       y="0.0327175"
       x="-43.499638" />
    <path
       id="path827"
       d="m -27.718388,1.0366231 a 15.000001,15.000001 0 0 0 -0.707031,0.044922 c 0.270693,-0.016599 0.540087,-0.038993 0.814453,-0.041016 a 15.000001,15.000001 0 0 0 -0.107422,-0.00391 z m 0.832031,0.029297 c 0.263685,0.010707 0.529039,0.016838 0.789063,0.041016 a 15.000001,15.000001 0 0 0 -0.789063,-0.041016 z m -2.236328,0.060547 a 15.000001,15.000001 0 0 0 -0.671875,0.1015625 c 0.223939,-0.034532 0.444798,-0.077069 0.671875,-0.1015625 z m 3.878906,0.095703 c 0.200079,0.030311 0.402197,0.05365 0.59961,0.091797 a 15.000001,15.000001 0 0 0 -0.59961,-0.091797 z m -5.388671,0.1464844 a 15.000001,15.000001 0 0 0 -0.494141,0.1269531 c 0.165143,-0.041152 0.326892,-0.091332 0.494141,-0.1269531 z m 6.951171,0.1757812 c 0.161864,0.042625 0.326646,0.079097 0.486329,0.1269532 A 15.000001,15.000001 0 0 0 -23.681279,1.5444357 Z M -32.077763,1.75342 a 15.000001,15.000001 0 0 0 -0.441406,0.1621094 c 0.147947,-0.052684 0.291366,-0.113984 0.441406,-0.1621094 z m 9.787109,0.2324219 c 0.169612,0.06301 0.343106,0.1166366 0.509766,0.1855469 a 15.000001,15.000001 0 0 0 -0.509766,-0.1855469 z m -5.208984,0.048828 c -7.737865,0 -14,6.2621349 -14,14.0000001 0,7.737865 6.262135,14 14,14 7.737865,0 14,-6.262135 14,-14 0,-7.7378652 -6.262135,-14.0000001 -14,-14.0000001 z m -5.962891,0.2402344 a 15.000001,15.000001 0 0 0 -0.519531,0.2519531 c 0.173495,-0.083516 0.342418,-0.1749979 0.519531,-0.2519531 z m 12.476563,0.2675781 c 0.186648,0.090386 0.3783,0.1717325 0.560547,0.2695313 a 15.000001,15.000001 0 0 0 -0.560547,-0.2695313 z m -13.779297,0.3769531 a 15.000001,15.000001 0 0 0 -0.587891,0.3554688 c 0.194808,-0.1202532 0.387315,-0.2440122 0.587891,-0.3554688 z M -19.6637,3.2651387 c 0.163132,0.100399 0.333259,0.190486 0.492187,0.296875 A 15.000001,15.000001 0 0 0 -19.6637,3.2651387 Z m -16.337891,0.4199219 a 15.000001,15.000001 0 0 0 -0.644531,0.4824219 c 0.212339,-0.1639599 0.423392,-0.3298056 0.644531,-0.4824219 z m 17.445312,0.3300782 c 0.199085,0.1484421 0.404396,0.2893546 0.595703,0.4472656 a 15.000001,15.000001 0 0 0 -0.595703,-0.4472656 z m 0.595703,0.4472656 c 0.702876,0.5801734 1.346648,1.2267924 1.933594,1.9238281 a 15.000001,15.000001 0 0 0 -0.865234,-0.9589844 15.000001,15.000001 0 0 0 -1.06836,-0.9648437 z m -19.187499,0.099609 a 15.000001,15.000001 0 0 0 -0.958985,0.8652343 15.000001,15.000001 0 0 0 -0.964844,1.0683594 c 0.580174,-0.7028751 1.226793,-1.3466479 1.923829,-1.9335937 z m -1.923829,1.9335937 a 15.000001,15.000001 0 0 0 -0.447265,0.5957031 c 0.148442,-0.1990844 0.289354,-0.4043953 0.447265,-0.5957031 z m 11.572266,-1.5253906 c 1.025783,0 2.051264,0.3872016 2.828125,1.1640625 1.553723,1.5537217 1.553723,4.104483 0,5.658203 l -1.726563,1.726563 c -0.597505,0.597506 -1.605617,0.597506 -2.203124,0 l -1.726563,-1.726563 c -1.553722,-1.55372 -1.553722,-4.1044813 0,-5.658203 0.776861,-0.7768609 1.802342,-1.1640625 2.828125,-1.1640625 z m -0.04297,0.9941406 a 3,3 0 0 0 -2.078125,0.8769531 3,3 0 0 0 0,4.2441408 l 1.726563,1.726563 c 0.219106,0.219106 0.569955,0.219106 0.789062,0 l 1.726563,-1.726563 a 3,3 0 0 0 0,-4.2441408 3,3 0 0 0 -2.164063,-0.8769531 z m 11.910157,0.9238281 c 0.163959,0.2123391 0.329805,0.4233926 0.482421,0.6445313 A 15.000001,15.000001 0 0 0 -15.632451,6.8881852 Z M -39.972294,7.706545 a 15.000001,15.000001 0 0 0 -0.296875,0.4921875 c 0.100399,-0.1631328 0.190486,-0.33326 0.296875,-0.4921875 z m 25.232422,0.4746094 c 0.120253,0.1948081 0.244012,0.3873147 0.355468,0.5878906 a 15.000001,15.000001 0 0 0 -0.355468,-0.5878906 z m -25.982422,0.7792968 a 15.000001,15.000001 0 0 0 -0.269531,0.5605467 c 0.09039,-0.186648 0.171732,-0.3783 0.269531,-0.5605467 z m 26.730468,0.5917967 c 0.08352,0.173495 0.174998,0.342418 0.251954,0.5195311 A 15.000001,15.000001 0 0 0 -13.991826,9.5522479 Z M -41.362919,10.31592 a 15.000001,15.000001 0 0 0 -0.185547,0.509766 c 0.06301,-0.169612 0.116637,-0.343106 0.185547,-0.509766 z m 27.982422,0.699219 c 0.05268,0.147947 0.113984,0.291366 0.162109,0.441406 a 15.000001,15.000001 0 0 0 -0.162109,-0.441406 z m -28.482422,0.714843 a 15.000001,15.000001 0 0 0 -0.126953,0.486329 c 0.04263,-0.161864 0.0791,-0.326646 0.126953,-0.486329 z m 7.292969,0.310547 c 1.025783,0 2.051264,0.389154 2.828124,1.166016 l 1.726563,1.726563 c 0.597508,0.597505 0.597508,1.605617 0,2.203124 l -1.726563,1.726563 c -1.55372,1.553722 -4.104481,1.553722 -5.658203,0 -1.553722,-1.553722 -1.553722,-4.102528 0,-5.65625 0.776861,-0.776861 1.804295,-1.166016 2.830079,-1.166016 z m 14.140624,0 c 1.025784,0 2.053218,0.389155 2.830079,1.166016 1.55372,1.553721 1.55372,4.102528 0,5.65625 -1.553722,1.553722 -4.104482,1.553722 -5.658203,0 l -1.726563,-1.726563 c -0.597506,-0.597507 -0.597506,-1.605618 0,-2.203124 l 1.726563,-1.726563 c 0.77686,-0.776861 1.802341,-1.166016 2.828124,-1.166016 z m 7.46875,0.367188 c 0.04115,0.165143 0.09133,0.326892 0.126954,0.494141 a 15.000001,15.000001 0 0 0 -0.126954,-0.494141 z m -21.654296,0.626953 a 3,3 0 0 0 -2.078125,0.878906 3,3 0 0 0 0,4.242188 3,3 0 0 0 4.24414,0 l 1.726563,-1.726563 c 0.219108,-0.219106 0.219108,-0.569955 0,-0.789062 l -1.726563,-1.726563 a 3,3 0 0 0 -2.166015,-0.878906 z m 14.142578,0 a 3,3 0 0 0 -2.078125,0.878906 l -1.726563,1.726563 c -0.219107,0.219107 -0.219107,0.569956 0,0.789062 l 1.726563,1.726563 a 3,3 0 0 0 4.24414,0 3,3 0 0 0 0,-4.242188 3,3 0 0 0 -2.166015,-0.878906 z m -21.748047,0.144531 a 15.000001,15.000001 0 0 0 -0.0918,0.59961 c 0.03031,-0.200079 0.05365,-0.402197 0.0918,-0.59961 z m 29.527344,0.560547 c 0.03453,0.223939 0.07707,0.444798 0.101562,0.671875 a 15.000001,15.000001 0 0 0 -0.101562,-0.671875 z m -29.734375,0.892578 a 15.000001,15.000001 0 0 0 -0.04102,0.789063 c 0.01071,-0.263685 0.01684,-0.529039 0.04102,-0.789063 z m 29.880859,0.476563 c 0.0166,0.270693 0.03899,0.540087 0.04102,0.814453 a 15.000001,15.000001 0 0 0 -0.04102,-0.814453 z m -29.947266,1.037109 a 15.000001,15.000001 0 0 0 0.04102,0.814453 c -0.0166,-0.270693 -0.03899,-0.540087 -0.04102,-0.814453 z m 29.962891,0.501953 c -0.01071,0.263685 -0.01684,0.529039 -0.04102,0.789063 a 15.000001,15.000001 0 0 0 0.04102,-0.789063 z m -29.876953,1.009766 a 15.000001,15.000001 0 0 0 0.101562,0.671875 c -0.03453,-0.223939 -0.07707,-0.444798 -0.101562,-0.671875 z m 14.908203,0.445312 c 0.40167,0 0.80281,0.148512 1.101562,0.447266 l 1.726563,1.726563 c 1.553723,1.55372 1.553723,4.104481 0,5.658203 -1.553722,1.553723 -4.102528,1.553722 -5.65625,0 -1.553722,-1.55372 -1.553722,-4.104483 0,-5.658203 l 1.726563,-1.726563 c 0.298753,-0.298754 0.699892,-0.447266 1.101562,-0.447266 z m 14.8125,0.1875 c -0.03031,0.200079 -0.05365,0.402197 -0.0918,0.59961 a 15.000001,15.000001 0 0 0 0.0918,-0.59961 z m -14.8125,0.802735 c -0.142716,0 -0.284978,0.05451 -0.394531,0.164062 l -1.726563,1.726563 a 3,3 0 0 0 0,4.24414 3,3 0 0 0 4.242188,0 3,3 0 0 0 0,-4.24414 l -1.726563,-1.726563 c -0.109553,-0.109553 -0.251815,-0.164062 -0.394531,-0.164062 z m -14.666016,0.07422 a 15.000001,15.000001 0 0 0 0.126954,0.494141 c -0.04115,-0.165145 -0.09133,-0.326894 -0.126954,-0.494143 z m 29.15625,0.685547 c -0.04263,0.161864 -0.0791,0.326646 -0.126953,0.486329 a 15.000001,15.000001 0 0 0 0.126953,-0.486329 z m -28.771484,0.759764 a 15.000001,15.000001 0 0 0 0.162109,0.441406 c -0.05268,-0.147947 -0.113984,-0.291366 -0.162109,-0.441406 z m 28.330078,0.630859 c -0.06301,0.169612 -0.116637,0.343106 -0.185547,0.509766 a 15.000001,15.000001 0 0 0 0.185547,-0.509766 z m -27.808594,0.753907 a 15.000001,15.000001 0 0 0 0.251954,0.519531 c -0.08352,-0.173495 -0.174998,-0.342418 -0.251954,-0.519531 z m 27.251954,0.550781 c -0.09039,0.186648 -0.171733,0.3783 -0.269532,0.560547 a 15.000001,15.000001 0 0 0 0.269532,-0.560547 z m -26.607422,0.751953 a 15.000001,15.000001 0 0 0 0.355468,0.587891 c -0.120253,-0.194808 -0.244012,-0.387315 -0.355468,-0.587891 z m 25.884765,0.570313 c -0.100399,0.163132 -0.190486,0.333259 -0.296875,0.492187 a 15.000001,15.000001 0 0 0 0.296875,-0.492187 z m -25.11914,0.666015 a 15.000001,15.000001 0 0 0 0.482422,0.644531 c -0.16396,-0.212339 -0.329806,-0.423392 -0.482422,-0.644531 z m 24.36914,0.441406 c -0.148442,0.199085 -0.289354,0.404396 -0.447265,0.595703 a 15.000001,15.000001 0 0 0 0.447265,-0.595703 z m -0.447265,0.595703 c -0.580174,0.702876 -1.226793,1.346648 -1.923828,1.933594 a 15.000001,15.000001 0 0 0 0.958984,-0.865234 15.000001,15.000001 0 0 0 0.964844,-1.06836 z m -23.044922,0.109376 a 15.000001,15.000001 0 0 0 0.865234,0.958984 15.000001,15.000001 0 0 0 1.06836,0.964844 c -0.702876,-0.580174 -1.346648,-1.226793 -1.933594,-1.923828 z m 1.933594,1.923828 a 15.000001,15.000001 0 0 0 0.595703,0.447265 c -0.199085,-0.148442 -0.404396,-0.289354 -0.595703,-0.447265 z m 18.685546,0.294922 c -0.212339,0.163959 -0.423392,0.329805 -0.644531,0.482421 a 15.000001,15.000001 0 0 0 0.644531,-0.482421 z m -17.474609,0.605468 a 15.000001,15.000001 0 0 0 0.492188,0.296875 c -0.163133,-0.100399 -0.33326,-0.190486 -0.492188,-0.296875 z m 16.181641,0.28711 c -0.194808,0.120253 -0.387315,0.244012 -0.587891,0.355468 a 15.000001,15.000001 0 0 0 0.587891,-0.355468 z m -14.927735,0.46289 a 15.000001,15.000001 0 0 0 0.560547,0.269532 c -0.186648,-0.09039 -0.3783,-0.171733 -0.560547,-0.269532 z m 13.556641,0.285156 c -0.173495,0.08352 -0.342418,0.174998 -0.519531,0.251954 a 15.000001,15.000001 0 0 0 0.519531,-0.251954 z m -12.201172,0.355469 a 15.000001,15.000001 0 0 0 0.509766,0.185547 c -0.169612,-0.06301 -0.343106,-0.116637 -0.509766,-0.185547 z m 10.738281,0.25586 c -0.147947,0.05268 -0.291366,0.113984 -0.441406,0.162109 a 15.000001,15.000001 0 0 0 0.441406,-0.162109 z m -9.324219,0.24414 a 15.000001,15.000001 0 0 0 0.486329,0.126953 c -0.161864,-0.04263 -0.326646,-0.0791 -0.486329,-0.126953 z m 7.931641,0.175781 c -0.165143,0.04115 -0.326892,0.09133 -0.494141,0.126954 a 15.000001,15.000001 0 0 0 0.494141,-0.126954 z m -6.482422,0.181641 a 15.000001,15.000001 0 0 0 0.59961,0.0918 c -0.200079,-0.03031 -0.402197,-0.05365 -0.59961,-0.0918 z m 5.150391,0.08594 c -0.223939,0.03453 -0.444798,0.07707 -0.671875,0.101562 a 15.000001,15.000001 0 0 0 0.671875,-0.101562 z m -3.697266,0.121093 a 15.000001,15.000001 0 0 0 0.789063,0.04102 c -0.263685,-0.01071 -0.529039,-0.01684 -0.789063,-0.04102 z m 2.328125,0.02539 c -0.270693,0.0166 -0.540087,0.03899 -0.814453,0.04102 a 15.000001,15.000001 0 0 0 0.814453,-0.04102 z"
       style="color:#000000;overflow:visible;opacity:0.8;fill:#ffffff;fill-opacity:0.98824002;stroke-width:1.14285719"
       inkscape:connector-curvature="0" />
  </g>
</svg>
