<?xml version="1.0" encoding="UTF-8" standalone="no"?>
<svg
   xmlns:dc="http://purl.org/dc/elements/1.1/"
   xmlns:cc="http://creativecommons.org/ns#"
   xmlns:rdf="http://www.w3.org/1999/02/22-rdf-syntax-ns#"
   xmlns:svg="http://www.w3.org/2000/svg"
   xmlns="http://www.w3.org/2000/svg"
   xmlns:sodipodi="http://sodipodi.sourceforge.net/DTD/sodipodi-0.dtd"
   xmlns:inkscape="http://www.inkscape.org/namespaces/inkscape"
   width="32"
   height="32"
   version="1.1"
   id="svg19"
   sodipodi:docname="bookmarks.svg"
   inkscape:version="0.92.4 5da689c313, 2019-01-14">
  <metadata
     id="metadata23">
    <rdf:RDF>
      <cc:Work
         rdf:about="">
        <dc:format>image/svg+xml</dc:format>
        <dc:type
           rdf:resource="http://purl.org/dc/dcmitype/StillImage" />
        <dc:title></dc:title>
      </cc:Work>
    </rdf:RDF>
  </metadata>
  <sodipodi:namedview
     pagecolor="#c8c8c8"
     bordercolor="#666666"
     borderopacity="1"
     objecttolerance="10"
     gridtolerance="10"
     guidetolerance="10"
     inkscape:pageopacity="0"
     inkscape:pageshadow="2"
     inkscape:window-width="1920"
     inkscape:window-height="1023"
     id="namedview21"
     showgrid="true"
     inkscape:zoom="16.000001"
     inkscape:cx="23.580796"
     inkscape:cy="13.890959"
     inkscape:window-x="0"
     inkscape:window-y="32"
     inkscape:window-maximized="1"
     inkscape:current-layer="svg19"
     inkscape:snap-bbox="true"
     inkscape:snap-bbox-edge-midpoints="true"
     inkscape:bbox-nodes="true">
    <inkscape:grid
       type="xygrid"
       id="grid819" />
  </sodipodi:namedview>
  <defs
     id="defs6">
    <style
       id="current-color-scheme"
       type="text/css">.ColorScheme-Text { color:#dedede; } .ColorScheme-Highlight { color:#5294e2; } .ColorScheme-ButtonBackground { color:#dedede; }</style>
    <filter
       id="a"
       x="-.036"
       y="-.036"
       width="1.072"
       height="1.072"
       color-interpolation-filters="sRGB">
      <feGaussianBlur
         stdDeviation="0.43506"
         id="feGaussianBlur3" />
    </filter>
    <style
       id="style835"
       type="text/css" />
  </defs>
  <g
     id="bookmarks">
    <rect
       x="0"
       y="0"
       width="32"
       height="32"
       rx="0"
       ry="0"
       style="opacity:0;stroke-width:2;paint-order:fill markers stroke"
       id="rect8" />
    <path
       style="opacity:0.8;fill:#ffffff;fill-opacity:1;fill-rule:evenodd;stroke:none;stroke-width:1.76470578;stroke-linecap:round;stroke-linejoin:miter;stroke-miterlimit:4;stroke-dasharray:none;stroke-dashoffset:3;stroke-opacity:1;paint-order:stroke fill markers"
       d="M 16 1 C 16.438308 1 16.870014 1.0294871 17.298828 1.0664062 A 15 15 0 0 0 16 1 z M 16 1 A 15 15 0 0 0 14.480469 1.078125 C 14.98009 1.0277697 15.487205 1 16 1 z M 18.085938 1.1621094 C 18.305667 1.1928162 18.525603 1.2215835 18.742188 1.2617188 A 15 15 0 0 0 18.085938 1.1621094 z M 19.615234 1.4570312 C 19.808656 1.5050603 20.002974 1.5519584 20.193359 1.6074219 A 15 15 0 0 0 19.615234 1.4570312 z M 21.035156 1.8867188 C 21.224796 1.95449 21.415526 2.0186418 21.601562 2.09375 A 15 15 0 0 0 21.035156 1.8867188 z M 16 2 C 8.2621371 2 2 8.2621371 2 16 C 2 23.737863 8.2621371 30 16 30 C 23.737863 30 30 23.737863 30 16 C 30 8.2621371 23.737863 2 16 2 z M 22.384766 2.4453125 C 22.579517 2.5373265 22.776742 2.6245652 22.966797 2.7246094 A 15 15 0 0 0 22.384766 2.4453125 z M 8.8398438 2.8203125 A 15 15 0 0 0 8.3046875 3.1445312 C 8.4835525 3.0371394 8.6562444 2.9203572 8.8398438 2.8203125 z M 23.65625 3.1210938 C 23.851008 3.2372246 24.049348 3.3480822 24.238281 3.4726562 A 15 15 0 0 0 23.65625 3.1210938 z M 7.578125 3.5898438 A 15 15 0 0 0 6.9140625 4.0878906 C 7.1338641 3.9199154 7.3490197 3.745709 7.578125 3.5898438 z M 24.845703 3.9082031 C 25.049805 4.0578406 25.257041 4.2037586 25.453125 4.3632812 A 15 15 0 0 0 24.845703 3.9082031 z M 6.4296875 4.4550781 A 15 15 0 0 0 5.6972656 5.1230469 C 5.937241 4.8956518 6.1751229 4.6663844 6.4296875 4.4550781 z M 25.890625 4.7480469 C 26.116756 4.9470142 26.344834 5.1434236 26.558594 5.3554688 A 15 15 0 0 0 25.890625 4.7480469 z M 5.3554688 5.4414062 A 15 15 0 0 0 4.7480469 6.109375 C 4.9470142 5.8832438 5.1434236 5.655166 5.3554688 5.4414062 z M 26.876953 5.6972656 C 27.104348 5.937241 27.333616 6.1751229 27.544922 6.4296875 A 15 15 0 0 0 26.876953 5.6972656 z M 4.3632812 6.546875 A 15 15 0 0 0 3.9082031 7.1542969 C 4.0578406 6.9501954 4.2037586 6.7429588 4.3632812 6.546875 z M 27.912109 6.9140625 C 28.080085 7.1338641 28.254291 7.3490197 28.410156 7.578125 A 15 15 0 0 0 27.912109 6.9140625 z M 12.464844 7 C 13.788092 7 14.977333 7.4966313 16.005859 8.3378906 C 17.033271 7.5024978 18.231148 7 19.544922 7 C 19.549722 7 19.553724 7.0019531 19.558594 7.0019531 L 19.558594 7 L 19.560547 7 L 19.560547 7.0039062 C 23.03935 7.0134362 25.849609 9.9824067 25.849609 13.599609 C 25.849609 15.719898 24.872498 17.212742 24.21875 18.212891 L 24.216797 18.212891 C 22.577818 20.71406 19.368717 23.169684 17.587891 24.441406 L 17.585938 24.441406 L 17.585938 24.443359 C 17.560927 24.460959 17.536439 24.478094 17.511719 24.496094 L 17.507812 24.498047 L 17.482422 24.515625 L 17.478516 24.519531 C 17.040891 24.829319 16.525377 24.999194 15.998047 25 L 15.996094 25 C 15.444331 25.0019 14.905805 24.82238 14.46875 24.488281 L 14.400391 24.441406 L 14.400391 24.439453 C 12.618694 23.169579 9.409673 20.721165 7.7851562 18.21875 C 7.1277002 17.214052 6.1503906 15.721547 6.1503906 13.599609 C 6.1503906 9.9777955 8.9732313 7 12.464844 7 z M 3.4726562 7.7617188 A 15 15 0 0 0 3.1210938 8.34375 C 3.2372246 8.1489922 3.3480822 7.9506522 3.4726562 7.7617188 z M 12.464844 8 C 9.5421118 8 7.1503906 10.494907 7.1503906 13.599609 C 7.1503906 15.418023 7.965577 16.665162 8.6230469 17.669922 L 8.6230469 17.671875 C 10.076269 19.911094 13.237506 22.382725 14.980469 23.625 L 15.070312 23.6875 L 15.076172 23.693359 C 15.336447 23.892263 15.65947 24.0014 15.992188 24 L 15.994141 24 C 16.311126 24 16.621375 23.90072 16.900391 23.703125 L 16.916016 23.691406 L 16.917969 23.691406 C 16.947209 23.670086 16.976279 23.647813 17.005859 23.626953 C 18.748177 22.382731 21.91129 19.908657 23.380859 17.666016 C 24.034812 16.665554 24.849609 15.416098 24.849609 13.599609 C 24.84951 10.492526 22.461792 8 19.544922 8 C 18.338567 8 17.268554 8.4308788 16.345703 9.2890625 L 16.003906 9.6074219 L 15.664062 9.2890625 C 14.734287 8.4200752 13.688589 8 12.464844 8 z M 28.855469 8.3046875 C 28.962861 8.4835525 29.079643 8.6562444 29.179688 8.8398438 A 15 15 0 0 0 28.855469 8.3046875 z M 2.7246094 9.0332031 A 15 15 0 0 0 2.4453125 9.6152344 C 2.5373265 9.4204834 2.6245652 9.223258 2.7246094 9.0332031 z M 2.09375 10.398438 A 15 15 0 0 0 1.8867188 10.964844 C 1.95449 10.775204 2.0186418 10.584474 2.09375 10.398438 z M 1.6074219 11.806641 A 15 15 0 0 0 1.4570312 12.384766 C 1.5050603 12.191344 1.5519584 11.997026 1.6074219 11.806641 z M 1.2617188 13.257812 A 15 15 0 0 0 1.1621094 13.914062 C 1.1928162 13.694333 1.2215835 13.474397 1.2617188 13.257812 z M 30.921875 14.480469 C 30.97223 14.98009 31 15.487205 31 16 A 15 15 0 0 0 30.921875 14.480469 z M 31 16 C 31 16.438308 30.970513 16.870014 30.933594 17.298828 A 15 15 0 0 0 31 16 z M 1.0664062 14.701172 A 15 15 0 0 0 1 16 C 1 15.561692 1.0294871 15.129986 1.0664062 14.701172 z M 1 16 A 15 15 0 0 0 1.078125 17.519531 C 1.0277697 17.01991 1 16.512795 1 16 z M 30.837891 18.085938 C 30.807184 18.305667 30.778417 18.525603 30.738281 18.742188 A 15 15 0 0 0 30.837891 18.085938 z M 30.542969 19.615234 C 30.49494 19.808656 30.448042 20.002974 30.392578 20.193359 A 15 15 0 0 0 30.542969 19.615234 z M 30.113281 21.035156 C 30.04551 21.224796 29.981358 21.415526 29.90625 21.601562 A 15 15 0 0 0 30.113281 21.035156 z M 29.554688 22.384766 C 29.462674 22.579517 29.375435 22.776742 29.275391 22.966797 A 15 15 0 0 0 29.554688 22.384766 z M 2.8203125 23.160156 A 15 15 0 0 0 3.1445312 23.695312 C 3.0371394 23.516447 2.9203572 23.343756 2.8203125 23.160156 z M 28.878906 23.65625 C 28.762775 23.851008 28.651918 24.049348 28.527344 24.238281 A 15 15 0 0 0 28.878906 23.65625 z M 3.5898438 24.421875 A 15 15 0 0 0 4.0878906 25.085938 C 3.9199154 24.866136 3.745709 24.65098 3.5898438 24.421875 z M 28.091797 24.845703 C 27.942159 25.049805 27.796241 25.257041 27.636719 25.453125 A 15 15 0 0 0 28.091797 24.845703 z M 4.4550781 25.570312 A 15 15 0 0 0 5.1230469 26.302734 C 4.8956518 26.062759 4.6663844 25.824877 4.4550781 25.570312 z M 27.251953 25.890625 C 27.052986 26.116756 26.856576 26.344834 26.644531 26.558594 A 15 15 0 0 0 27.251953 25.890625 z M 5.4414062 26.644531 A 15 15 0 0 0 6.109375 27.251953 C 5.8832438 27.052986 5.655166 26.856576 5.4414062 26.644531 z M 26.302734 26.876953 C 26.062759 27.104348 25.824877 27.333616 25.570312 27.544922 A 15 15 0 0 0 26.302734 26.876953 z M 6.546875 27.636719 A 15 15 0 0 0 7.1542969 28.091797 C 6.9501954 27.942159 6.7429588 27.796241 6.546875 27.636719 z M 25.085938 27.912109 C 24.866136 28.080085 24.65098 28.254291 24.421875 28.410156 A 15 15 0 0 0 25.085938 27.912109 z M 7.7617188 28.527344 A 15 15 0 0 0 8.34375 28.878906 C 8.1489922 28.762775 7.9506522 28.651918 7.7617188 28.527344 z M 23.695312 28.855469 C 23.516447 28.962861 23.343756 29.079643 23.160156 29.179688 A 15 15 0 0 0 23.695312 28.855469 z M 9.0332031 29.275391 A 15 15 0 0 0 9.6152344 29.554688 C 9.4204834 29.462674 9.223258 29.375435 9.0332031 29.275391 z M 10.398438 29.90625 A 15 15 0 0 0 10.964844 30.113281 C 10.775204 30.04551 10.584474 29.981358 10.398438 29.90625 z M 11.806641 30.392578 A 15 15 0 0 0 12.384766 30.542969 C 12.191344 30.49494 11.997026 30.448042 11.806641 30.392578 z M 13.257812 30.738281 A 15 15 0 0 0 13.914062 30.837891 C 13.694333 30.807184 13.474397 30.778417 13.257812 30.738281 z M 17.519531 30.921875 C 17.01991 30.97223 16.512795 31 16 31 A 15 15 0 0 0 17.519531 30.921875 z M 16 31 C 15.561692 31 15.129986 30.970513 14.701172 30.933594 A 15 15 0 0 0 16 31 z "
       id="path848" />
  </g>
</svg>
