<?xml version="1.0" encoding="UTF-8" standalone="no"?>
<svg
   xmlns:dc="http://purl.org/dc/elements/1.1/"
   xmlns:cc="http://creativecommons.org/ns#"
   xmlns:rdf="http://www.w3.org/1999/02/22-rdf-syntax-ns#"
   xmlns:svg="http://www.w3.org/2000/svg"
   xmlns="http://www.w3.org/2000/svg"
   xmlns:sodipodi="http://sodipodi.sourceforge.net/DTD/sodipodi-0.dtd"
   xmlns:inkscape="http://www.inkscape.org/namespaces/inkscape"
   width="32"
   height="32"
   version="1.1"
   id="svg19"
   sodipodi:docname="bookmarks.svg"
   inkscape:version="0.92.4 5da689c313, 2019-01-14">
  <metadata
     id="metadata23">
    <rdf:RDF>
      <cc:Work
         rdf:about="">
        <dc:format>image/svg+xml</dc:format>
        <dc:type
           rdf:resource="http://purl.org/dc/dcmitype/StillImage" />
        <dc:title />
      </cc:Work>
    </rdf:RDF>
  </metadata>
  <sodipodi:namedview
     pagecolor="#3a3a3a"
     bordercolor="#666666"
     borderopacity="1"
     objecttolerance="10"
     gridtolerance="10"
     guidetolerance="10"
     inkscape:pageopacity="0"
     inkscape:pageshadow="2"
     inkscape:window-width="1920"
     inkscape:window-height="973"
     id="namedview21"
     showgrid="true"
     inkscape:zoom="11.313709"
     inkscape:cx="12.160789"
     inkscape:cy="15.129139"
     inkscape:window-x="0"
     inkscape:window-y="36"
     inkscape:window-maximized="1"
     inkscape:current-layer="svg19"
     inkscape:snap-bbox="true"
     inkscape:snap-bbox-edge-midpoints="true"
     inkscape:bbox-nodes="true">
    <inkscape:grid
       type="xygrid"
       id="grid819" />
  </sodipodi:namedview>
  <defs
     id="defs6">
    <style
       id="current-color-scheme"
       type="text/css">.ColorScheme-Text { color:#dedede; } .ColorScheme-Highlight { color:#5294e2; } .ColorScheme-ButtonBackground { color:#dedede; }</style>
    <filter
       id="a"
       x="-.036"
       y="-.036"
       width="1.072"
       height="1.072"
       color-interpolation-filters="sRGB">
      <feGaussianBlur
         stdDeviation="0.43506"
         id="feGaussianBlur3" />
    </filter>
    <style
       id="style835"
       type="text/css" />
  </defs>
  <g
     id="bookmarks">
    <rect
       x="0"
       y="0"
       width="32"
       height="32"
       rx="0"
       ry="0"
       style="opacity:0;stroke-width:2;paint-order:fill markers stroke"
       id="rect8" />
    <path
       inkscape:connector-curvature="0"
       id="path848"
       d="M 16,1 A 15,15 0 0 0 1,16 15,15 0 0 0 16,31 15,15 0 0 0 31,16 15,15 0 0 0 16,1 Z m -3.535156,6 c 1.323248,0 2.512489,0.4966313 3.541015,1.3378906 C 17.033271,7.5024978 18.231148,7 19.544922,7 c 0.0048,0 0.0088,0.00195 0.01367,0.00195 V 7 h 0.002 v 0.00391 c 3.478803,0.00953 6.289062,2.9785001 6.289062,6.5957028 0,2.120289 -0.977111,3.613133 -1.630859,4.613282 h -0.002 c -1.638979,2.501169 -4.84808,4.956793 -6.628906,6.228515 h -0.002 v 0.002 c -0.02501,0.0176 -0.0495,0.03473 -0.07422,0.05273 l -0.0039,0.002 -0.02539,0.01758 -0.0039,0.0039 C 17.040854,24.829408 16.525377,24.999194 15.998047,25 c 0,0 -0.002,0 -0.002,0 -0.551763,0.0019 -1.090289,-0.17762 -1.527344,-0.511719 l -0.06836,-0.04687 v -0.002 C 12.618646,23.169537 9.409673,20.721165 7.7851562,18.21875 7.1277002,17.214052 6.1503906,15.721547 6.1503906,13.599609 6.1503906,9.9777951 8.9732316,7 12.464844,7 Z m 0,1 c -2.922732,0 -5.3144534,2.494907 -5.3144534,5.599609 0,1.818414 0.8151864,3.065553 1.4726563,4.070313 v 0.002 c 1.4532221,2.239219 4.6144591,4.71085 6.3574221,5.953125 l 0.08984,0.0625 0.0059,0.0059 C 15.336484,23.892351 15.659471,24.0014 15.992188,24 h 0.002 c 0.316985,0 0.627234,-0.09928 0.90625,-0.296875 l 0.01563,-0.01172 h 0.002 c 0.02924,-0.02132 0.05831,-0.04359 0.08789,-0.06445 1.742318,-1.244222 4.905431,-3.718296 6.375,-5.960937 0.653953,-1.000462 1.46875,-2.249918 1.46875,-4.066407 C 24.849609,10.492528 22.461792,8 19.544922,8 18.338567,8 17.268554,8.4308788 16.345703,9.2890625 L 16.003906,9.6074219 15.664062,9.2890625 C 14.734286,8.4200752 13.688589,8 12.464844,8 Z"
       style="opacity:0.8;fill:#ffffff;fill-opacity:1;fill-rule:evenodd;stroke:none;stroke-width:1.76470578;stroke-linecap:round;stroke-linejoin:miter;stroke-miterlimit:4;stroke-dasharray:none;stroke-dashoffset:3;stroke-opacity:1;paint-order:stroke fill markers" />
  </g>
</svg>
