<?xml version="1.0" encoding="UTF-8" standalone="no"?>
<svg
   xmlns:dc="http://purl.org/dc/elements/1.1/"
   xmlns:cc="http://creativecommons.org/ns#"
   xmlns:rdf="http://www.w3.org/1999/02/22-rdf-syntax-ns#"
   xmlns:svg="http://www.w3.org/2000/svg"
   xmlns="http://www.w3.org/2000/svg"
   xmlns:sodipodi="http://sodipodi.sourceforge.net/DTD/sodipodi-0.dtd"
   xmlns:inkscape="http://www.inkscape.org/namespaces/inkscape"
   width="32"
   height="32"
   version="1.1"
   id="svg19"
   sodipodi:docname="bookmarks.svg"
   inkscape:version="0.92.4 5da689c313, 2019-01-14">
  <metadata
     id="metadata23">
    <rdf:RDF>
      <cc:Work
         rdf:about="">
        <dc:format>image/svg+xml</dc:format>
        <dc:type
           rdf:resource="http://purl.org/dc/dcmitype/StillImage" />
        <dc:title />
      </cc:Work>
    </rdf:RDF>
  </metadata>
  <sodipodi:namedview
     pagecolor="#c8c8c8"
     bordercolor="#666666"
     borderopacity="1"
     objecttolerance="10"
     gridtolerance="10"
     guidetolerance="10"
     inkscape:pageopacity="0"
     inkscape:pageshadow="2"
     inkscape:window-width="1920"
     inkscape:window-height="1027"
     id="namedview21"
     showgrid="true"
     inkscape:zoom="8.0000004"
     inkscape:cx="-6.5224705"
     inkscape:cy="8.7894753"
     inkscape:window-x="0"
     inkscape:window-y="28"
     inkscape:window-maximized="1"
     inkscape:current-layer="svg19"
     inkscape:snap-bbox="true"
     inkscape:snap-bbox-edge-midpoints="true"
     inkscape:bbox-nodes="true"
     inkscape:snap-nodes="false">
    <inkscape:grid
       type="xygrid"
       id="grid819" />
  </sodipodi:namedview>
  <defs
     id="defs6">
    <style
       id="current-color-scheme"
       type="text/css">.ColorScheme-Text { color:#dedede; } .ColorScheme-Highlight { color:#5294e2; } .ColorScheme-ButtonBackground { color:#dedede; }</style>
    <filter
       id="a"
       x="-.036"
       y="-.036"
       width="1.072"
       height="1.072"
       color-interpolation-filters="sRGB">
      <feGaussianBlur
         stdDeviation="0.43506"
         id="feGaussianBlur3" />
    </filter>
    <style
       id="style835"
       type="text/css" />
    <style
       id="style822"
       type="text/css" />
    <style
       type="text/css"
       id="current-color-scheme-3">.ColorScheme-Text { color:#dedede; } .ColorScheme-Highlight { color:#5294e2; } .ColorScheme-ButtonBackground { color:#dedede; }</style>
    <filter
       color-interpolation-filters="sRGB"
       height="1.072"
       width="1.072"
       y="-.036"
       x="-.036"
       id="a-5">
      <feGaussianBlur
         id="feGaussianBlur3-6"
         stdDeviation="0.43506" />
    </filter>
    <style
       type="text/css"
       id="style834" />
    <style
       type="text/css"
       id="style825" />
    <style
       type="text/css"
       id="style823" />
    <style
       id="current-color-scheme-5"
       type="text/css">.ColorScheme-Text { color:#dedede; } .ColorScheme-Highlight { color:#5294e2; } .ColorScheme-ButtonBackground { color:#dedede; }</style>
    <filter
       id="a-6"
       x="-.036"
       y="-.036"
       width="1.072"
       height="1.072"
       color-interpolation-filters="sRGB">
      <feGaussianBlur
         stdDeviation="0.43506"
         id="feGaussianBlur3-2" />
    </filter>
    <style
       id="style834-9"
       type="text/css" />
    <style
       id="style825-1"
       type="text/css" />
    <style
       id="style926"
       type="text/css" />
    <style
       id="style940"
       type="text/css" />
  </defs>
  <g
     id="bookmarks">
    <rect
       x="0"
       y="0"
       width="32"
       height="32"
       rx="0"
       ry="0"
       style="opacity:0;stroke-width:2;paint-order:fill markers stroke"
       id="rect8" />
    <g
       transform="translate(-1.999002,0.50099797)"
       id="g845">
      <path
         id="path944"
         p-id="2574"
         d="m 20.543608,20.315538 c -0.14079,0 -0.29894,-0.04039 -0.44573,-0.113758 l -2.09469,-1.047696 -2.10765,1.045994 c -0.13348,0.07107 -0.28627,0.108453 -0.44207,0.108453 a 0.94039382,0.94039382 0 0 1 -0.56253,-0.184225 c -0.29498,-0.22121 -0.44613,-0.604574 -0.37636,-0.953556 l 0.43106,-2.236125 -1.65222,-1.540114 a 1.0171668,1.0171668 0 0 1 -0.2569,-0.983935 l 0.003,-0.01136 c 0.12011,-0.359992 0.41809,-0.612232 0.77939,-0.660628 l 2.29553,-0.417397 1.03033,-2.092589 c 0.16551,-0.331315 0.50213,-0.544217 0.85811,-0.544217 0.37136,0 0.71668,0.22091 0.86147,0.550223 l 1.02703,2.085983 2.29588,0.401381 a 0.93523892,0.93523892 0 0 1 0.76503,0.668335 0.96751961,0.96751961 0 0 1 -0.23923,0.987289 l -0.006,0.0057 -1.64757,1.551475 0.41639,2.240129 c 0.0671,0.358341 -0.0754,0.720034 -0.37205,0.945549 a 0.88263893,0.88263893 0 0 1 -0.56088,0.195135 z m -2.53967,-1.949102 2.2003,1.100295 c 0.0647,0.03263 0.13913,0.05305 0.19003,0.05305 0.0785,0 0.15134,-0.02412 0.20474,-0.06872 l 0.0101,-0.0082 c 0.12502,-0.09389 0.18593,-0.242831 0.1586,-0.38892 l -0.44292,-2.385217 1.75141,-1.649268 c 0.10746,-0.109003 0.14424,-0.265102 0.0965,-0.408688 l -0.005,-0.01506 a 0.36064278,0.36064278 0 0 0 -0.29933,-0.260999 l -0.01,-0.0016 -2.42331,-0.423703 -1.09053,-2.215305 c -0.0531,-0.123768 -0.19664,-0.213603 -0.34178,-0.213603 -0.14258,0 -0.27891,0.08924 -0.34803,0.227116 l -1.08363,2.200841 -2.43611,0.442521 c -0.14794,0.01857 -0.2629,0.116861 -0.31595,0.270107 -0.0377,0.140083 0.007,0.308743 0.1099,0.413993 l 1.75332,1.633903 -0.46014,2.386519 c -0.0276,0.137931 0.0377,0.296832 0.1586,0.387618 0.0606,0.04554 0.13913,0.07067 0.22146,0.07067 0.0635,0 0.12437,-0.01481 0.17682,-0.04304 l 0.008,-0.0044 z"
         inkscape:connector-curvature="0"
         style="fill:#eaeaea;fill-opacity:1;stroke:#eaeaea;stroke-width:0.80000001;stroke-miterlimit:4;stroke-dasharray:none;stroke-opacity:1" />
      <path
         style="opacity:1;fill:none;fill-opacity:1;stroke:#eaeaea;stroke-width:1.99995649;stroke-linecap:round;stroke-miterlimit:4;stroke-dasharray:none;stroke-opacity:1"
         id="path835"
         sodipodi:type="arc"
         sodipodi:cx="18"
         sodipodi:cy="15.5"
         sodipodi:rx="11.500022"
         sodipodi:ry="11.500022"
         sodipodi:start="4.4505896"
         sodipodi:end="3.403392"
         sodipodi:open="true"
         d="M 15.023575,4.3918318 A 11.500022,11.500022 0 0 1 27.959311,9.749989 11.500022,11.500022 0 0 1 26.131744,23.631743 11.500022,11.500022 0 0 1 12.249989,25.459311 11.500022,11.500022 0 0 1 6.8918317,12.523576" />
    </g>
  </g>
</svg>
