<?xml version="1.0" encoding="UTF-8" standalone="no"?>
<svg
   xmlns:dc="http://purl.org/dc/elements/1.1/"
   xmlns:cc="http://creativecommons.org/ns#"
   xmlns:rdf="http://www.w3.org/1999/02/22-rdf-syntax-ns#"
   xmlns:svg="http://www.w3.org/2000/svg"
   xmlns="http://www.w3.org/2000/svg"
   xmlns:sodipodi="http://sodipodi.sourceforge.net/DTD/sodipodi-0.dtd"
   xmlns:inkscape="http://www.inkscape.org/namespaces/inkscape"
   width="32"
   height="32"
   version="1.1"
   id="svg60"
   sodipodi:docname="computer.svg"
   inkscape:version="0.92.4 5da689c313, 2019-01-14">
  <metadata
     id="metadata64">
    <rdf:RDF>
      <cc:Work
         rdf:about="">
        <dc:format>image/svg+xml</dc:format>
        <dc:type
           rdf:resource="http://purl.org/dc/dcmitype/StillImage" />
        <dc:title />
      </cc:Work>
    </rdf:RDF>
  </metadata>
  <sodipodi:namedview
     pagecolor="#c8c8c8"
     bordercolor="#666666"
     borderopacity="1"
     objecttolerance="10"
     gridtolerance="10"
     guidetolerance="10"
     inkscape:pageopacity="0"
     inkscape:pageshadow="2"
     inkscape:window-width="1920"
     inkscape:window-height="1027"
     id="namedview62"
     showgrid="true"
     inkscape:snap-bbox="true"
     inkscape:bbox-nodes="true"
     inkscape:snap-bbox-edge-midpoints="true"
     inkscape:snap-nodes="true"
     inkscape:object-paths="true"
     inkscape:zoom="7.5853276"
     inkscape:cx="-1.4409762"
     inkscape:cy="3.205098"
     inkscape:window-x="0"
     inkscape:window-y="28"
     inkscape:window-maximized="1"
     inkscape:current-layer="svg60"
     inkscape:snap-intersection-paths="true"
     inkscape:snap-bbox-midpoints="true"
     inkscape:snap-smooth-nodes="true"
     inkscape:snap-midpoints="true">
    <inkscape:grid
       type="xygrid"
       id="grid879" />
  </sodipodi:namedview>
  <defs
     id="defs6">
    <style
       id="current-color-scheme"
       type="text/css">.ColorScheme-Text { color:#dedede; } .ColorScheme-Highlight { color:#5294e2; } .ColorScheme-ButtonBackground { color:#dedede; }</style>
    <filter
       id="a"
       x="-0.035999998"
       y="-0.035999998"
       width="1.072"
       height="1.072"
       style="color-interpolation-filters:sRGB">
      <feGaussianBlur
         stdDeviation="0.435"
         id="feGaussianBlur3" />
    </filter>
    <style
       id="style883"
       type="text/css" />
    <style
       id="style1016"
       type="text/css" />
  </defs>
  <g
     id="computer">
    <rect
       x="0"
       y="0.0169487"
       width="32"
       height="32"
       rx="0"
       ry="0"
       style="opacity:0;stroke-width:2;paint-order:fill markers stroke"
       id="rect38" />
    <g
       transform="translate(3.4999571,30.516906)"
       id="g860">
      <rect
         style="opacity:1;fill:none;fill-opacity:1;stroke:#eaeaea;stroke-width:1.99991441;stroke-linecap:round;stroke-miterlimit:4;stroke-dasharray:none;stroke-opacity:1"
         id="rect854"
         width="23.000086"
         height="23.000086"
         x="1"
         y="-26"
         ry="3" />
      <path
         style="opacity:1;fill:none;fill-opacity:1;stroke:#eaeaea;stroke-width:2;stroke-linecap:round;stroke-miterlimit:4;stroke-dasharray:none;stroke-opacity:1"
         id="path856"
         sodipodi:type="arc"
         sodipodi:cx="12.500806"
         sodipodi:cy="-14.499194"
         sodipodi:rx="4.5"
         sodipodi:ry="4.5"
         sodipodi:start="4.4505896"
         sodipodi:end="3.1415927"
         sodipodi:open="true"
         d="m 11.33612,-18.84586 a 4.5,4.5 0 0 1 4.906299,1.8466 4.5,4.5 0 0 1 -0.171523,5.239492 4.5,4.5 0 0 1 -5.016568,1.521759 4.5,4.5 0 0 1 -3.0535221,-4.261185" />
    </g>
  </g>
  <g
     id="22-22-computer">
    <rect
       style="color:#bebebe;opacity:0;stroke-width:2"
       y="36.899982"
       id="rect23"
       transform="scale(-1,1)"
       x="-25"
       width="22"
       height="22" />
    <g
       transform="matrix(0.79999999,0,0,0.79999999,3.9999658,59.499948)"
       id="g866">
      <rect
         ry="3"
         y="-26"
         x="1"
         height="23.000086"
         width="23.000086"
         id="rect862"
         style="opacity:1;fill:none;fill-opacity:1;stroke:#eaeaea;stroke-width:1.99991441;stroke-linecap:round;stroke-miterlimit:4;stroke-dasharray:none;stroke-opacity:1" />
      <path
         d="m 11.33612,-18.84586 a 4.5,4.5 0 0 1 4.906299,1.8466 4.5,4.5 0 0 1 -0.171523,5.239492 4.5,4.5 0 0 1 -5.016568,1.521759 4.5,4.5 0 0 1 -3.0535221,-4.261185"
         sodipodi:open="true"
         sodipodi:end="3.1415927"
         sodipodi:start="4.4505896"
         sodipodi:ry="4.5"
         sodipodi:rx="4.5"
         sodipodi:cy="-14.499194"
         sodipodi:cx="12.500806"
         sodipodi:type="arc"
         id="path864"
         style="opacity:1;fill:none;fill-opacity:1;stroke:#eaeaea;stroke-width:2;stroke-linecap:round;stroke-miterlimit:4;stroke-dasharray:none;stroke-opacity:1" />
    </g>
  </g>
  <g
     id="16-16-computer">
    <rect
       style="color:#bebebe;fill:none"
       id="rect16"
       transform="scale(-1,1)"
       x="-20.924988"
       y="65.25"
       width="16"
       height="16" />
    <rect
       style="color:#bebebe;opacity:0;stroke-width:3"
       id="rect18"
       transform="scale(-1,1)"
       x="-20.924988"
       y="65.25"
       width="16"
       height="16" />
    <g
       id="g872"
       transform="matrix(0.59999999,0,0,0.59999999,5.4249616,81.949974)">
      <rect
         style="opacity:1;fill:none;fill-opacity:1;stroke:#eaeaea;stroke-width:1.99991441;stroke-linecap:round;stroke-miterlimit:4;stroke-dasharray:none;stroke-opacity:1"
         id="rect868"
         width="23.000086"
         height="23.000086"
         x="1"
         y="-26"
         ry="3" />
      <path
         style="opacity:1;fill:none;fill-opacity:1;stroke:#eaeaea;stroke-width:2;stroke-linecap:round;stroke-miterlimit:4;stroke-dasharray:none;stroke-opacity:1"
         id="path870"
         sodipodi:type="arc"
         sodipodi:cx="12.500806"
         sodipodi:cy="-14.499194"
         sodipodi:rx="4.5"
         sodipodi:ry="4.5"
         sodipodi:start="4.4505896"
         sodipodi:end="3.1415927"
         sodipodi:open="true"
         d="m 11.33612,-18.84586 a 4.5,4.5 0 0 1 4.906299,1.8466 4.5,4.5 0 0 1 -0.171523,5.239492 4.5,4.5 0 0 1 -5.016568,1.521759 4.5,4.5 0 0 1 -3.0535221,-4.261185" />
    </g>
  </g>
  <g
     id="computer-laptop"
     transform="translate(44)">
    <rect
       id="rect910"
       style="opacity:0;stroke-width:2;paint-order:fill markers stroke"
       ry="0"
       rx="0"
       height="32"
       width="32"
       y="0.0169487"
       x="0" />
    <g
       id="g916"
       transform="translate(3.4999571,30.516906)">
      <rect
         ry="3"
         y="-26"
         x="1"
         height="23.000086"
         width="23.000086"
         id="rect912"
         style="opacity:1;fill:none;fill-opacity:1;stroke:#eaeaea;stroke-width:1.99991441;stroke-linecap:round;stroke-miterlimit:4;stroke-dasharray:none;stroke-opacity:1" />
      <path
         d="m 11.33612,-18.84586 a 4.5,4.5 0 0 1 4.906299,1.8466 4.5,4.5 0 0 1 -0.171523,5.239492 4.5,4.5 0 0 1 -5.016568,1.521759 4.5,4.5 0 0 1 -3.0535221,-4.261185"
         sodipodi:open="true"
         sodipodi:end="3.1415927"
         sodipodi:start="4.4505896"
         sodipodi:ry="4.5"
         sodipodi:rx="4.5"
         sodipodi:cy="-14.499194"
         sodipodi:cx="12.500806"
         sodipodi:type="arc"
         id="path914"
         style="opacity:1;fill:none;fill-opacity:1;stroke:#eaeaea;stroke-width:2;stroke-linecap:round;stroke-miterlimit:4;stroke-dasharray:none;stroke-opacity:1" />
    </g>
  </g>
  <g
     id="22-22-computer-laptop"
     transform="translate(44)">
    <rect
       height="22"
       width="22"
       x="-25"
       transform="scale(-1,1)"
       id="rect920"
       y="36.899982"
       style="color:#bebebe;opacity:0;stroke-width:2" />
    <g
       id="g927"
       transform="matrix(0.79999999,0,0,0.79999999,3.9999658,59.499948)">
      <rect
         style="opacity:1;fill:none;fill-opacity:1;stroke:#eaeaea;stroke-width:1.99991441;stroke-linecap:round;stroke-miterlimit:4;stroke-dasharray:none;stroke-opacity:1"
         id="rect923"
         width="23.000086"
         height="23.000086"
         x="1"
         y="-26"
         ry="3" />
      <path
         style="opacity:1;fill:none;fill-opacity:1;stroke:#eaeaea;stroke-width:2;stroke-linecap:round;stroke-miterlimit:4;stroke-dasharray:none;stroke-opacity:1"
         id="path925"
         sodipodi:type="arc"
         sodipodi:cx="12.500806"
         sodipodi:cy="-14.499194"
         sodipodi:rx="4.5"
         sodipodi:ry="4.5"
         sodipodi:start="4.4505896"
         sodipodi:end="3.1415927"
         sodipodi:open="true"
         d="m 11.33612,-18.84586 a 4.5,4.5 0 0 1 4.906299,1.8466 4.5,4.5 0 0 1 -0.171523,5.239492 4.5,4.5 0 0 1 -5.016568,1.521759 4.5,4.5 0 0 1 -3.0535221,-4.261185" />
    </g>
  </g>
  <g
     id="16-16-computer-laptop"
     transform="translate(44)">
    <rect
       height="16"
       width="16"
       y="65.25"
       x="-20.924988"
       transform="scale(-1,1)"
       id="rect931"
       style="color:#bebebe;fill:none" />
    <rect
       height="16"
       width="16"
       y="65.25"
       x="-20.924988"
       transform="scale(-1,1)"
       id="rect933"
       style="color:#bebebe;opacity:0;stroke-width:3" />
    <g
       transform="matrix(0.59999999,0,0,0.59999999,5.4249616,81.949974)"
       id="g939">
      <rect
         ry="3"
         y="-26"
         x="1"
         height="23.000086"
         width="23.000086"
         id="rect935"
         style="opacity:1;fill:none;fill-opacity:1;stroke:#eaeaea;stroke-width:1.99991441;stroke-linecap:round;stroke-miterlimit:4;stroke-dasharray:none;stroke-opacity:1" />
      <path
         d="m 11.33612,-18.84586 a 4.5,4.5 0 0 1 4.906299,1.8466 4.5,4.5 0 0 1 -0.171523,5.239492 4.5,4.5 0 0 1 -5.016568,1.521759 4.5,4.5 0 0 1 -3.0535221,-4.261185"
         sodipodi:open="true"
         sodipodi:end="3.1415927"
         sodipodi:start="4.4505896"
         sodipodi:ry="4.5"
         sodipodi:rx="4.5"
         sodipodi:cy="-14.499194"
         sodipodi:cx="12.500806"
         sodipodi:type="arc"
         id="path937"
         style="opacity:1;fill:none;fill-opacity:1;stroke:#eaeaea;stroke-width:2;stroke-linecap:round;stroke-miterlimit:4;stroke-dasharray:none;stroke-opacity:1" />
    </g>
  </g>
</svg>
