<?xml version="1.0" encoding="UTF-8" standalone="no"?>
<svg
   width="22"
   height="22"
   version="1.1"
   viewBox="0 0 22 22"
   id="svg33"
   sodipodi:docname="compass.svg"
   inkscape:version="1.1.1 (3bf5ae0d25, 2021-09-20, custom)"
   xmlns:inkscape="http://www.inkscape.org/namespaces/inkscape"
   xmlns:sodipodi="http://sodipodi.sourceforge.net/DTD/sodipodi-0.dtd"
   xmlns:xlink="http://www.w3.org/1999/xlink"
   xmlns="http://www.w3.org/2000/svg"
   xmlns:svg="http://www.w3.org/2000/svg">
  <sodipodi:namedview
     id="namedview35"
     pagecolor="#c8c8c8"
     bordercolor="#999999"
     borderopacity="1"
     inkscape:pageshadow="0"
     inkscape:pageopacity="0"
     inkscape:pagecheckerboard="0"
     showgrid="true"
     inkscape:snap-bbox="false"
     inkscape:bbox-nodes="true"
     inkscape:snap-bbox-edge-midpoints="true"
     inkscape:snap-nodes="true"
     inkscape:zoom="16"
     inkscape:cx="-21.78125"
     inkscape:cy="14"
     inkscape:window-width="1920"
     inkscape:window-height="1005"
     inkscape:window-x="0"
     inkscape:window-y="0"
     inkscape:window-maximized="1"
     inkscape:current-layer="svg33">
    <inkscape:grid
       type="xygrid"
       id="grid881" />
  </sodipodi:namedview>
  <defs
     id="defs16">
    <linearGradient
       id="linearGradient860">
      <stop
         stop-color="#4deb47"
         offset="0"
         id="stop2" />
      <stop
         stop-color="#ffa000"
         offset="1"
         id="stop4" />
    </linearGradient>
    <linearGradient
       id="linearGradient11">
      <stop
         stop-color="#5df240"
         offset="0"
         id="stop7" />
      <stop
         stop-color="#fff400"
         offset="1"
         id="stop9" />
    </linearGradient>
    <style
       id="current-color-scheme"
       type="text/css">.ColorScheme-Text { color:#565656; } .ColorScheme-Highlight { color:#5294e2; }</style>
    <linearGradient
       id="linearGradient848"
       x2="22"
       y1="11"
       y2="11"
       gradientTransform="matrix(.63636 0 0 .63636 26 1.0273)"
       gradientUnits="userSpaceOnUse"
       xlink:href="#linearGradient860" />
    <linearGradient
       id="linearGradient877"
       x1="3"
       x2="19"
       y1="11"
       y2="11"
       gradientUnits="userSpaceOnUse"
       xlink:href="#linearGradient860" />
  </defs>
  <rect
     x="-8"
     width="32"
     height="32"
     fill="none"
     stroke-linecap="round"
     stroke-linejoin="round"
     stroke-miterlimit="2"
     stroke-width="4.2666"
     id="rect23"
     y="-36.055" />
  <g
     id="compass">
    <path
       class="ColorScheme-Text"
       d="m -9,-1 -7,2.291 c -2.4434,0 -4.668,2.291 -4.668,4.709 l -2.332,7 7,-2.291 c 2.4434,0 4.668,-2.291 4.668,-4.709 z m -7,4.709 c 1.22176,0 2.332,1.01818 2.332,2.291 -3.8e-5,1.27272 -1.11036,2.291 -2.332,2.291 -1.2217,0 -2.332,-1.01818 -2.332,-2.291 -6e-5,-1.27272 1.11028,-2.291 2.332,-2.291 z"
       fill="url(#linearGradient848)"
       id="path25"
       style="fill:#dedede;fill-opacity:1;stroke-width:2"
       sodipodi:nodetypes="cccccccscscs" />
    <rect
       x="-32"
       y="-10"
       width="32"
       height="32"
       rx="0"
       ry="0"
       style="opacity:0;stroke-width:2;paint-order:fill markers stroke"
       id="rect8" />
    <path
       style="fill:#dedede;fill-opacity:1;stroke:none;stroke-width:0.0595238;stroke-miterlimit:4;stroke-dasharray:none;stroke-opacity:1"
       d="M -16,-6.5 A 12.5,12.5 0 0 0 -28.5,6 12.5,12.5 0 0 0 -16,18.5 12.5,12.5 0 0 0 -3.5,6 12.5,12.5 0 0 0 -16,-6.5 Z m 0,2 A 10.5,10.5 0 0 1 -5.5,6 10.5,10.5 0 0 1 -16,16.5 10.5,10.5 0 0 1 -26.5,6 10.5,10.5 0 0 1 -16,-4.5 Z"
       id="path955"
       inkscape:connector-curvature="0" />
  </g>
  <g
     id="22-22-compass">
    <path
       id="circle28"
       style="fill:#dedede;fill-opacity:1;stroke-width:1.81818;stroke-linecap:round;stroke-linejoin:round;stroke-miterlimit:2"
       d="M 11 1 A 10 10 0 0 0 1 11 A 10 10 0 0 0 11 21 A 10 10 0 0 0 21 11 A 10 10 0 0 0 11 1 z M 11 2.4804688 A 8.5202379 8.5202379 0 0 1 19.519531 11 A 8.5202379 8.5202379 0 0 1 11 19.519531 A 8.5202379 8.5202379 0 0 1 2.4804688 11 A 8.5202379 8.5202379 0 0 1 11 2.4804688 z " />
    <path
       id="path30"
       style="fill:#dedede;stroke-width:2;stroke-linecap:round;stroke-linejoin:round;stroke-miterlimit:2;fill-opacity:1"
       d="M 15.238281 6.7617188 L 11.96875 8.1601562 C 10.885833 7.7905013 9.6879 8.0696582 8.8789062 8.8789062 C 8.0707099 9.6873718 7.7916294 10.884676 8.1601562 11.966797 L 6.7617188 15.232422 L 10.03125 13.839844 C 11.114167 14.209499 12.3121 13.930344 13.121094 13.121094 C 13.92929 12.312628 14.208371 11.115324 13.839844 10.033203 L 15.238281 6.7617188 z M 11 10 C 11.255919 10 11.51177 10.097711 11.707031 10.292969 C 12.097546 10.683492 12.097546 11.316508 11.707031 11.707031 C 11.316508 12.097546 10.683492 12.097546 10.292969 11.707031 C 9.9024534 11.316508 9.9024535 10.683492 10.292969 10.292969 C 10.48823 10.097711 10.744081 10 11 10 z " />
    <rect
       style="color:#bebebe;opacity:0;stroke-width:2"
       y="0"
       id="rect23-3"
       transform="scale(-1,1)"
       x="-22"
       width="22"
       height="22" />
  </g>
</svg>
