<?xml version="1.0" encoding="UTF-8" standalone="no"?>
<svg
   xmlns:dc="http://purl.org/dc/elements/1.1/"
   xmlns:cc="http://creativecommons.org/ns#"
   xmlns:rdf="http://www.w3.org/1999/02/22-rdf-syntax-ns#"
   xmlns:svg="http://www.w3.org/2000/svg"
   xmlns="http://www.w3.org/2000/svg"
   xmlns:sodipodi="http://sodipodi.sourceforge.net/DTD/sodipodi-0.dtd"
   xmlns:inkscape="http://www.inkscape.org/namespaces/inkscape"
   width="22"
   height="22"
   version="1.1"
   id="svg60"
   sodipodi:docname="computer.svg"
   inkscape:version="0.92.4 5da689c313, 2019-01-14">
  <metadata
     id="metadata64">
    <rdf:RDF>
      <cc:Work
         rdf:about="">
        <dc:format>image/svg+xml</dc:format>
        <dc:type
           rdf:resource="http://purl.org/dc/dcmitype/StillImage" />
        <dc:title />
      </cc:Work>
    </rdf:RDF>
  </metadata>
  <sodipodi:namedview
     pagecolor="#c8c8c8"
     bordercolor="#666666"
     borderopacity="1"
     objecttolerance="10"
     gridtolerance="10"
     guidetolerance="10"
     inkscape:pageopacity="0"
     inkscape:pageshadow="2"
     inkscape:window-width="1920"
     inkscape:window-height="1023"
     id="namedview62"
     showgrid="true"
     inkscape:snap-bbox="true"
     inkscape:bbox-nodes="true"
     inkscape:snap-bbox-edge-midpoints="true"
     inkscape:snap-nodes="true"
     inkscape:object-paths="true"
     inkscape:zoom="5.3636364"
     inkscape:cx="5.2361633"
     inkscape:cy="20.098767"
     inkscape:window-x="0"
     inkscape:window-y="32"
     inkscape:window-maximized="1"
     inkscape:current-layer="svg60"
     inkscape:snap-intersection-paths="true"
     inkscape:snap-bbox-midpoints="true"
     inkscape:snap-smooth-nodes="true"
     inkscape:snap-midpoints="true">
    <inkscape:grid
       type="xygrid"
       id="grid879" />
  </sodipodi:namedview>
  <defs
     id="defs6">
    <style
       id="current-color-scheme"
       type="text/css">.ColorScheme-Text { color:#dedede; } .ColorScheme-Highlight { color:#5294e2; } .ColorScheme-ButtonBackground { color:#dedede; }</style>
    <filter
       id="a"
       x="-.036"
       y="-.036"
       width="1.072"
       height="1.072"
       color-interpolation-filters="sRGB">
      <feGaussianBlur
         stdDeviation="0.435"
         id="feGaussianBlur3" />
    </filter>
    <style
       id="style883"
       type="text/css" />
  </defs>
  <g
     id="computer">
    <rect
       x="-5"
       y="-37.983051"
       width="32"
       height="32"
       rx="0"
       ry="0"
       style="opacity:0;stroke-width:2;paint-order:fill markers stroke"
       id="rect38" />
    <path
       inkscape:connector-curvature="0"
       id="path881"
       d="m 11,-36.983051 c 0.438308,0 0.870014,0.02949 1.298828,0.06641 A 15,15 0 0 0 11,-36.983051 Z m 0,0 a 15,15 0 0 0 -1.5195312,0.07813 c 0.499621,-0.05035 1.0067362,-0.07813 1.5195312,-0.07813 z m 2.085938,0.162109 c 0.219729,0.03071 0.439665,0.05947 0.65625,0.09961 a 15,15 0 0 0 -0.65625,-0.09961 z m 1.529296,0.294922 c 0.193422,0.04803 0.38774,0.09493 0.578125,0.150391 a 15,15 0 0 0 -0.578125,-0.150391 z m 1.419922,0.429688 c 0.18964,0.06777 0.38037,0.131923 0.566406,0.207031 a 15,15 0 0 0 -0.566406,-0.207031 z M 11,-35.983051 c -7.737895,0 -14,6.262105 -14,14 0,7.737895 6.262105,13.9999997 14,13.9999997 7.737895,0 14,-6.2621047 14,-13.9999997 0,-7.737895 -6.262105,-14 -14,-14 z m 6.384766,0.445312 c 0.194751,0.09201 0.391976,0.179253 0.582031,0.279297 a 15,15 0 0 0 -0.582031,-0.279297 z m -13.5449222,0.375 a 15,15 0 0 0 -0.5351563,0.324219 c 0.178865,-0.107392 0.3515569,-0.224174 0.5351563,-0.324219 z m 14.8164062,0.300782 c 0.194758,0.116131 0.393098,0.226988 0.582031,0.351562 a 15,15 0 0 0 -0.582031,-0.351562 z m -16.078125,0.46875 a 15,15 0 0 0 -0.6640625,0.498047 c 0.2198016,-0.167976 0.4349572,-0.342182 0.6640625,-0.498047 z m 17.267578,0.318359 c 0.204102,0.149638 0.411338,0.295556 0.607422,0.455078 a 15,15 0 0 0 -0.607422,-0.455078 z m -18.4160155,0.546875 a 15,15 0 0 0 -0.73242188,0.667969 c 0.23997534,-0.227395 0.47785728,-0.456663 0.73242188,-0.667969 z m 19.4609375,0.292969 c 0.226131,0.198967 0.454209,0.395377 0.667969,0.607422 a 15,15 0 0 0 -0.667969,-0.607422 z m -20.53515625,0.693359 a 15,15 0 0 0 -0.60742187,0.667969 c 0.19896729,-0.226131 0.39537675,-0.454209 0.60742187,-0.667969 z m 21.52148425,0.25586 c 0.227395,0.239975 0.456663,0.477857 0.667969,0.732422 a 15,15 0 0 0 -0.667969,-0.732422 z m -22.51367175,0.849609 a 15,15 0 0 0 -0.45507815,0.607422 c 0.14963753,-0.204102 0.29555551,-0.411338 0.45507815,-0.607422 z m 23.54882775,0.367187 c 0.167976,0.219802 0.342182,0.434958 0.498047,0.664063 a 15,15 0 0 0 -0.498047,-0.664063 z m -24.4394528,0.847657 a 15,15 0 0 0 -0.3515624,0.582031 c 0.1161308,-0.194758 0.2269884,-0.393098 0.3515624,-0.582031 z M 3,-30.000629 h 16 c 1.108,0 2,0.892 2,2 v 10 c 0,1.108 -0.892,2 -2,2 h -7 v 2 h 2.5 c 0.277,0 0.5,0.223 0.5,0.5 0,0.277 -0.223,0.5 -0.5,0.5 h -7 c -0.277,0 -0.5,-0.223 -0.5,-0.5 0,-0.277 0.223,-0.5 0.5,-0.5 H 10 v -2 H 3 c -1.108,0 -2,-0.892 -2,-2 v -10 c 0,-1.108 0.892,-2 2,-2 z m 20.855469,0.322266 c 0.107392,0.178865 0.224174,0.351556 0.324219,0.535156 a 15,15 0 0 0 -0.324219,-0.535156 z M 3,-29.000629 c -0.554,0 -1,0.446 -1,1 v 9 h 18 v -9 c 0,-0.554 -0.446,-1 -1,-1 z m -5.2753906,0.05078 a 15,15 0 0 0 -0.2792969,0.582031 c 0.092014,-0.194751 0.1792527,-0.391976 0.2792969,-0.582031 z m -0.6308594,1.365235 a 15,15 0 0 0 -0.2070312,0.566406 c 0.067771,-0.18964 0.131923,-0.38037 0.2070312,-0.566406 z m -0.4863281,1.408203 a 15,15 0 0 0 -0.1503907,0.578125 c 0.048029,-0.193422 0.094927,-0.38774 0.1503907,-0.578125 z m -0.3457031,1.451171 a 15,15 0 0 0 -0.099609,0.65625 c 0.030707,-0.219729 0.059474,-0.439665 0.099609,-0.65625 z m 29.6601562,1.222657 C 25.97223,-23.002961 26,-22.495846 26,-21.983051 a 15,15 0 0 0 -0.07813,-1.519531 z M 26,-21.983051 c 0,0.438308 -0.02949,0.870014 -0.06641,1.298828 A 15,15 0 0 0 26,-21.983051 Z M -3.9335938,-23.281879 A 15,15 0 0 0 -4,-21.983051 c 0,-0.438308 0.029487,-0.870014 0.066406,-1.298828 z M -4,-21.983051 a 15,15 0 0 0 0.078125,1.519531 C -3.9722303,-20.963141 -4,-21.470256 -4,-21.983051 Z m 29.837891,2.085938 c -0.03071,0.219729 -0.05947,0.439665 -0.09961,0.65625 a 15,15 0 0 0 0.09961,-0.65625 z m -0.294922,1.529296 c -0.04803,0.193422 -0.09493,0.38774 -0.150391,0.578125 a 15,15 0 0 0 0.150391,-0.578125 z M 2,-18.000629 c 0,0.554 0.446,1 1,1 h 16 c 0.554,0 1,-0.446 1,-1 z m 23.113281,1.052734 c -0.06777,0.18964 -0.131923,0.38037 -0.207031,0.566406 a 15,15 0 0 0 0.207031,-0.566406 z m -0.558593,1.34961 c -0.09201,0.194751 -0.179253,0.391976 -0.279297,0.582031 a 15,15 0 0 0 0.279297,-0.582031 z m -26.7343755,0.77539 a 15,15 0 0 0 0.3242187,0.535156 c -0.1073918,-0.178865 -0.224174,-0.351556 -0.3242187,-0.535156 z m 26.0585935,0.496094 c -0.116131,0.194758 -0.226988,0.393098 -0.351562,0.582031 a 15,15 0 0 0 0.351562,-0.582031 z m -25.2890622,0.765625 a 15,15 0 0 0 0.49804682,0.664063 C -1.0800846,-13.116915 -1.254291,-13.332071 -1.4101562,-13.561176 Z m 24.5019532,0.423828 c -0.149638,0.204102 -0.295556,0.411338 -0.455078,0.607422 a 15,15 0 0 0 0.455078,-0.607422 z m -23.63671888,0.724609 a 15,15 0 0 0 0.66796876,0.732422 c -0.22739511,-0.239975 -0.4566625,-0.477857 -0.66796876,-0.732422 z m 22.79687488,0.320313 c -0.198967,0.226131 -0.395377,0.454209 -0.607422,0.667969 a 15,15 0 0 0 0.607422,-0.667969 z M 0.44140625,-11.33852 A 15,15 0 0 0 1.109375,-10.731098 C 0.8832438,-10.930065 0.65516602,-11.126475 0.44140625,-11.33852 Z m 20.86132775,0.232422 c -0.239975,0.227395 -0.477857,0.456663 -0.732422,0.667969 a 15,15 0 0 0 0.732422,-0.667969 z m -19.755859,0.759765 a 15,15 0 0 0 0.6074219,0.4550786 C 1.9501954,-10.040892 1.7429588,-10.18681 1.546875,-10.346333 Z m 18.539063,0.275391 c -0.219802,0.1679753 -0.434958,0.3421817 -0.664063,0.4980469 a 15,15 0 0 0 0.664063,-0.4980469 z M 2.7617188,-9.4557075 A 15,15 0 0 0 3.34375,-9.1041451 C 3.1489922,-9.2202759 2.9506522,-9.3311335 2.7617188,-9.4557075 Z m 15.9335932,0.328125 c -0.178865,0.1073918 -0.351556,0.224174 -0.535156,0.3242187 a 15,15 0 0 0 0.535156,-0.3242187 z M 4.0332031,-8.7076607 a 15,15 0 0 0 0.5820313,0.2792969 C 4.4204834,-8.5203778 4.223258,-8.6076165 4.0332031,-8.7076607 Z m 1.3652344,0.6308594 a 15,15 0 0 0 0.5664063,0.2070312 C 5.7752037,-7.9375413 5.5844742,-8.0016931 5.3984375,-8.0768013 Z m 1.4082031,0.4863281 a 15,15 0 0 0 0.578125,0.1503907 c -0.193422,-0.048029 -0.3877392,-0.094927 -0.578125,-0.1503907 z m 1.4511719,0.3457031 a 15,15 0 0 0 0.65625,0.099609 c -0.219729,-0.030707 -0.4396657,-0.059474 -0.65625,-0.099609 z m 4.2617185,0.1835938 C 12.01991,-7.010821 11.512795,-6.9830513 11,-6.9830513 a 15,15 0 0 0 1.519531,-0.078125 z M 11,-6.9830513 c -0.438308,0 -0.870014,-0.029487 -1.2988281,-0.066406 A 15,15 0 0 0 11,-6.9830513 Z"
       style="opacity:0.8;fill:#ffffff;fill-opacity:1;stroke:none;stroke-width:2.5;stroke-linecap:round;stroke-linejoin:round;stroke-miterlimit:4;stroke-dasharray:none;stroke-opacity:1;paint-order:stroke fill markers" />
  </g>
  <g
     id="computer-laptop">
    <path
       inkscape:connector-curvature="0"
       id="path930"
       d="m 59,-34.982075 c -7.737895,0 -14,6.260151 -14,13.998046 0,7.737896 6.262105,14.0000009 14,14.0000009 7.737895,0 14,-6.2621049 14,-14.0000009 0,-7.737894 -6.262105,-13.998046 -14,-13.998046 z m -5.837891,0.177734 c -0.89677,0.379302 -1.749267,0.844088 -2.546875,1.382812 0.797581,-0.539038 1.650322,-1.003187 2.546875,-1.382812 z m 11.675782,0 c 0.896553,0.379625 1.749294,0.843774 2.546875,1.382812 -0.797608,-0.538724 -1.650105,-1.00351 -2.546875,-1.382812 z m -14.22461,1.382812 c -1.59601,1.078244 -2.972538,2.456725 -4.050781,4.052735 1.078437,-1.595694 2.455206,-2.974135 4.050781,-4.052735 z m -4.050781,4.052735 c -0.539122,0.798005 -1.003292,1.649587 -1.382812,2.546875 0.379624,-0.896553 0.843773,-1.749294 1.382812,-2.546875 z m 20.824219,-4.052735 c 1.595575,1.0786 2.972344,2.457041 4.050781,4.052735 -1.078243,-1.59601 -2.454771,-2.974491 -4.050781,-4.052735 z m 4.050781,4.052735 c 0.539039,0.797581 1.003188,1.650322 1.382812,2.546875 -0.37952,-0.897288 -0.84369,-1.74887 -1.382812,-2.546875 z M 51,-28.999653 h 16 c 1.108,0 2,0.891999 2,2 v 10 c 0,1.108 -0.892,2 -2,2 H 51 c -1.108,0 -2,-0.892001 -2,-2 v -10 c 0,-1.108001 0.892,-2 2,-2 z m 0,1 c -0.554,0 -1,0.446 -1,1 v 10 c 0,0.553999 0.446,1 1,1 h 16 c 0.554,0 1,-0.446001 1,-1 v -10 c 0,-0.554 -0.446,-1 -1,-1 z m -5.820312,1.179687 c -0.379178,0.896783 -0.675312,1.838599 -0.875,2.814453 0.199963,-0.976059 0.495248,-1.917304 0.875,-2.814453 z m 27.640624,0 c 0.379752,0.897149 0.675037,1.838394 0.875,2.814453 -0.199688,-0.975854 -0.495822,-1.91767 -0.875,-2.814453 z m -28.515624,8.859375 c 0.399511,1.952365 1.180052,3.765652 2.257812,5.361328 -1.078386,-1.595846 -1.85777,-3.409812 -2.257812,-5.361328 z m 29.390624,0 c -0.400042,1.951516 -1.179426,3.765482 -2.257812,5.361328 1.07776,-1.595676 1.858301,-3.408963 2.257812,-5.361328 z M 49.5,-13.999653 h 19 c 0.277,0 0.5,0.223 0.5,0.5 0,0.276999 -0.223,0.5 -0.5,0.5 h -19 c -0.277,0 -0.5,-0.223001 -0.5,-0.5 0,-0.277 0.223,-0.500001 0.5,-0.5 z m -2.9375,1.402343 c 1.617365,2.394016 3.907747,4.2969855 6.599609,5.4355475 -2.690257,-1.139403 -4.98189,-3.0421065 -6.599609,-5.4355475 z m 24.875,0 c -1.617719,2.393441 -3.909352,4.2961445 -6.599609,5.4355475 2.691862,-1.138562 4.982244,-3.0415315 6.599609,-5.4355475 z"
       style="opacity:0.8;fill:#ffffff;fill-opacity:1;stroke:none;stroke-width:2.5;stroke-linecap:round;stroke-linejoin:round;stroke-miterlimit:4;stroke-dasharray:none;stroke-opacity:1;paint-order:stroke fill markers" />
    <rect
       id="rect928"
       style="opacity:0;stroke-width:2;paint-order:fill markers stroke"
       ry="0"
       rx="0"
       height="32"
       width="32"
       y="-36.983051"
       x="43" />
  </g>
  <g
     id="22-22-computer">
    <rect
       style="color:#bebebe;opacity:0;stroke-width:2"
       y="0"
       id="rect23"
       transform="scale(-1,1)"
       x="-22"
       width="22"
       height="22" />
    <g
       style="fill:#eaeaea"
       id="g30">
      <path
         id="rect878"
         d="M 3,3 C 1.892,3 1,3.892 1,5 v 11 c 0,1.108 0.892,2 2,2 h 16 c 1.108,0 2,-0.892 2,-2 V 5 C 21,3.892 20.108,3 19,3 Z m 0,1 h 16 c 0.554,0 1,0.446 1,1 v 11 c 0,0.554 -0.446,1 -1,1 H 3 C 2.446,17 2,16.554 2,16 V 5 C 2,4.446 2.446,4 3,4 Z"
         inkscape:connector-curvature="0" />
      <rect
         id="rect880"
         x="5"
         y="19"
         width="12"
         height="1"
         rx="0"
         ry="0.5" />
      <rect
         style="opacity:0.35"
         id="rect882"
         x="2"
         y="4"
         width="18"
         height="13"
         rx="1"
         ry="0" />
    </g>
  </g>
  <g
     id="22-22-computer-laptop"
     transform="translate(51)">
    <rect
       style="color:#bebebe;opacity:0;stroke-width:2"
       y="0"
       id="rect893"
       transform="scale(-1,1)"
       x="-22"
       width="22"
       height="22" />
    <g
       style="fill:#eaeaea"
       id="g37">
      <path
         id="path895"
         d="M 3,3 C 1.892,3 1,3.892 1,5 v 10 c 0,1.108 0.892,2 2,2 h 16 c 1.108,0 2,-0.892 2,-2 V 5 C 21,3.892 20.108,3 19,3 Z m 0,1 h 16 c 0.554,0 1,0.446 1,1 v 10 c 0,0.554 -0.446,1 -1,1 H 3 C 2.446,16 2,15.554 2,15 V 5 C 2,4.446 2.446,4 3,4 Z"
         inkscape:connector-curvature="0"
         sodipodi:nodetypes="ssssssssssssssssss" />
      <rect
         id="rect897"
         x="1"
         y="18"
         width="20"
         height="1"
         rx="0"
         ry="0.5"
         style="stroke-width:0.9534626" />
      <path
         style="opacity:0.35"
         d="m 3,4 h 16 c 0.554,0 1,0.446 1,1 v 10 c 0,0.554 -0.446,1 -1,1 H 3 C 2.446,16 2,15.554 2,15 V 5 C 2,4.446 2.446,4 3,4 Z"
         id="rect899" />
    </g>
  </g>
  <g
     id="16-16-computer">
    <rect
       style="color:#bebebe;fill:none"
       id="rect16"
       transform="scale(-1,1)"
       x="-18"
       y="28"
       width="16"
       height="16" />
    <rect
       style="color:#bebebe;opacity:0;stroke-width:3"
       id="rect18"
       transform="scale(-1,1)"
       x="-18"
       y="28"
       width="16"
       height="16" />
    <g
       style="fill:#eaeaea"
       id="g45">
      <path
         inkscape:connector-curvature="0"
         id="rect906"
         d="m 3,29 c -0.554,0 -1,0.446 -1,1 v 10 c 0,0.554 0.446,1 1,1 h 14 c 0.554,0 1,-0.446 1,-1 V 30 c 0,-0.554 -0.446,-1 -1,-1 z m 0,1 H 17 V 40 H 3 Z" />
      <rect
         id="rect908"
         x="6"
         y="42"
         width="8"
         height="1"
         rx="0"
         ry="0.5" />
      <rect
         style="opacity:0.35"
         id="rect910"
         x="3"
         y="30"
         width="14"
         height="10"
         rx="0"
         ry="0" />
    </g>
  </g>
  <g
     id="16-16-computer-laptop"
     transform="translate(49)">
    <rect
       style="color:#bebebe;fill:none"
       id="rect922"
       transform="scale(-1,1)"
       x="-18"
       y="28"
       width="16"
       height="16" />
    <rect
       style="color:#bebebe;opacity:0;stroke-width:3"
       id="rect924"
       transform="scale(-1,1)"
       x="-18"
       y="28"
       width="16"
       height="16" />
    <g
       style="fill:#eaeaea"
       id="g53">
      <path
         id="path926"
         d="m 3,29 c -0.554,0 -1,0.446 -1,1 v 9 c 0,0.554 0.446,1 1,1 h 14 c 0.554,0 1,-0.446 1,-1 v -9 c 0,-0.554 -0.446,-1 -1,-1 z m 0,1 h 14 v 9 H 3 Z"
         inkscape:connector-curvature="0"
         sodipodi:nodetypes="sssssssssccccc" />
      <rect
         id="rect928-0"
         x="2"
         y="41"
         width="16"
         height="1"
         rx="0"
         ry="0.5" />
      <rect
         style="opacity:0.35"
         id="rect930"
         x="3"
         y="30"
         width="14"
         height="9"
         rx="0"
         ry="0" />
    </g>
  </g>
</svg>
