<?xml version="1.0" encoding="UTF-8" standalone="no"?>
<svg
   xmlns:dc="http://purl.org/dc/elements/1.1/"
   xmlns:cc="http://creativecommons.org/ns#"
   xmlns:rdf="http://www.w3.org/1999/02/22-rdf-syntax-ns#"
   xmlns:svg="http://www.w3.org/2000/svg"
   xmlns="http://www.w3.org/2000/svg"
   xmlns:sodipodi="http://sodipodi.sourceforge.net/DTD/sodipodi-0.dtd"
   xmlns:inkscape="http://www.inkscape.org/namespaces/inkscape"
   id="svg"
   inkscape:version="1.0.2 (e86c870879, 2021-01-15)"
   sodipodi:docname="device.svg"
   version="1.1"
   viewBox="0 0 22 22">
  <metadata
     id="metadata28">
    <rdf:RDF>
      <cc:Work
         rdf:about="">
        <dc:format>image/svg+xml</dc:format>
        <dc:type
           rdf:resource="http://purl.org/dc/dcmitype/StillImage" />
      </cc:Work>
    </rdf:RDF>
  </metadata>
  <sodipodi:namedview
     id="namedview33"
     bordercolor="#666666"
     borderopacity="1"
     gridtolerance="10"
     guidetolerance="10"
     inkscape:bbox-nodes="true"
     inkscape:current-layer="svg"
     inkscape:cx="9.6755389"
     inkscape:cy="11.254193"
     inkscape:object-nodes="true"
     inkscape:object-paths="true"
     inkscape:pageopacity="0"
     inkscape:pageshadow="2"
     inkscape:snap-bbox="true"
     inkscape:snap-bbox-edge-midpoints="true"
     inkscape:snap-intersection-paths="true"
     inkscape:snap-midpoints="true"
     inkscape:snap-nodes="true"
     inkscape:snap-smooth-nodes="true"
     inkscape:window-height="935"
     inkscape:window-maximized="1"
     inkscape:window-width="1920"
     inkscape:window-x="0"
     inkscape:window-y="38"
     inkscape:zoom="42.90909"
     objecttolerance="10"
     pagecolor="#363636"
     showgrid="true"
     showguides="false"
     inkscape:document-rotation="0">
    <inkscape:grid
       id="grid842"
       type="xygrid" />
  </sodipodi:namedview>
  <defs
     id="defs3">
    <style
       id="current-color-scheme"
       type="text/css">.ColorScheme-Text { color:#dedede; } .ColorScheme-Highlight { color:#5294e2; } .ColorScheme-ButtonBackground { color:#dedede; }</style>
  </defs>
  <g
     id="22-22-device-notifier">
    <rect
       id="rect12"
       class="ColorScheme-Text"
       width="22"
       height="22"
       color="#dedede"
       fill-opacity="0" />
    <rect
       id="rect14"
       width="22"
       height="22"
       opacity="0" />
    <rect
       id="rect16"
       class="ColorScheme-Text"
       width="22"
       height="22"
       color="#dedede"
       fill-opacity="0" />
    <path
       id="rect849"
       d="M 10.166667,3 C 7.8583332,3 5.9999999,4.9114286 5.9999999,7.2857143 V 9.8571429 15 H 16 V 9.8571429 7.2857143 C 16,4.9114286 14.141667,3 11.833333,3 Z M 11,3.8571429 A 0.83333336,0.85714286 0 0 1 11.833333,4.7142857 0.83333336,0.85714286 0 0 1 11,5.5714286 0.83333336,0.85714286 0 0 1 10.166667,4.7142857 0.83333336,0.85714286 0 0 1 11,3.8571429 Z"
       fill="#dedede"
       style="stroke-width:0.845154" />
    <path
       id="path20"
       d="m 7,17 v 3 h 8 v -3 z m 1,1 h 2 v 1 H 8 Z m 4,0 h 2 v 1 h -2 z"
       color="#dedede"
       enable-background="new"
       fill="currentColor"
       filter="url(#filter7554)"
       stroke-width="1.4142" />
  </g>
  <g
     id="16-16-device-notifier">
    <rect
       id="rect5"
       x="-5e-5"
       y="25.993"
       width="16"
       height="16"
       opacity="0" />
    <rect
       id="rect7"
       class="ColorScheme-Text"
       x="-5e-5"
       y="25.993"
       width="16"
       height="16"
       color="#dedede"
       fill-opacity="0" />
    <path
       id="path9"
       class="ColorScheme-Text"
       d="m5 38.994v1.999h6v-1.999z"
       color="#dedede"
       enable-background="new"
       fill="currentColor"
       filter="url(#filter7554)"
       inkscape:connector-curvature="0"
       sodipodi:nodetypes="ccccc" />
    <path
       id="rect853"
       d="m6 27c-1.662 0-3 1.338-3 3v2 3 3h3 4 3v-3-3-2c0-1.662-1.338-3-3-3h-4z"
       fill="#dedede" />
  </g>
  <g
     id="device-notifier">
    <rect
       id="rect23"
       y="-34"
       width="32"
       height="32"
       opacity="0" />
    <rect
       id="rect25"
       class="ColorScheme-Text"
       y="-34"
       width="32"
       height="32"
       color="#dedede"
       fill-opacity="0" />
    <path
       id="path29"
       d="m 11,-10 v 4 h 10 v -4 z m 2,1 h 2 v 2 h -2 z m 4,0 h 2 v 2 h -2 z"
       color="#dedede"
       enable-background="new"
       fill="currentColor"
       filter="url(#filter7554)" />
    <g
       fill="#dedede"
       id="g24">
      <path
         id="rect871"
         d="m 15,-31 c -3.878,0 -7,3.122 -7,7 v 4 c 0,3.878 3.122,7 7,7 h 2 c 3.878,0 7,-3.122 7,-7 v -4 c 0,-3.878 -3.122,-7 -7,-7 z m -1,2 h 4 c 0.554,0 1,0.446 1,1 0,0.554 -0.446,1 -1,1 h -4 c -0.554,0 -1,-0.446 -1,-1 0,-0.554 0.446,-1 1,-1 z"
         sodipodi:nodetypes="ssssssssssssssss" />
      <rect
         id="rect873"
         x="8"
         y="-24"
         width="16"
         height="12"
         ry="2"
         style="stroke-width:0.905822" />
    </g>
  </g>
</svg>
