<?xml version="1.0" encoding="UTF-8" standalone="no"?>
<svg
   xmlns:dc="http://purl.org/dc/elements/1.1/"
   xmlns:cc="http://creativecommons.org/ns#"
   xmlns:rdf="http://www.w3.org/1999/02/22-rdf-syntax-ns#"
   xmlns:svg="http://www.w3.org/2000/svg"
   xmlns="http://www.w3.org/2000/svg"
   xmlns:sodipodi="http://sodipodi.sourceforge.net/DTD/sodipodi-0.dtd"
   xmlns:inkscape="http://www.inkscape.org/namespaces/inkscape"
   id="svg"
   inkscape:version="1.0.2 (e86c870879, 2021-01-15)"
   sodipodi:docname="kdeconnect.svg"
   version="1.1"
   viewBox="0 0 22 22">
  <metadata
     id="metadata24">
    <rdf:RDF>
      <cc:Work
         rdf:about="">
        <dc:format>image/svg+xml</dc:format>
        <dc:type
           rdf:resource="http://purl.org/dc/dcmitype/StillImage" />
        <dc:title />
      </cc:Work>
    </rdf:RDF>
  </metadata>
  <sodipodi:namedview
     id="namedview21"
     bordercolor="#666666"
     borderopacity="1"
     gridtolerance="10"
     guidetolerance="10"
     inkscape:current-layer="svg"
     inkscape:cx="10.152091"
     inkscape:cy="9.7951123"
     inkscape:pagecheckerboard="false"
     inkscape:pageopacity="0"
     inkscape:pageshadow="2"
     inkscape:window-height="935"
     inkscape:window-maximized="1"
     inkscape:window-width="1920"
     inkscape:window-x="0"
     inkscape:window-y="38"
     inkscape:zoom="30.34131"
     objecttolerance="10"
     pagecolor="#c8c8c8"
     showgrid="true"
     inkscape:document-rotation="0"
     inkscape:snap-smooth-nodes="true">
    <inkscape:grid
       id="grid830"
       type="xygrid" />
  </sodipodi:namedview>
  <defs
     id="defs3">
    <style
       id="current-color-scheme"
       type="text/css">.ColorScheme-Text { color:#dedede; } .ColorScheme-Highlight { color:#5294e2; }</style>
  </defs>
  <g
     id="16-16-kdeconnect">
    <path
       id="rect872"
       d="m5 27c-1.108 0-2 0.892-2 2v10c0 1.108 0.892 2 2 2h6c1.108 0 2-0.892 2-2v-10c0-1.108-0.892-2-2-2h-6zm0 1h6c0.554 0 1 0.446 1 1v10c0 0.554-0.446 1-1 1h-6c-0.554 0-1-0.446-1-1v-10c0-0.554 0.446-1 1-1z"
       fill="#dedede"
       style="fill:#fafafa;fill-opacity:1" />
    <rect
       id="rect874"
       x="4"
       y="28"
       width="8"
       height="12"
       rx="1"
       ry="1"
       fill="#dedede"
       opacity=".25" />
    <rect
       id="rect10"
       y="26"
       width="16"
       height="16"
       rx="0"
       ry="0"
       opacity="0" />
    <rect
       id="rect882"
       x="6"
       y="27"
       width="4"
       height="2"
       rx="1"
       ry="1"
       fill="#dedede"
       style="fill:#fafafa;fill-opacity:1" />
    <path
       id="rect884"
       d="m6.6375 38h2.7251c0.35315 0 0.63746 0.223 0.63746 0.5s-0.28431 0.5-0.63746 0.5h-2.7251c-0.35315 0-0.63746-0.223-0.63746-0.5s0.28431-0.5 0.63746-0.5z"
       fill="#dedede"
       opacity=".5"
       style="fill:#fafafa;fill-opacity:1" />
  </g>
  <g
     id="kdeconnect">
    <path
       id="rect894"
       d="m10-31c-1.108 0-2 0.892-2 2v22c0 1.108 0.892 2 2 2h12c1.108 0 2-0.892 2-2v-22c0-1.108-0.892-2-2-2h-12zm0 1h12c0.554 0 1 0.446 1 1v22c0 0.554-0.446 1-1 1h-12c-0.554 0-1-0.446-1-1v-22c0-0.554 0.446-1 1-1z"
       fill="#dedede"
       style="fill:#fafafa;fill-opacity:1" />
    <rect
       id="rect896"
       x="9"
       y="-30"
       width="14"
       height="24"
       rx="0"
       ry="1"
       fill="#dedede"
       opacity=".25" />
    <rect
       id="rect5"
       y="-34"
       width="32"
       height="32"
       rx="0"
       ry="0"
       opacity="0" />
    <rect
       id="rect903"
       x="13"
       y="-31"
       width="6"
       height="2"
       rx="1"
       ry="1"
       fill="#dedede"
       style="fill:#fafafa;fill-opacity:1" />
    <rect
       id="rect905"
       x="12"
       y="-8"
       width="8"
       height="1"
       rx=".537"
       ry="1"
       fill="#dedede"
       opacity=".5"
       style="fill:#fafafa;fill-opacity:1" />
  </g>
  <path
     id="path872"
     d="M 28,0 H 50 V 22 H 28 Z"
     opacity="0"
     inkscape:connector-curvature="0" />
  <g
     id="22-22-kdeconnect">
    <path
       id="path15-6"
       d="M 0,0 H 22 V 22 H 0 Z"
       opacity="0"
       inkscape:connector-curvature="0" />
    <g
       id="g896"
       transform="translate(-28)">
      <rect
         id="rect875"
         x="34"
         y="3"
         width="10"
         height="16"
         rx="1"
         ry="0.8888889"
         fill="#dedede"
         opacity="0.25"
         style="fill:#fafafa;fill-opacity:1;stroke-width:0.942809" />
      <path
         id="path877"
         d="m 35,3 c -1.108,0 -2,0.892 -2,2 v 13 c 0,1.108 0.892,2 2,2 h 8 c 1.108,0 2,-0.892 2,-2 V 5 C 45,3.892 44.108,3 43,3 h -2 -4 z m 0,1 h 1 c 0,0.554 0.446,1 1,1 h 4 c 0.554,0 1,-0.446 1,-1 h 1 c 0.554,0 1,0.446 1,1 v 13 c 0,0.554 -0.446,1 -1,1 h -8 c -0.554,0 -1,-0.446 -1,-1 V 5 c 0,-0.554 0.446,-1 1,-1 z"
         fill="#dedede"
         sodipodi:nodetypes="ssssssssccsscsscssssssss"
         style="fill:#fafafa;fill-opacity:1" />
      <path
         id="path879"
         d="m 36.5,17 h 5 c 0.277,0 0.5,0.223 0.5,0.5 0,0.277 -0.223,0.5 -0.5,0.5 h -5 C 36.223,18 36,17.777 36,17.5 36,17.223 36.223,17 36.5,17 Z"
         fill="#dedede"
         opacity="0.5"
         style="fill:#fafafa;fill-opacity:1" />
    </g>
  </g>
</svg>
