<?xml version="1.0" encoding="UTF-8" standalone="no"?>
<svg
   xmlns:dc="http://purl.org/dc/elements/1.1/"
   xmlns:cc="http://creativecommons.org/ns#"
   xmlns:rdf="http://www.w3.org/1999/02/22-rdf-syntax-ns#"
   xmlns:svg="http://www.w3.org/2000/svg"
   xmlns="http://www.w3.org/2000/svg"
   xmlns:sodipodi="http://sodipodi.sourceforge.net/DTD/sodipodi-0.dtd"
   xmlns:inkscape="http://www.inkscape.org/namespaces/inkscape"
   id="svg"
   width="100%"
   height="100%"
   version="1.1"
   viewBox="0 0 22 22"
   sodipodi:docname="klipper.svg"
   inkscape:version="1.0.2 (e86c870879, 2021-01-15)">
  <metadata
     id="metadata11">
    <rdf:RDF>
      <cc:Work
         rdf:about="">
        <dc:format>image/svg+xml</dc:format>
        <dc:type
           rdf:resource="http://purl.org/dc/dcmitype/StillImage" />
        <dc:title />
      </cc:Work>
    </rdf:RDF>
  </metadata>
  <sodipodi:namedview
     pagecolor="#969696"
     bordercolor="#666666"
     borderopacity="1"
     objecttolerance="10"
     gridtolerance="10"
     guidetolerance="10"
     inkscape:pageopacity="0"
     inkscape:pageshadow="2"
     inkscape:window-width="1920"
     inkscape:window-height="935"
     id="namedview9"
     showgrid="true"
     inkscape:zoom="15.170655"
     inkscape:cx="-15.795524"
     inkscape:cy="11.634009"
     inkscape:window-x="0"
     inkscape:window-y="38"
     inkscape:window-maximized="1"
     inkscape:current-layer="svg"
     inkscape:document-rotation="0"
     inkscape:snap-smooth-nodes="true"
     inkscape:snap-bbox="true"
     inkscape:bbox-nodes="true"
     inkscape:snap-bbox-edge-midpoints="true">
    <inkscape:grid
       type="xygrid"
       id="grid817" />
  </sodipodi:namedview>
  <defs
     id="defs81">
    <style
       id="current-color-scheme"
       type="text/css">
   .ColorScheme-Text { color:#dedede; } .ColorScheme-Highlight { color:#5294e2; } .ColorScheme-ButtonBackground { color:#dedede; }
  </style>
  </defs>
  <g
     id="klipper">
    <rect
       id="rect3009"
       class="ColorScheme-Text"
       width="22"
       height="22"
       x="0"
       y="0"
       style="color:#dedede;fill:currentColor;fill-opacity:0;stroke:none" />
    <g
       transform="translate(-32,0.49664)"
       id="g851">
      <path
         style="color:#000000;display:inline;overflow:visible;visibility:visible;fill:#eaeaea;fill-opacity:1;fill-rule:nonzero;stroke:none;stroke-width:4;marker:none;enable-background:accumulate"
         d="m 43,2.50336 c -1.10457,0 -2,0.89543 -2,2 h -3 c -1,0 -1,1 -1,1 v 12 c 0,1 1,1 1,1 h 10 c 0,0 1,0 1,-1 v -12 c 0,-1 -1,-1 -1,-1 H 45 C 45,4.36529 44.9954,4.22731 44.96875,4.09711 44.78226,3.18574 43.9665,2.50336 43,2.50336 Z m 0,1 c 0.41421,0 0.75444,0.26608 0.90625,0.625 C 43.95685,4.248 44,4.36529 44,4.50336 c 0,0.55228 -0.44771,1 -1,1 -0.55229,0 -1,-0.44772 -1,-1 0,-0.55228 0.44771,-1 1,-1 z m -4,3 h 1 v 1 h 6 v -1 h 1 v 10 h -8 z"
         id="path823"
         inkscape:connector-curvature="0"
         sodipodi:nodetypes="scscsccsscccsscssssccccccccc" />
      <g
         id="g841">
        <rect
           ry="0"
           y="9.5033598"
           x="40"
           height="2.0000002"
           width="6"
           id="rect835"
           style="opacity:1;fill:#eaeaea;fill-opacity:1;fill-rule:evenodd;stroke:none;stroke-width:1.87202;stroke-linecap:round;stroke-linejoin:miter;stroke-miterlimit:4;stroke-dasharray:none;stroke-dashoffset:3;stroke-opacity:1;paint-order:stroke fill markers" />
        <rect
           style="opacity:1;fill:#eaeaea;fill-opacity:1;fill-rule:evenodd;stroke:none;stroke-width:1.87204;stroke-linecap:round;stroke-linejoin:miter;stroke-miterlimit:4;stroke-dasharray:none;stroke-dashoffset:3;stroke-opacity:1;paint-order:stroke fill markers"
           id="rect837"
           width="6"
           height="2.0000002"
           x="40"
           y="12.50336"
           ry="0" />
      </g>
    </g>
  </g>
</svg>
