<?xml version="1.0" encoding="UTF-8" standalone="no"?>
<svg
   xmlns:dc="http://purl.org/dc/elements/1.1/"
   xmlns:cc="http://creativecommons.org/ns#"
   xmlns:rdf="http://www.w3.org/1999/02/22-rdf-syntax-ns#"
   xmlns:svg="http://www.w3.org/2000/svg"
   xmlns="http://www.w3.org/2000/svg"
   xmlns:sodipodi="http://sodipodi.sourceforge.net/DTD/sodipodi-0.dtd"
   xmlns:inkscape="http://www.inkscape.org/namespaces/inkscape"
   id="svg"
   width="22"
   height="22"
   version="1.1"
   sodipodi:docname="manjaro.svg"
   inkscape:version="1.0.2 (e86c870879, 2021-01-15)">
  <sodipodi:namedview
     pagecolor="#c8c8c8"
     bordercolor="#666666"
     borderopacity="1"
     objecttolerance="10"
     gridtolerance="10"
     guidetolerance="10"
     inkscape:pageopacity="0"
     inkscape:pageshadow="2"
     inkscape:window-width="1920"
     inkscape:window-height="942"
     id="namedview15"
     showgrid="true"
     inkscape:zoom="8.6931819"
     inkscape:cx="-7.060524"
     inkscape:cy="1.4958556"
     inkscape:window-x="0"
     inkscape:window-y="38"
     inkscape:window-maximized="1"
     inkscape:current-layer="svg"
     inkscape:document-rotation="0">
    <inkscape:grid
       type="xygrid"
       id="grid840" />
  </sodipodi:namedview>
  <metadata
     id="metadata23">
    <rdf:RDF>
      <cc:Work
         rdf:about="">
        <dc:format>image/svg+xml</dc:format>
        <dc:type
           rdf:resource="http://purl.org/dc/dcmitype/StillImage" />
        <dc:title></dc:title>
      </cc:Work>
    </rdf:RDF>
  </metadata>
  <defs
     id="defs5">
    <style
       id="current-color-scheme"
       type="text/css"> .ColorScheme-Text { color:#363636; } </style>
  </defs>
  <g
     id="22-22-manjaro-settings-manager"
     class="ColorScheme-Text"
     fill="currentColor">
    <rect
       width="22"
       height="22"
       fill-opacity="0"
       id="rect7" />
    <path
       d="m6 3c-1.662 0-3 1.338-3 3v10c0 1.662 1.338 3 3 3h1v-12h6v-4h-7zm9 0v16h1c1.662 0 3-1.338 3-3v-10c0-1.662-1.338-3-3-3h-1zm-6 6v10h4v-10h-4z"
       id="path9"
       style="fill:#fafafa;fill-opacity:1" />
  </g>
  <g
     id="manjaro-settings-manager"
     transform="translate(-4,-39)"
     class="ColorScheme-Text"
     fill="currentColor">
    <path
       d="M 6.5714286,4 C 5.1468571,4 4,5.1468571 4,6.5714286 V 25.428571 C 4,26.853143 5.1468571,28 6.5714286,28 H 11 V 11 h 8 V 4 Z M 21,4 v 24 h 4.428571 C 26.853143,28 28,26.853143 28,25.428571 V 6.5714286 C 28,5.1468571 26.853143,4 25.428571,4 Z m -8,9 v 15 h 6 V 13 Z"
       stroke-width="1.2"
       id="path12"
       sodipodi:nodetypes="ssssccccsccsssscccccc"
       style="fill:#fafafa;fill-opacity:1" />
    <rect
       y="4.4409e-16"
       width="32"
       height="32"
       ry=".64"
       fill-opacity="0"
       id="rect14" />
  </g>
  <g
     id="16-16-manjaro-settings-manager"
     transform="translate(-299 -510.36)"
     class="ColorScheme-Text"
     fill="currentColor">
    <rect
       x="303"
       y="537.36"
       width="16"
       height="16"
       fill="none"
       id="rect17" />
    <path
       transform="translate(299 510.36)"
       d="m8 29c-1.108 0-2 0.892-2 2v8c0 1.108 0.892 2 2 2h1v-9h5v-3h-6zm7 0v12h1c1.108 0 2-0.892 2-2v-8c0-1.108-0.892-2-2-2h-1zm-5 4v8h4v-8h-4z"
       id="path19"
       style="fill:#fafafa;fill-opacity:1" />
  </g>
</svg>
