<?xml version="1.0" encoding="UTF-8" standalone="no"?>
<svg
   xmlns:dc="http://purl.org/dc/elements/1.1/"
   xmlns:cc="http://creativecommons.org/ns#"
   xmlns:rdf="http://www.w3.org/1999/02/22-rdf-syntax-ns#"
   xmlns:svg="http://www.w3.org/2000/svg"
   xmlns="http://www.w3.org/2000/svg"
   xmlns:sodipodi="http://sodipodi.sourceforge.net/DTD/sodipodi-0.dtd"
   xmlns:inkscape="http://www.inkscape.org/namespaces/inkscape"
   id="svg15"
   viewBox="0 0 32 32"
   version="1.1"
   sodipodi:docname="nepomuk.svg"
   width="32"
   height="32"
   inkscape:version="1.0.2 (e86c870879, 2021-01-15)">
  <sodipodi:namedview
     pagecolor="#c8c8c8"
     bordercolor="#666666"
     borderopacity="1"
     objecttolerance="10"
     gridtolerance="10"
     guidetolerance="10"
     inkscape:pageopacity="0"
     inkscape:pageshadow="2"
     inkscape:window-width="1920"
     inkscape:window-height="935"
     id="namedview12"
     showgrid="true"
     inkscape:snap-bbox="true"
     inkscape:bbox-nodes="true"
     inkscape:snap-bbox-edge-midpoints="true"
     inkscape:snap-smooth-nodes="true"
     inkscape:zoom="7.5359251"
     inkscape:cx="-5.7356976"
     inkscape:cy="21.723907"
     inkscape:window-x="0"
     inkscape:window-y="38"
     inkscape:window-maximized="1"
     inkscape:current-layer="svg15"
     inkscape:document-rotation="0">
    <inkscape:grid
       type="xygrid"
       id="grid837" />
  </sodipodi:namedview>
  <metadata
     id="metadata19">
    <rdf:RDF>
      <cc:Work
         rdf:about="">
        <dc:format>image/svg+xml</dc:format>
        <dc:type
           rdf:resource="http://purl.org/dc/dcmitype/StillImage" />
        <dc:title />
      </cc:Work>
    </rdf:RDF>
  </metadata>
  <defs
     id="defs3">
    <style
       type="text/css"
       id="current-color-scheme">.ColorScheme-Text { color:#363636; }</style>
  </defs>
  <g
     id="22-22-nepomuk"
     transform="translate(-22)">
    <path
       id="path5"
       fill="none"
       d="M 0,10 V 32 H 22 V 10 Z" />
    <path
       style="color:#363636;font-style:normal;font-variant:normal;font-weight:normal;font-stretch:normal;font-size:medium;line-height:normal;font-family:sans-serif;font-variant-ligatures:normal;font-variant-position:normal;font-variant-caps:normal;font-variant-numeric:normal;font-variant-alternates:normal;font-variant-east-asian:normal;font-feature-settings:normal;font-variation-settings:normal;text-indent:0;text-align:start;text-decoration:none;text-decoration-line:none;text-decoration-style:solid;text-decoration-color:#000000;letter-spacing:normal;word-spacing:normal;text-transform:none;writing-mode:lr-tb;direction:ltr;text-orientation:mixed;dominant-baseline:auto;baseline-shift:baseline;text-anchor:start;white-space:normal;shape-padding:0;shape-margin:0;inline-size:0;clip-rule:nonzero;display:inline;overflow:visible;visibility:visible;isolation:auto;mix-blend-mode:normal;color-interpolation:sRGB;color-interpolation-filters:linearRGB;solid-color:#000000;solid-opacity:1;vector-effect:none;fill:#eaeaea;fill-opacity:1;fill-rule:nonzero;stroke-width:1;stroke-linecap:butt;stroke-linejoin:miter;stroke-miterlimit:4;stroke-dasharray:none;stroke-dashoffset:0;stroke-opacity:1;color-rendering:auto;image-rendering:auto;shape-rendering:auto;text-rendering:auto;enable-background:accumulate;stop-color:#000000;stop-opacity:1;stroke:none;opacity:1"
       d="m 9.4939,13.994 c -3.026,0 -5.5,2.474 -5.5,5.5 0,3.026 2.474,5.5 5.5,5.5 1.112436,-3.87e-4 2.198213,-0.340565 3.112,-0.975 l 3.681,3.682 c 0.942521,0.975864 2.389864,-0.471479 1.414,-1.414 l -3.681,-3.682 c 0.633886,-0.913623 0.973703,-1.999012 0.974,-3.111 0,-3.026 -2.474,-5.5 -5.5,-5.5 z m 0,1.25 c 2.34721,0 4.25,1.90279 4.25,4.25 0,2.34721 -1.90279,4.25 -4.25,4.25 -2.3472102,0 -4.25,-1.90279 -4.25,-4.25 0,-2.34721 1.9027898,-4.25 4.25,-4.25 z"
       id="path7" />
  </g>
  <g
     id="nepomuk"
     transform="translate(-22)">
    <path
       id="path10"
       fill="none"
       d="M 22,0 V 32 H 54 V 0 Z" />
    <path
       style="color:#363636;font-style:normal;font-variant:normal;font-weight:normal;font-stretch:normal;font-size:medium;line-height:normal;font-family:sans-serif;font-variant-ligatures:normal;font-variant-position:normal;font-variant-caps:normal;font-variant-numeric:normal;font-variant-alternates:normal;font-variant-east-asian:normal;font-feature-settings:normal;font-variation-settings:normal;text-indent:0;text-align:start;text-decoration:none;text-decoration-line:none;text-decoration-style:solid;text-decoration-color:#000000;letter-spacing:normal;word-spacing:normal;text-transform:none;writing-mode:lr-tb;direction:ltr;text-orientation:mixed;dominant-baseline:auto;baseline-shift:baseline;text-anchor:start;white-space:normal;shape-padding:0;shape-margin:0;inline-size:0;clip-rule:nonzero;display:inline;overflow:visible;visibility:visible;isolation:auto;mix-blend-mode:normal;color-interpolation:sRGB;color-interpolation-filters:linearRGB;solid-color:#000000;solid-opacity:1;vector-effect:none;fill:#eaeaea;fill-opacity:1;fill-rule:nonzero;stroke-width:1;stroke-linecap:butt;stroke-linejoin:miter;stroke-miterlimit:4;stroke-dasharray:none;stroke-dashoffset:0;stroke-opacity:1;color-rendering:auto;image-rendering:auto;shape-rendering:auto;text-rendering:auto;enable-background:accumulate;stop-color:#000000;stop-opacity:1;stroke:none;opacity:1"
       d="m 29.125,7.1247 c -3.514771,3.514728 -3.514771,9.213272 0,12.728 2.976867,2.969669 7.613275,3.482302 11.167,1.2347 0.04787,0.06034 0.09056,0.12371 0.14639,0.17954 l 5.6569,5.6569 c 0.78347,0.78347 2.045,0.78347 2.8284,0 0.7834,-0.78347 0.78347,-2.045 0,-2.8284 l -5.6569,-5.6569 c -0.05536,-0.05536 -0.11836,-0.09748 -0.17816,-0.14501 2.248321,-3.554484 1.735058,-8.192168 -1.2361,-11.169 -3.514728,-3.5147706 -9.213272,-3.5147706 -12.728,0 z m 1.4142,1.4142 c 2.733671,-2.7336734 7.165829,-2.7336734 9.8995,0 2.733673,2.733671 2.733673,7.165829 0,9.8995 -2.733671,2.733673 -7.165829,2.733673 -9.8995,0 -2.733673,-2.733671 -2.733673,-7.165829 0,-9.8995 z"
       id="path12" />
  </g>
</svg>
