<?xml version="1.0" encoding="UTF-8" standalone="no"?>
<svg
   xmlns:dc="http://purl.org/dc/elements/1.1/"
   xmlns:cc="http://creativecommons.org/ns#"
   xmlns:rdf="http://www.w3.org/1999/02/22-rdf-syntax-ns#"
   xmlns:svg="http://www.w3.org/2000/svg"
   xmlns="http://www.w3.org/2000/svg"
   xmlns:sodipodi="http://sodipodi.sourceforge.net/DTD/sodipodi-0.dtd"
   xmlns:inkscape="http://www.inkscape.org/namespaces/inkscape"
   inkscape:version="1.0 (4035a4fb49, 2020-05-01)"
   sodipodi:docname="notification.svg"
   viewBox="0 0 22 22"
   version="1.1"
   id="svg">
  <metadata
     id="metadata46">
    <rdf:RDF>
      <cc:Work
         rdf:about="">
        <dc:format>image/svg+xml</dc:format>
        <dc:type
           rdf:resource="http://purl.org/dc/dcmitype/StillImage" />
      </cc:Work>
    </rdf:RDF>
  </metadata>
  <sodipodi:namedview
     inkscape:current-layer="svg"
     inkscape:window-maximized="1"
     inkscape:window-y="32"
     inkscape:window-x="0"
     inkscape:cy="27.168871"
     inkscape:cx="28.626458"
     inkscape:zoom="6.8219734"
     showgrid="false"
     id="namedview44"
     inkscape:window-height="1023"
     inkscape:window-width="1920"
     inkscape:pageshadow="2"
     inkscape:pageopacity="0"
     guidetolerance="10"
     gridtolerance="10"
     objecttolerance="10"
     borderopacity="1"
     bordercolor="#666666"
     pagecolor="#ffffff" />
  <defs
     id="defs3">
    <style
       type="text/css"
       id="current-color-scheme">.ColorScheme-Text { color:#dedede; } .ColorScheme-Highlight { color:#5294e2; } .ColorScheme-ButtonBackground { color:#dedede; }</style>
  </defs>
  <g
     id="notification-active">
    <rect
       id="rect5"
       opacity="0"
       height="22"
       width="22"
       y="40" />
    <path
       style="fill:#3278e6;fill-opacity:1"
       id="path7"
       fill="currentColor"
       color="#5294e2"
       d="m11 43c-4.4183 0-8 3.5817-8 8s3.5817 8 8 8c4.4183 0 8-3.5817 8-8s-3.5817-8-8-8z"
       class="ColorScheme-Highlight" />
    <path
       id="path9"
       fill-opacity=".94118"
       fill="#fff"
       color="#dedede"
       d="m10 47v6h2v-6zm1 7c-0.45315 0-1 0.51843-1 0.98047 0 0.46204 0.54685 1.0195 1 1.0195s1-0.55749 1-1.0195c0-0.46204-0.54685-0.98047-1-0.98047z"
       class="ColorScheme-Text" />
  </g>
  <g
     id="g16"
     fill="currentColor">
    <path
       d="m-18 23 2-2 2 2z"
       class="ColorScheme-Text"
       id="expander-bottom" />
    <path
       d="m-18 17 2 2 2-2z"
       class="ColorScheme-Text"
       id="expander-top" />
    <path
       d="m-13 18-2 2 2 2z"
       class="ColorScheme-Text"
       id="expander-right" />
    <path
       d="m-19 18 2 2-2 2z"
       class="ColorScheme-Text"
       id="expander-left" />
  </g>
  <g
     id="notification-inactive">
    <rect
       id="rect18"
       fill-opacity="0"
       height="22"
       width="22"
       class="ColorScheme-Text" />
    <path
       id="path20"
       fill="currentColor"
       color="#dedede"
       d="m11 3a8 8 0 0 0-8 8 8 8 0 0 0 8 8 8 8 0 0 0 8-8 8 8 0 0 0-8-8zm0 2a6 6 0 0 1 6 6 6 6 0 0 1-6 6 6 6 0 0 1-6-6 6 6 0 0 1 6-6zm-1 1v6h2v-6zm1 7c-0.45315 0-1 0.51843-1 0.98047 0 0.46204 0.54685 1.0195 1 1.0195s1-0.55749 1-1.0195c0-0.46204-0.54685-0.98047-1-0.98047z"
       class="ColorScheme-Text" />
  </g>
  <g
     id="notification-disabled">
    <rect
       id="rect23"
       opacity="0"
       height="22"
       width="22"
       y="-40" />
    <path
       id="path25"
       opacity=".3"
       fill="currentColor"
       color="#dedede"
       d="m11-37a8 8 0 0 0-8 8 8 8 0 0 0 8 8 8 8 0 0 0 8-8 8 8 0 0 0-8-8zm0 2a6 6 0 0 1 6 6 6 6 0 0 1-6 6 6 6 0 0 1-6-6 6 6 0 0 1 6-6zm-1 1v6h2v-6zm1 7c-0.45315 0-1 0.51843-1 0.98047 0 0.46204 0.54685 1.0195 1 1.0195s1-0.55749 1-1.0195c0-0.46204-0.54685-0.98047-1-0.98047z"
       class="ColorScheme-Text" />
  </g>
  <g
     id="notification-empty">
    <rect
       id="rect28"
       opacity="0"
       height="22"
       width="22"
       y="-40"
       x="40" />
    <path
       id="path30"
       fill="currentColor"
       color="#dedede"
       d="m51-37a8 8 0 0 0-8 8 8 8 0 0 0 8 8 8 8 0 0 0 8-8 8 8 0 0 0-8-8zm0 2a6 6 0 0 1 6 6 6 6 0 0 1-6 6 6 6 0 0 1-6-6 6 6 0 0 1 6-6z"
       class="ColorScheme-Text" />
  </g>
  <g
     id="notification-progress-active">
    <rect
       id="rect33"
       opacity="0"
       height="22"
       width="22"
       x="40" />
    <path
       style="fill:#3278e6;fill-opacity:1"
       id="path35"
       fill="currentColor"
       color="#5294e2"
       d="m51 3c-4.4183 0-8 3.5817-8 8 0 4.4183 3.5817 8 8 8 4.4183 0 8-3.5817 8-8 0-4.4183-3.5817-8-8-8z"
       class="ColorScheme-Highlight" />
  </g>
  <g
     id="notification-progress-inactive">
    <rect
       id="rect38"
       opacity="0"
       height="22"
       width="22"
       y="40"
       x="40" />
    <path
       id="path40"
       opacity=".3"
       fill="currentColor"
       color="#dedede"
       d="m51 45c-3.3137 0-6 2.6863-6 6s2.6863 6 6 6 6-2.6863 6-6-2.6863-6-6-6z"
       class="ColorScheme-Text" />
  </g>
</svg>
