<?xml version="1.0" encoding="UTF-8" standalone="no"?>
<svg
   id="svg"
   version="1.1"
   viewBox="0 0 22 22"
   sodipodi:docname="notification.svg"
   inkscape:version="1.1.1 (3bf5ae0d25, 2021-09-20, custom)"
   xmlns:inkscape="http://www.inkscape.org/namespaces/inkscape"
   xmlns:sodipodi="http://sodipodi.sourceforge.net/DTD/sodipodi-0.dtd"
   xmlns="http://www.w3.org/2000/svg"
   xmlns:svg="http://www.w3.org/2000/svg">
  <sodipodi:namedview
     id="namedview56"
     pagecolor="#ffffff"
     bordercolor="#999999"
     borderopacity="1"
     inkscape:pageshadow="0"
     inkscape:pageopacity="0"
     inkscape:pagecheckerboard="0"
     showgrid="true"
     inkscape:snap-smooth-nodes="true"
     inkscape:zoom="3.2864395"
     inkscape:cx="-47.011363"
     inkscape:cy="-18.561121"
     inkscape:window-width="1920"
     inkscape:window-height="1005"
     inkscape:window-x="0"
     inkscape:window-y="0"
     inkscape:window-maximized="1"
     inkscape:current-layer="svg">
    <inkscape:grid
       type="xygrid"
       id="grid873" />
  </sodipodi:namedview>
  <defs
     id="defs3">
    <style
       id="current-color-scheme"
       type="text/css">.ColorScheme-Text { color:#dedede; } .ColorScheme-Highlight { color:#5294e2; } .ColorScheme-ButtonBackground { color:#dedede; }</style>
  </defs>
  <g
     fill="#dedede"
     id="g9">
    <path
       id="expander-bottom"
       class="ColorScheme-Text"
       d="m-18 23 2-2 2 2z"
       color="#dedede" />
    <path
       id="expander-top"
       class="ColorScheme-Text"
       d="m-18 17 2 2 2-2z"
       color="#dedede" />
    <path
       id="expander-right"
       class="ColorScheme-Text"
       d="m-13 18-2 2 2 2z"
       color="#dedede" />
    <path
       id="expander-left"
       class="ColorScheme-Text"
       d="m-19 18 2 2-2 2z"
       color="#dedede" />
  </g>
  <g
     id="notification-inactive">
    <path
       d="m 11,2.99996 c -1.1046,0 -2,0.89543 -2,2 2.911e-4,0.11261 0.010092,0.22498 0.029297,0.33594 -2.3485,0.8128 -4.0293,3.0323 -4.0293,5.6641 l 0,2 -2,2 v 1 h 16 v -1 l -2,-2 0,-2 c 0,-2.6318 -1.6808,-4.8513 -4.0293,-5.6641 0.01921,-0.11096 0.02901,-0.22333 0.0293,-0.33594 0,-1.1046 -0.89543,-2 -2,-2 z"
       fill="#eaeaea"
       id="path11"
       sodipodi:nodetypes="cccsccccccscccc" />
    <rect
       class="ColorScheme-Text"
       width="22"
       height="22"
       color="#dedede"
       fill-opacity="0"
       id="rect13" />
    <path
       d="M 8.1738,17 A 3,3 0 0 0 11,19 3,3 0 0 0 13.8242,17 Z"
       fill="#eaeaea"
       opacity="0.75"
       id="path15" />
  </g>
  <g
     id="notification-disabled"
     transform="translate(0,-26)">
    <path
       transform="translate(0,26)"
       d="m 11,-23.00004 c -1.1046,0 -2,0.89543 -2,2 2.911e-4,0.1126 0.010092,0.22498 0.029297,0.33594 -2.3485,0.8128 -4.0293,3.0323 -4.0293,5.6641 v 2 l -2,2 v 1 h 16 v -1 l -2,-2 v -2 c 0,-2.6318 -1.6808,-4.8513 -4.0293,-5.6641 0.01921,-0.11096 0.02901,-0.22333 0.0293,-0.33594 0,-1.1046 -0.89543,-2 -2,-2 z"
       fill="#eaeaea"
       id="path18"
       sodipodi:nodetypes="cccsccccccscccc" />
    <rect
       class="ColorScheme-Text"
       width="22"
       height="22"
       color="#dedede"
       fill-opacity="0"
       id="rect20" />
    <path
       d="m8.1738 18a3 3 0 0 0 2.8262 2 3 3 0 0 0 2.8242-2z"
       fill="#eaeaea"
       opacity=".35"
       id="path22" />
  </g>
  <g
     id="notification-active">
    <path
       d="m 10,37.99996 c -1.1046,0 -2,0.89543 -2,2 2.911e-4,0.1126 0.010092,0.22498 0.029297,0.33594 -2.3485,0.8128 -4.0293,3.0323 -4.0293,5.6641 l 0,2 -2,2 v 1 h 16 v -1 l -2,-2 0,-2 c 0,-0.37956 -0.04445,-0.74602 -0.11133,-1.1055 -0.29135,0.06829 -0.58944,0.10366 -0.88867,0.10547 -2.2091,0 -4,-1.7909 -4,-4 0.0017,-0.76246 0.22124,-1.5086 0.63281,-2.1504 -0.37387,-0.5317 -0.982819,-0.84961 -1.6328,-0.84961 z"
       fill="#eaeaea"
       id="path25"
       sodipodi:nodetypes="sccsccccccsccccss" />
    <rect
       class="ColorScheme-Text"
       x="-1"
       y="35"
       width="22"
       height="22"
       color="#dedede"
       fill-opacity="0"
       id="rect27" />
    <path
       d="M 7.1738,52 A 3,3 0 0 0 10,54 3,3 0 0 0 12.8242,52 Z"
       fill="#eaeaea"
       opacity="0.75"
       id="path29" />
    <circle
       cx="15"
       cy="41"
       r="3"
       fill="#5294e2"
       id="circle31" />
  </g>
  <g
     id="notification-empty">
    <rect
       class="ColorScheme-Text"
       y="-53"
       width="22"
       height="22"
       color="#dedede"
       fill-opacity="0"
       id="rect34" />
    <path
       d="m11-51a9 9 0 0 0-9 9 9 9 0 0 0 9 9 9 9 0 0 0 9-9 9 9 0 0 0-0.48633-2.8906 4 4 0 0 1-1.832 0.83203 7 7 0 0 1 0.31836 2.0586 7 7 0 0 1-7 7 7 7 0 0 1-7-7 7 7 0 0 1 7-7 7 7 0 0 1 2.0645 0.31055 4 4 0 0 1 0.82812-1.8223 9 9 0 0 0-2.8926-0.48828z"
       fill="#eaeaea"
       id="path36" />
    <circle
       cx="17"
       cy="-48"
       r="3"
       fill="#5294e2"
       id="circle38" />
  </g>
  <g
     id="notification-progress-active">
    <rect
       class="ColorScheme-Text"
       x="40"
       y="-1"
       width="22"
       height="22"
       color="#dedede"
       fill-opacity="0"
       id="rect41" />
    <path
       d="m51 1a9 9 0 0 0-9 9 9 9 0 0 0 9 9 9 9 0 0 0 9-9 9 9 0 0 0-9-9zm0 2a7 7 0 0 1 7 7 7 7 0 0 1-7 7 7 7 0 0 1-7-7 7 7 0 0 1 7-7z"
       fill="#eaeaea"
       id="path43" />
    <circle
       cx="51"
       cy="10"
       r="6"
       fill="#5294e2"
       id="circle45" />
  </g>
  <g
     id="notification-progress-inactive"
     transform="translate(30)">
    <rect
       class="ColorScheme-Text"
       x="40"
       y="-1"
       width="22"
       height="22"
       color="#dedede"
       fill-opacity="0"
       id="rect48" />
    <path
       d="m51 1a9 9 0 0 0-9 9 9 9 0 0 0 9 9 9 9 0 0 0 9-9 9 9 0 0 0-9-9zm0 2a7 7 0 0 1 7 7 7 7 0 0 1-7 7 7 7 0 0 1-7-7 7 7 0 0 1 7-7z"
       fill="#eaeaea"
       id="path50" />
    <circle
       cx="51"
       cy="10"
       r="6"
       fill="#eaeaea"
       opacity=".15"
       id="circle52" />
  </g>
</svg>
