<?xml version="1.0" encoding="UTF-8" standalone="no"?>
<svg
   xmlns:dc="http://purl.org/dc/elements/1.1/"
   xmlns:cc="http://creativecommons.org/ns#"
   xmlns:rdf="http://www.w3.org/1999/02/22-rdf-syntax-ns#"
   xmlns:svg="http://www.w3.org/2000/svg"
   xmlns="http://www.w3.org/2000/svg"
   xmlns:sodipodi="http://sodipodi.sourceforge.net/DTD/sodipodi-0.dtd"
   xmlns:inkscape="http://www.inkscape.org/namespaces/inkscape"
   id="svg2"
   width="32"
   height="32"
   version="1.1"
   viewBox="0 0 32 32"
   sodipodi:docname="system.svg"
   inkscape:version="0.92.4 5da689c313, 2019-01-14">
  <metadata
     id="metadata59">
    <rdf:RDF>
      <cc:Work
         rdf:about="">
        <dc:format>image/svg+xml</dc:format>
        <dc:type
           rdf:resource="http://purl.org/dc/dcmitype/StillImage" />
        <dc:title></dc:title>
      </cc:Work>
    </rdf:RDF>
  </metadata>
  <sodipodi:namedview
     pagecolor="#c8c8c8"
     bordercolor="#666666"
     borderopacity="1"
     objecttolerance="10"
     gridtolerance="10"
     guidetolerance="10"
     inkscape:pageopacity="0"
     inkscape:pageshadow="2"
     inkscape:window-width="1920"
     inkscape:window-height="1023"
     id="namedview57"
     showgrid="true"
     inkscape:zoom="2.8284271"
     inkscape:cx="69.452675"
     inkscape:cy="6.491067"
     inkscape:window-x="0"
     inkscape:window-y="32"
     inkscape:window-maximized="1"
     inkscape:current-layer="svg2"
     inkscape:snap-bbox="true"
     inkscape:bbox-nodes="true"
     inkscape:snap-nodes="true"
     inkscape:snap-smooth-nodes="true"
     inkscape:snap-global="true">
    <inkscape:grid
       type="xygrid"
       id="grid862" />
  </sodipodi:namedview>
  <defs
     id="defs87">
    <style
       id="current-color-scheme"
       type="text/css">
   .ColorScheme-Text { color:#dedede; } .ColorScheme-Highlight { color:#5294e2; } .ColorScheme-ButtonBackground { color:#dedede; }
  </style>
    <style
       id="current-color-scheme-6"
       type="text/css" />
    <linearGradient
       id="a">
      <stop
         id="stop945"
         stop-color="#fff"
         offset="0" />
      <stop
         id="stop947"
         stop-opacity=".235"
         stop-color="#fff"
         offset=".508" />
      <stop
         id="stop949"
         stop-opacity=".157"
         stop-color="#fff"
         offset=".835" />
      <stop
         id="stop951"
         stop-opacity=".392"
         stop-color="#fff"
         offset="1" />
    </linearGradient>
    <linearGradient
       id="c">
      <stop
         id="stop954"
         stop-color="#3d3d3d"
         offset="0" />
      <stop
         id="stop956"
         stop-opacity=".498"
         stop-color="#686868"
         offset=".5" />
      <stop
         id="stop958"
         stop-opacity="0"
         stop-color="#686868"
         offset="1" />
    </linearGradient>
    <linearGradient
       id="b">
      <stop
         id="stop961"
         stop-color="#919caf"
         offset="0" />
      <stop
         id="stop963"
         stop-color="#68758e"
         offset=".262" />
      <stop
         id="stop965"
         stop-color="#485a6c"
         offset=".705" />
      <stop
         id="stop967"
         stop-color="#444c5c"
         offset="1" />
    </linearGradient>
    <style
       id="style924"
       type="text/css" />
  </defs>
  <g
     id="22-22-system-suspend"
     transform="translate(-21.999999,-988.36218)">
    <rect
       id="rect4222"
       width="22"
       height="22"
       x="0"
       y="1030.36"
       style="opacity:0.001;fill:currentColor;fill-opacity:1;stroke:none;stroke-width:2;stroke-linecap:round;stroke-linejoin:round;stroke-miterlimit:4;stroke-dasharray:none;stroke-opacity:1" />
    <g
       id="g4380"
       transform="matrix(1.0009385,0,0,0.99883233,-322.31608,1012.4029)"
       style="display:inline;opacity:1;fill:currentColor;fill-opacity:1">
      <path
         id="path4398"
         class="ColorScheme-Text"
         d="M 8.0449219,2 C 5.4709885,1.9800034 3.1612109,3.6075004 2.3203125,6.0351562 2.0969331,6.6800174 1.9985687,7.3426625 2,8 1.9989991,8.6573375 2.0969831,9.3199826 2.3203125,9.9648438 3.1612109,12.3925 5.4709885,14.02 8.0449219,14 10.618845,13.980003 12.900212,12.315429 13.703125,9.875 13.906195,9.2577756 14.001361,8.6263907 14,8 14.001001,7.3736093 13.906205,6.7422244 13.703125,6.125 12.900212,3.684571 10.618845,2.0199966 8.0449219,2 Z M 8.0292969,3.9980469 C 9.7515617,4.0114312 11.263538,5.1131547 11.800781,6.7460938 11.936599,7.1589011 12.00029,7.582557 12,8 12.00029,8.417443 11.936639,8.8410989 11.800781,9.2539062 11.263538,10.886845 9.7515617,11.988573 8.0292969,12.001953 6.307032,12.015337 4.7736051,10.936893 4.2109375,9.3125 4.0615674,8.8812761 3.9955932,8.4378711 3.9960938,8 3.9955932,7.5621289 4.0615574,7.1187239 4.2109375,6.6875 4.7736051,5.0631071 6.307032,3.9846625 8.0292969,3.9980469 Z M 5.8554688,7 C 5.3807835,7 5,7.446 5,8 5,8.554 5.3807835,9 5.8554688,9 L 10.142578,9 C 10.61726,9 11,8.554 11,8 11,7.446 10.61726,7 10.142578,7 L 5.8554688,7 Z"
         transform="matrix(0.99906238,0,0,1.001169,325.01106,20.983802)"
         style="fill:#eaeaea;fill-opacity:1" />
    </g>
  </g>
  <g
     id="22-22-system-switch-user"
     transform="translate(1e-6,-988.36218)">
    <rect
       id="rect4220"
       width="22"
       height="22"
       x="0"
       y="1030.36"
       style="opacity:0.001;fill:currentColor;fill-opacity:1;stroke:none;stroke-width:2;stroke-linecap:round;stroke-linejoin:round;stroke-miterlimit:4;stroke-dasharray:none;stroke-opacity:1" />
    <path
       id="path4481"
       class="ColorScheme-Text"
       d="m 10.9943,1035.362 c -1.8700303,0 -3.3939153,1.5345 -3.4492153,3.4512 -0.0459,0.012 -0.0915,0.033 -0.13476,0.055 -0.43005,0.227 -0.54034,0.9343 -0.2461,1.5899 0.23672,0.5274 0.65753,0.8538 1.03906,0.8437 0.28723,1.7528 1.430425,3.0606 2.7910153,3.0606 l 0.0117,0 c 1.36059,0 2.5038,-1.3078 2.79102,-3.0606 0.38154,0.01 0.80234,-0.3163 1.03906,-0.8437 0.29424,-0.6556 0.18394,-1.3629 -0.24609,-1.5899 -0.0433,-0.023 -0.0888,-0.044 -0.13477,-0.055 -0.0553,-1.9167 -1.57919,-3.4512 -3.44922,-3.4512 l -0.0117,0 z m 2.40039,8 c -0.28889,0.7005 -1.27408,1.2246 -2.44922,1.2246 -1.1698503,0 -2.1455953,-0.5173 -2.4394453,-1.2129 -2.46908,0.2581 -4.26818,0.8896 -4.48438,1.6367 -0.003,0.01 0.002,0.016 0,0.024 -0.007,0.026 -0.007,0.049 -0.01,0.076 -10e-4,0.012 -0.0117,0.021 -0.0117,0.035 -9e-5,0 0,0.011 0,0.012 l 0,1.8477 c 0,0.1976 0.15571,0.3574 0.34961,0.3574 l 13.3007853,0 c 0.1939,0 0.3496,-0.1598 0.3496,-0.3574 l 0,-1.8477 c 0,-0.01 3.5e-4,-0.015 0,-0.023 -0.002,-0.043 -0.0208,-0.081 -0.0332,-0.123 -0.22075,-0.7563 -2.05842,-1.3964 -4.57226,-1.6484 z"
       style="fill:#eaeaea;fill-opacity:1" />
  </g>
  <g
     id="22-22-system-shutdown"
     transform="translate(-43.999999,-988.36218)">
    <rect
       id="rect4229"
       width="22"
       height="22"
       x="0"
       y="1030.36"
       style="opacity:0.001;fill:currentColor;fill-opacity:1;stroke:none;stroke-width:2;stroke-linecap:round;stroke-linejoin:round;stroke-miterlimit:4;stroke-dasharray:none;stroke-opacity:1" />
    <path
       id="rect4324"
       class="ColorScheme-Text"
       d="m 11.000336,1034.362 c -0.553987,0 -0.99995,0.4462 -0.99995,1 l 0,5.0019 c 0,0.5538 0.445963,0.9981 0.99995,0.9981 0.553988,0 0.99995,-0.4443 0.99995,-0.9981 l 0,-5.0019 c 0,-0.5538 -0.445962,-1 -0.99995,-1 z m 2.939305,1.9902 a 1.000176,0.99982748 0 0 0 -0.542942,1.8086 c 1.377976,1.0304 1.941017,2.8148 1.404226,4.4492 -0.536779,1.6344 -2.050513,2.7386 -3.771293,2.752 -1.7207811,0.013 -3.2501263,-1.0675 -3.8123083,-2.6934 -0.562183,-1.6258 -0.02587,-3.419 1.335869,-4.4707 a 1.000176,0.99982748 0 1 0 -1.222594,-1.582 c -2.035135,1.5718 -2.842036,4.2772 -2.001852,6.707 0.840173,2.4298 3.144793,4.0591 5.7165093,4.0391 2.571705,-0.02 4.853744,-1.6863 5.655965,-4.1289 0.80223,-2.4426 -0.04794,-5.1339 -2.107316,-6.6739 a 1.000176,0.99982748 0 0 0 -0.654264,-0.207 z"
       style="fill:#eaeaea;fill-opacity:1" />
  </g>
  <g
     id="22-22-system-reboot"
     transform="matrix(0,-1,1,0,-1096.3623,64)">
    <rect
       id="rect4235"
       width="22"
       height="22"
       x="0"
       y="1030.36"
       style="opacity:0.001;fill:currentColor;fill-opacity:1;stroke:none;stroke-width:2;stroke-linecap:round;stroke-linejoin:round;stroke-miterlimit:4;stroke-dasharray:none;stroke-opacity:1" />
    <g
       id="layer12"
       transform="matrix(1.0009385,0,0,0.99883233,-322.31609,1012.4029)"
       style="display:inline;opacity:1;fill:currentColor;fill-opacity:1">
      <path
         id="path6796"
         class="ColorScheme-Text"
         d="M 8.0449219,2 C 5.4709885,1.98 3.161211,3.6075002 2.3203125,6.0351562 2.0969411,6.6800174 1.998566,7.342662 2,8 1.998566,8.657338 2.0969411,9.3199826 2.3203125,9.9648438 3.161211,12.3925 5.4709885,14.02 8.0449219,14 10.618845,13.980003 12.900212,12.315429 13.703125,9.875 13.906197,9.2577753 14.001356,8.626391 14,8 14.001356,7.373609 13.906197,6.7422247 13.703125,6.125 12.900212,3.6845712 10.618845,2.019997 8.0449219,2 Z M 8.0292969,3.9980469 C 9.7515617,4.0114279 11.263537,5.1131547 11.800781,6.7460938 11.9366,7.1589017 12.00029,7.5825571 12,8 12.00029,8.4174429 11.936599,8.8410983 11.800781,9.2539062 11.263537,10.886845 9.7515617,11.988572 8.0292969,12.001953 6.307032,12.015337 4.773605,10.936893 4.2109375,9.3125 4.0615674,8.881276 3.995597,8.4378713 3.9960938,8 3.995597,7.5621287 4.0615674,7.118724 4.2109375,6.6875 4.773605,5.0631072 6.307032,3.9846629 8.0292969,3.9980469 Z M 6.4746094,6 A 0.4736353,0.52746185 0 0 0 6.0625,6.7890625 L 7.5898438,9.734375 A 0.4736353,0.52746185 0 0 0 7.9746094,10 0.4736353,0.52746185 0 0 0 8.0234375,10 0.4736353,0.52746185 0 0 0 8.4101562,9.734375 L 9.9375,6.7890625 A 0.4736353,0.52746185 0 0 0 9.5273438,6 L 6.4746094,6 Z"
         transform="matrix(0.99906238,0,0,1.001169,325.01107,20.983802)"
         style="fill:#eaeaea;fill-opacity:1" />
    </g>
  </g>
  <g
     id="22-22-system-log-out"
     transform="matrix(-1,0,0,1,-65.999999,-988.36218)"
     inkscape:label="#22-22-system-log-out">
    <rect
       id="rect4242"
       width="22"
       height="22"
       x="0"
       y="1030.36"
       style="opacity:0.001;fill:currentColor;fill-opacity:1;stroke:none;stroke-width:2;stroke-linecap:round;stroke-linejoin:round;stroke-miterlimit:4;stroke-dasharray:none;stroke-opacity:1" />
    <path
       id="path4360"
       class="ColorScheme-Text"
       d="m 11.475393,1035.3621 a 0.4736353,0.52746183 0 0 0 -0.412109,0.7891 l 1.527343,2.9453 a 0.4736353,0.52746183 0 0 0 0.384766,0.2656 0.4736353,0.52746183 0 0 0 0.04883,0 0.4736353,0.52746183 0 0 0 0.386718,-0.2656 l 0.326172,-0.6289 c 1.12174,1.0534 1.553588,2.6586 1.064453,4.1465 -0.536781,1.6327 -2.050703,2.7366 -3.771484,2.75 -1.7207807,0.013 -3.2503167,-1.0672 -3.8124997,-2.6915 -0.562183,-1.6242 -0.02584,-3.4141 1.335938,-4.4648 a 1.0005526,0.99921387 0 1 0 -1.222657,-1.582 c -2.035134,1.5702 -2.842137,4.2737 -2.001953,6.7011 0.840174,2.4275 3.145082,4.0552 5.7167967,4.0352 2.571705,-0.02 4.854029,-1.6848 5.65625,-4.125 0.789982,-2.4029 -0.02804,-5.0426 -2.019531,-6.5918 l 0.255859,-0.4941 a 0.4736353,0.52746183 0 0 0 -0.410156,-0.7891 l -3.052734,0 z"
       style="fill:#eaeaea;fill-opacity:1" />
  </g>
  <g
     id="22-22-system-suspend-hibernate"
     transform="translate(-110,-988.36218)">
    <rect
       id="rect4248"
       width="22"
       height="22"
       x="0"
       y="1030.36"
       style="opacity:0.001;fill:currentColor;fill-opacity:1;stroke:none;stroke-width:2;stroke-linecap:round;stroke-linejoin:round;stroke-miterlimit:4;stroke-dasharray:none;stroke-opacity:1" />
    <g
       id="g4447"
       transform="matrix(1.0009385,0,0,0.99883233,-322.31607,1012.4029)"
       style="display:inline;opacity:1;fill:currentColor;fill-opacity:1">
      <path
         id="path4455"
         class="ColorScheme-Text"
         d="M 80.044922,2 C 77.470989,1.9800034 75.161212,3.6075014 74.320312,6.0351562 74.096933,6.6800174 73.998569,7.3426625 74,8 73.999,8.6573375 74.09698,9.3199826 74.320312,9.9648438 75.161212,12.3925 77.470989,14.02 80.044922,14 82.618845,13.98 84.900212,12.315429 85.703125,9.875 85.906195,9.2577756 86.001361,8.6263907 86,8 86.001001,7.3736093 85.906205,6.7422244 85.703125,6.125 84.900212,3.684571 82.618845,2.0199966 80.044922,2 Z m -0.01563,1.9980469 c 1.722265,0.013384 3.234241,1.1151078 3.771484,2.7480469 C 83.936599,7.1589011 84.00029,7.582557 84,8 84.00029,8.417443 83.936639,8.8410989 83.800781,9.2539062 83.263538,10.886845 81.751562,11.988574 80.029297,12.001953 78.307032,12.015337 76.773605,10.936893 76.210938,9.3125 76.061566,8.8812761 75.995593,8.4378711 75.996094,8 75.995593,7.5621289 76.061556,7.1187239 76.210938,6.6875 76.773605,5.0631071 78.307032,3.9846625 80.029297,3.9980469 Z M 80,6 a 2,2 0 0 0 -2,2 2,2 0 0 0 2,2 2,2 0 0 0 2,-2 2,2 0 0 0 -2,-2 z"
         transform="matrix(0.99906238,0,0,1.001169,253.07856,20.983802)"
         style="fill:#eaeaea;fill-opacity:1" />
    </g>
  </g>
  <g
     id="22-22-system-lock-screen"
     transform="translate(22.000001,-988.36218)">
    <rect
       id="rect4255"
       width="22"
       height="22"
       x="0"
       y="1030.36"
       style="opacity:0.001;fill:currentColor;fill-opacity:1;stroke:none;stroke-width:2;stroke-linecap:round;stroke-linejoin:round;stroke-miterlimit:4;stroke-dasharray:none;stroke-opacity:1" />
    <path
       id="path5975"
       class="ColorScheme-Text"
       d="m 11,1034.3622 c -2.216,0 -4,1.8216 -4,4.0625 l 0,1.9375 -1,0 c -0.554,0 -1,0.446 -1,1 l 0,6 c 0,0.554 0.446,1 1,1 l 10,0 c 0.554,0 1,-0.446 1,-1 l 0,-6 c 0,-0.554 -0.446,-1 -1,-1 l -1,0 0,-1.9375 c 0,-2.24 -1.784,-4.0625 -4,-4.0625 z m 0,2 c 1.108,0 2,0.892 2,2 l 0,2 -4,0 0,-2 c 0,-1.108 0.892,-2 2,-2 z"
       style="fill:#eaeaea;fill-opacity:1" />
  </g>
  <g
     id="g1109"
     transform="translate(0,1.0000005)" />
  <g
     id="system-log-out">
    <rect
       ry="0"
       rx="0"
       y="1.1e-07"
       x="82.623047"
       height="32"
       width="32"
       id="rect950"
       style="opacity:0;fill:#000000;fill-opacity:1;fill-rule:evenodd;stroke:none;stroke-width:2;stroke-linecap:round;stroke-linejoin:round;stroke-miterlimit:4;stroke-dasharray:none;stroke-opacity:1;paint-order:fill markers stroke" />
    <path
       inkscape:connector-curvature="0"
       id="path999"
       d="m 95.599609,1.3046879 c -0.975854,0.1996887 -1.917669,0.4958221 -2.814453,0.875 0.896578,-0.3795102 1.83906,-0.6750427 2.814453,-0.875 z m 6.044921,0 c 0.9754,0.1999573 1.91788,0.4954898 2.81446,0.875 -0.89679,-0.3791779 -1.8386,-0.6753113 -2.81446,-0.875 z m -3.021483,0.6953125 c -7.737895,0 -14,6.262105 -14,13.9999996 0,7.737895 6.262105,14 14,14 7.737893,0 14.000003,-6.262105 14.000003,-14 0,-7.7378946 -6.26211,-13.9999996 -14.000003,-13.9999996 z m -5.839844,0.1796875 c -0.89677,0.3793018 -1.747314,0.8440878 -2.544922,1.3828125 0.797581,-0.5390387 1.648369,-1.0031875 2.544922,-1.3828125 z m 11.677737,0 c 0.89655,0.379625 1.74734,0.8437738 2.54492,1.3828125 -0.79761,-0.5387247 -1.64815,-1.0035106 -2.54492,-1.3828125 z M 90.236328,3.5625004 C 87.842313,5.1798655 85.939343,7.470247 84.800781,10.162109 85.93991,7.4718528 87.843231,5.1802191 90.236328,3.5625004 Z m 16.771492,0 c 2.39309,1.6177187 4.29641,3.9093524 5.43554,6.5996086 -1.13856,-2.6918619 -3.04153,-4.9822435 -5.43554,-6.5996086 z m -8.572273,2.9335938 c 0.90768,0.110902 1.599613,1.0344062 1.599613,2.0039062 V 23.5 c 0,1.108 -0.903144,2.156695 -2.000004,2 l -7,-1 c -1.09686,-0.156695 -2,-0.892 -2,-2 V 9.5000004 c 0,-1.108 0.90314,-1.843305 2,-2 l 7,-1 c 0.13711,-0.01959 0.270721,-0.019756 0.400391,-0.00391 z m -0.199219,1.0019531 c -0.0648,-0.0079 -0.132622,-0.00785 -0.201172,0.00195 l -7,1 c -0.54843,0.07835 -1,0.446 -1,1 V 22.5 c 0,0.554 0.45157,0.92165 1,1 l 7,1 c 0.54843,0.07835 1,-0.446 1,-1 V 8.5000004 c 0,-0.48475 -0.344988,-0.9465031 -0.798828,-1.0019531 z m 3.261722,0.00195 h 2 c 1.108,0 2,0.8229341 2,1.8457031 v 3.6933585 c -3.6e-4,0.254667 -0.22411,0.460938 -0.5,0.460938 -0.27589,0 -0.49964,-0.206272 -0.5,-0.460938 V 9.3457035 c 0,-0.511385 -0.446,-0.921875 -1,-0.921875 h -2 c -0.27672,1.1e-6 -0.50081,-0.2074623 -0.5,-0.4628906 3.6e-4,-0.2546661 0.22411,-0.4609377 0.5,-0.4609375 z m 5.87891,5.8769526 c 0.12781,0 0.25366,0.05051 0.35156,0.148438 l 2.12305,2.121093 c 0.049,0.04897 0.083,0.105846 0.10742,0.166016 0.0245,0.06017 0.0371,0.1236 0.0371,0.1875 0,0.0639 -0.0126,0.12733 -0.0371,0.1875 -0.0245,0.06017 -0.0584,0.117046 -0.10742,0.166016 l -2.12305,2.121093 c -0.19587,0.195869 -0.51116,0.195869 -0.70703,0 -0.19587,-0.195868 -0.19587,-0.511162 0,-0.707031 L 108.29102,16.5 h -4.79297 c -0.277,0 -0.5,-0.223 -0.5,-0.5 0,-0.277 0.223,-0.5 0.5,-0.5 h 4.79297 l -1.26758,-1.267578 c -0.19587,-0.195869 -0.19587,-0.511163 0,-0.707031 0.0979,-0.09794 0.22571,-0.148438 0.35352,-0.148438 z M 96.998047,15.5 c 0.276142,0 0.5,0.223858 0.5,0.5 0,0.276142 -0.223858,0.5 -0.5,0.5 -0.276142,0 -0.5,-0.223858 -0.5,-0.5 0,-0.276142 0.223858,-0.5 0.5,-0.5 z m 8.000003,3 c 0.27589,0 0.49964,0.206271 0.5,0.460938 v 3.693359 c 0,1.022769 -0.892,1.845703 -2,1.845703 h -2 c -0.27589,0 -0.49964,-0.206271 -0.5,-0.460938 -8.1e-4,-0.255427 0.22328,-0.462891 0.5,-0.46289 h 2 c 0.554,0 1,-0.41049 1,-0.921875 v -3.693359 c 3.3e-4,-0.254685 0.22409,-0.460938 0.5,-0.460938 z m -20.197269,3.337891 c 1.138562,2.691862 3.041532,4.982244 5.435547,6.599609 -2.393097,-1.617719 -4.296418,-3.909352 -5.435547,-6.599609 z m 27.642579,0 c -1.13913,2.690257 -3.04245,4.98189 -5.43554,6.599609 2.39401,-1.617365 4.29698,-3.907747 5.43554,-6.599609 z M 90.238281,28.4375 c 0.797608,0.538725 1.648152,1.003511 2.544922,1.382812 C 91.88665,29.440687 91.035862,28.976539 90.238281,28.4375 Z m 16.767579,0 c -0.79758,0.539039 -1.64837,1.003187 -2.54492,1.382812 0.89677,-0.379301 1.74731,-0.844087 2.54492,-1.382812 z m -14.220704,1.382812 c 0.896784,0.379178 1.838599,0.675312 2.814453,0.875 -0.975393,-0.199957 -1.917875,-0.495489 -2.814453,-0.875 z m 11.673834,0 c -0.89658,0.379511 -1.83906,0.675043 -2.81446,0.875 0.97586,-0.199688 1.91767,-0.495822 2.81446,-0.875 z"
       style="opacity:0.8;fill:#ffffff;fill-opacity:1;fill-rule:evenodd;stroke:none;stroke-width:2.4000001;stroke-linecap:round;stroke-linejoin:miter;stroke-miterlimit:4;stroke-dasharray:none;stroke-dashoffset:3;stroke-opacity:1;paint-order:stroke fill markers" />
  </g>
  <g
     id="system-suspend-hibernate">
    <rect
       style="opacity:0;fill:#000000;fill-opacity:1;fill-rule:evenodd;stroke:none;stroke-width:2;stroke-linecap:round;stroke-linejoin:round;stroke-miterlimit:4;stroke-dasharray:none;stroke-opacity:1;paint-order:fill markers stroke"
       id="rect887"
       width="32"
       height="32"
       x="42"
       y="0"
       rx="0"
       ry="0" />
    <path
       inkscape:connector-curvature="0"
       id="path897"
       d="m 58,1 c 0.438308,0 0.870014,0.029487 1.298828,0.066406 A 15,15 0 0 0 58,1 Z m 0,0 A 15,15 0 0 0 56.480469,1.078125 C 56.98009,1.0277697 57.487205,1 58,1 Z m 2.085938,0.1621094 c 0.219729,0.030707 0.439665,0.059474 0.65625,0.099609 a 15,15 0 0 0 -0.65625,-0.099609 z m 1.529296,0.2949218 c 0.193422,0.048029 0.38774,0.094927 0.578125,0.1503907 A 15,15 0 0 0 61.615234,1.4570312 Z m 1.419922,0.4296876 c 0.18964,0.067771 0.38037,0.131923 0.566406,0.2070312 A 15,15 0 0 0 63.035156,1.8867188 Z M 58,2 C 50.262105,2 44,8.262105 44,16 44,23.737895 50.262105,30 58,30 65.737895,30 72,23.737895 72,16 72,8.262105 65.737895,2 58,2 Z m 6.384766,0.4453125 c 0.194751,0.092014 0.391976,0.1792527 0.582031,0.2792969 A 15,15 0 0 0 64.384766,2.4453125 Z m -13.544922,0.375 A 15,15 0 0 0 50.304688,3.1445312 C 50.483553,3.0371394 50.656244,2.9203573 50.839844,2.8203125 Z M 65.65625,3.1210938 c 0.194758,0.1161308 0.393098,0.2269884 0.582031,0.3515624 A 15,15 0 0 0 65.65625,3.1210938 Z m -16.078125,0.46875 A 15,15 0 0 0 48.914062,4.0878906 C 49.133864,3.9199154 49.34902,3.745709 49.578125,3.5898438 Z m 17.267578,0.3183593 c 0.204102,0.1496375 0.411338,0.2955555 0.607422,0.4550781 A 15,15 0 0 0 66.845703,3.9082031 Z m -18.416015,0.546875 a 15,15 0 0 0 -0.732422,0.6679688 c 0.239975,-0.2273951 0.477857,-0.4566625 0.732422,-0.6679688 z m 19.460937,0.2929688 c 0.226131,0.1989673 0.454209,0.3953767 0.667969,0.6074219 A 15,15 0 0 0 67.890625,4.7480469 Z M 47.355469,5.4414062 A 15,15 0 0 0 46.748047,6.109375 c 0.198967,-0.2261312 0.395377,-0.454209 0.607422,-0.6679688 z m 21.521484,0.2558594 c 0.227395,0.2399754 0.456663,0.4778573 0.667969,0.7324219 A 15,15 0 0 0 68.876953,5.6972656 Z M 46.363281,6.546875 A 15,15 0 0 0 45.908203,7.1542969 C 46.057841,6.9501954 46.203759,6.7429588 46.363281,6.546875 Z m 23.548828,0.3671875 c 0.167976,0.2198016 0.342182,0.4349572 0.498047,0.6640625 A 15,15 0 0 0 69.912109,6.9140625 Z M 58,7 a 0.5,0.5 0 0 1 0,1 c -3.237199,0 -6.151802,1.9486711 -7.390625,4.939453 -1.238823,2.990782 -0.554671,6.427751 1.734375,8.716797 2.289046,2.289046 5.726015,2.973198 8.716797,1.734375 C 64.051329,22.151802 66,19.237199 66,16 a 0.5,0.5 0 0 1 1,0 c 0,3.638724 -2.194898,6.921974 -5.556641,8.314453 -3.361743,1.39248 -7.233674,0.621795 -9.80664,-1.951172 -2.572967,-2.572967 -3.343652,-6.444897 -1.951172,-9.80664 C 51.078027,9.1948976 54.361276,7 58,7 Z M 45.472656,7.7617188 A 15,15 0 0 0 45.121094,8.34375 c 0.116131,-0.1947578 0.226988,-0.3930978 0.351562,-0.5820312 z m 25.382813,0.5429687 c 0.107392,0.178865 0.224174,0.3515569 0.324219,0.5351563 A 15,15 0 0 0 70.855469,8.3046875 Z m -26.13086,0.7285156 a 15,15 0 0 0 -0.279297,0.5820313 c 0.09201,-0.194751 0.179253,-0.3919764 0.279297,-0.5820313 z m 17.06836,0.1289063 h 2.830078 c 0.06644,0 0.1296,0.014429 0.1875,0.037109 0.06278,0.02532 0.118997,0.06251 0.166015,0.109375 0.04702,0.04687 0.08405,0.1032756 0.109376,0.1660156 0.04898,0.120189 0.04898,0.2567641 0,0.3769531 l -0.002,0.00195 c -0.02524,0.06123 -0.06135,0.1159994 -0.107422,0.1621094 L 63,11.992188 h 2.302734 c 0.277006,-1e-6 0.5,0.22296 0.5,0.5 0,0.276999 -0.222998,0.5 -0.5,0.5 h -3.507812 c -0.210569,-1e-6 -0.388961,-0.131147 -0.462891,-0.314454 -0.01169,-0.02948 -0.01158,-0.06156 -0.01758,-0.0918 -0.0064,-0.03175 -0.01953,-0.05973 -0.01953,-0.09375 -2.7e-4,-0.06539 0.01374,-0.129797 0.03906,-0.191407 0.02547,-0.06161 0.06082,-0.117572 0.107422,-0.164062 l 0.0039,-0.0039 1.970704,-1.970703 h -1.623047 c -0.277006,0 -0.5,-0.2229606 -0.5,-0.4999996 0,-0.27704 0.222998,-0.5 0.5,-0.5 z M 44.09375,10.398438 a 15,15 0 0 0 -0.207031,0.566406 c 0.06777,-0.18964 0.131923,-0.38037 0.207031,-0.566406 z m -0.486328,1.408203 a 15,15 0 0 0 -0.150391,0.578125 c 0.04803,-0.193422 0.09493,-0.38774 0.150391,-0.578125 z m -0.345703,1.451171 a 15,15 0 0 0 -0.09961,0.65625 c 0.03071,-0.219729 0.05947,-0.439665 0.09961,-0.65625 z m 29.660156,1.222657 C 72.97223,14.98009 73,15.487205 73,16 a 15,15 0 0 0 -0.07813,-1.519531 z M 73,16 c 0,0.438308 -0.02949,0.870014 -0.06641,1.298828 A 15,15 0 0 0 73,16 Z M 43.066406,14.701172 A 15,15 0 0 0 43,16 c 0,-0.438308 0.02949,-0.870014 0.06641,-1.298828 z M 43,16 a 15,15 0 0 0 0.07813,1.519531 C 43.02777,17.01991 43,16.512795 43,16 Z m 13.988281,1.902344 a 0.49991579,0.49991579 0 0 1 0.513672,0.548828 c -0.01572,0.188685 0.07332,0.367247 0.234375,0.466797 0.161054,0.0996 0.361686,0.100316 0.523438,0.002 0.161751,-0.09841 0.252671,-0.276053 0.238281,-0.464844 a 0.50047477,0.50047477 0 1 1 0.998047,-0.07617 c 0.04281,0.561849 -0.23542,1.101642 -0.716797,1.394532 -0.481377,0.292846 -1.089061,0.290453 -1.568359,-0.0059 -0.479302,-0.296273 -0.751849,-0.838859 -0.705079,-1.40039 a 0.49991579,0.49991579 0 0 1 0.482422,-0.464844 z m 15.84961,0.183594 c -0.03071,0.219729 -0.05947,0.439665 -0.09961,0.65625 a 15,15 0 0 0 0.09961,-0.65625 z m -0.294922,1.529296 c -0.04803,0.193422 -0.09493,0.38774 -0.150391,0.578125 a 15,15 0 0 0 0.150391,-0.578125 z m -0.429688,1.419922 c -0.06777,0.18964 -0.131923,0.38037 -0.207031,0.566406 a 15,15 0 0 0 0.207031,-0.566406 z m -0.558593,1.34961 c -0.09201,0.194751 -0.179253,0.391976 -0.279297,0.582031 a 15,15 0 0 0 0.279297,-0.582031 z m -26.734376,0.77539 a 15,15 0 0 0 0.324219,0.535156 c -0.107392,-0.178865 -0.224174,-0.351556 -0.324219,-0.535156 z m 26.058594,0.496094 c -0.116131,0.194758 -0.226988,0.393098 -0.351562,0.582031 a 15,15 0 0 0 0.351562,-0.582031 z m -25.289062,0.765625 a 15,15 0 0 0 0.498047,0.664063 C 45.919915,24.866136 45.745709,24.65098 45.589844,24.421875 Z m 24.501953,0.423828 c -0.149638,0.204102 -0.295556,0.411338 -0.455078,0.607422 a 15,15 0 0 0 0.455078,-0.607422 z m -23.636719,0.724609 a 15,15 0 0 0 0.667969,0.732422 c -0.227395,-0.239975 -0.456663,-0.477857 -0.667969,-0.732422 z m 22.796875,0.320313 c -0.198967,0.226131 -0.395377,0.454209 -0.607422,0.667969 a 15,15 0 0 0 0.607422,-0.667969 z m -21.810547,0.753906 a 15,15 0 0 0 0.667969,0.607422 c -0.226131,-0.198967 -0.454209,-0.395377 -0.667969,-0.607422 z m 20.861328,0.232422 c -0.239975,0.227395 -0.477857,0.456663 -0.732422,0.667969 a 15,15 0 0 0 0.732422,-0.667969 z m -19.755859,0.759766 a 15,15 0 0 0 0.607422,0.455078 c -0.204102,-0.149638 -0.411338,-0.295556 -0.607422,-0.455078 z m 18.539063,0.27539 c -0.219802,0.167976 -0.434958,0.342182 -0.664063,0.498047 a 15,15 0 0 0 0.664063,-0.498047 z m -17.324219,0.615235 a 15,15 0 0 0 0.582031,0.351562 c -0.194758,-0.116131 -0.393098,-0.226988 -0.582031,-0.351562 z m 15.933593,0.328125 c -0.178865,0.107392 -0.351556,0.224174 -0.535156,0.324219 a 15,15 0 0 0 0.535156,-0.324219 z m -14.662109,0.419922 a 15,15 0 0 0 0.582031,0.279297 c -0.194751,-0.09201 -0.391976,-0.179253 -0.582031,-0.279297 z m 1.365235,0.630859 a 15,15 0 0 0 0.566406,0.207031 c -0.18964,-0.06777 -0.38037,-0.131923 -0.566406,-0.207031 z m 1.408203,0.486328 a 15,15 0 0 0 0.578125,0.150391 c -0.193422,-0.04803 -0.38774,-0.09493 -0.578125,-0.150391 z m 1.451171,0.345703 a 15,15 0 0 0 0.65625,0.09961 c -0.219729,-0.03071 -0.439665,-0.05947 -0.65625,-0.09961 z m 4.261719,0.183594 C 59.01991,30.97223 58.512795,31 58,31 a 15,15 0 0 0 1.519531,-0.07813 z M 58,31 c -0.438308,0 -0.870014,-0.02949 -1.298828,-0.06641 A 15,15 0 0 0 58,31 Z"
       style="opacity:0.8;fill:#ffffff;fill-opacity:1;fill-rule:evenodd;stroke:none;stroke-width:1.5;stroke-linecap:round;stroke-linejoin:miter;stroke-miterlimit:4;stroke-dasharray:none;stroke-dashoffset:3;stroke-opacity:1;paint-order:stroke fill markers" />
  </g>
  <g
     id="system-suspend">
    <rect
       ry="0"
       rx="0"
       y="1.1181641e-07"
       x="-80"
       height="32"
       width="32"
       id="rect964"
       style="opacity:0;fill:#000000;fill-opacity:1;fill-rule:evenodd;stroke:none;stroke-width:2;stroke-linecap:round;stroke-linejoin:round;stroke-miterlimit:4;stroke-dasharray:none;stroke-opacity:1;paint-order:fill markers stroke" />
    <path
       inkscape:connector-curvature="0"
       id="path972"
       d="m -64,1.0000001 c 0.438308,0 0.870014,0.029487 1.298828,0.066406 A 15,15 0 0 0 -64,1.0000001 Z m 0,0 a 15,15 0 0 0 -1.519531,0.078125 C -65.01991,1.0277698 -64.512795,1.0000001 -64,1.0000001 Z m 2.085938,0.1621094 c 0.219729,0.030707 0.439665,0.059474 0.65625,0.099609 a 15,15 0 0 0 -0.65625,-0.099609 z m 1.529296,0.2949218 c 0.193422,0.048029 0.38774,0.094927 0.578125,0.1503907 a 15,15 0 0 0 -0.578125,-0.1503907 z m 1.419922,0.4296876 c 0.18964,0.067771 0.38037,0.131923 0.566406,0.2070312 A 15,15 0 0 0 -58.964844,1.8867189 Z M -64,2.0000001 c -7.737895,0 -14,6.2621048 -14,13.9999999 0,7.737895 6.262105,14 14,14 7.737895,0 14,-6.262105 14,-14 0,-7.7378951 -6.262105,-13.9999999 -14,-13.9999999 z m 6.384766,0.4453125 c 0.194751,0.092014 0.391976,0.1792527 0.582031,0.2792969 a 15,15 0 0 0 -0.582031,-0.2792969 z m -13.544922,0.375 a 15,15 0 0 0 -0.535156,0.3242187 c 0.178865,-0.1073918 0.351556,-0.2241739 0.535156,-0.3242187 z m 14.816406,0.3007813 c 0.194758,0.1161308 0.393098,0.2269884 0.582031,0.3515624 A 15,15 0 0 0 -56.34375,3.1210939 Z m -16.078125,0.46875 a 15,15 0 0 0 -0.664063,0.4980468 c 0.219802,-0.1679752 0.434958,-0.3421816 0.664063,-0.4980468 z m 17.267578,0.3183593 c 0.204102,0.1496375 0.411338,0.2955555 0.607422,0.4550781 a 15,15 0 0 0 -0.607422,-0.4550781 z m -18.416015,0.546875 a 15,15 0 0 0 -0.732422,0.6679688 c 0.239975,-0.2273951 0.477857,-0.4566625 0.732422,-0.6679688 z m 19.460937,0.2929688 c 0.226131,0.1989673 0.454209,0.3953767 0.667969,0.6074219 A 15,15 0 0 0 -54.109375,4.748047 Z m -20.535156,0.6933593 a 15,15 0 0 0 -0.607422,0.6679688 c 0.198967,-0.2261312 0.395377,-0.454209 0.607422,-0.6679688 z m 21.521484,0.2558594 c 0.227395,0.2399754 0.456663,0.4778573 0.667969,0.7324219 a 15,15 0 0 0 -0.667969,-0.7324219 z m -22.513672,0.8496094 a 15,15 0 0 0 -0.455078,0.6074219 c 0.149638,-0.2041015 0.295556,-0.4113381 0.455078,-0.6074219 z m 23.548828,0.3671875 c 0.167976,0.2198016 0.342182,0.4349572 0.498047,0.6640625 A 15,15 0 0 0 -52.087891,6.9140626 Z M -65.214844,7.044922 c 0.111688,-0.009 0.260998,0.013903 0.386719,0.095703 0.125721,0.0818 0.202853,0.2054444 0.238281,0.3027344 0.07086,0.194582 0.04764,0.3162053 0.0332,0.4277344 -0.02866,0.221394 -0.09334,0.4186006 -0.109375,0.4941406 v 0.00391 c -0.05266,0.260694 -0.0927,0.5244175 -0.11914,0.7890625 -0.02676,0.265094 -0.04083,0.5323861 -0.04102,0.7988281 4.6e-5,0.188888 0.0081,0.376015 0.02148,0.564453 v 0.002 c 0.0186,0.266132 0.05062,0.530012 0.0957,0.792968 0.0458,0.262588 0.104008,0.522599 0.175781,0.779297 0.07124,0.257107 0.1554,0.511057 0.251953,0.759766 0.09592,0.247728 0.204139,0.491553 0.324219,0.728515 l 0.002,0.002 c 0.121007,0.236679 0.254483,0.467941 0.398437,0.691406 0.144078,0.224534 0.299064,0.44332 0.464844,0.652344 0.165727,0.20904 0.341572,0.408159 0.527344,0.599609 0.1853,0.191279 0.380541,0.375019 0.583984,0.546875 h 0.002 c 0.204058,0.17132 0.416589,0.332305 0.636719,0.482422 0.219634,0.150321 0.446169,0.290273 0.679688,0.417968 0.234255,0.127756 0.474861,0.243935 0.720703,0.347657 0.245854,0.104406 0.49689,0.19609 0.751953,0.27539 0.254535,0.07841 0.512357,0.144626 0.773437,0.197266 0.261342,0.05298 0.525724,0.09252 0.791016,0.119141 0.265716,0.02682 0.533731,0.04088 0.800781,0.04102 0.188237,-9e-5 0.376663,-0.0081 0.564453,-0.02148 l -0.0078,0.002 c 0.05087,-0.0045 0.216957,-0.03551 0.402344,-0.03711 0.09269,-7.8e-4 0.191591,-0.01492 0.36914,0.07031 0.08877,0.04262 0.211971,0.135594 0.277344,0.287109 0.06537,0.151517 0.04715,0.314424 0.01172,0.416016 -1.267579,3.635029 -4.632229,6.281303 -8.617188,6.283203 h -0.002 c -4.964575,-4.8e-5 -8.999952,-4.035425 -9,-9 v -0.002 c 0.0054,-4.482136 3.192539,-8.1111008 7.5625,-8.9023438 l 0.02344,-0.00586 z m -11.3125,0.7167969 a 15,15 0 0 0 -0.351562,0.5820312 c 0.116131,-0.1947578 0.226988,-0.3930978 0.351562,-0.5820312 z m 10.871094,0.4785156 c -3.607266,0.917507 -6.165322,3.9150625 -6.169922,7.7167965 4.3e-5,4.424229 3.57577,7.999958 8,8 3.306976,-0.0016 6.074927,-2.090278 7.361328,-5.013672 -0.119839,0.0049 -0.239412,0.01364 -0.359375,0.01367 h -0.002 c -0.300437,-1.4e-4 -0.599536,-0.01672 -0.898437,-0.04687 -0.298485,-0.02996 -0.5947,-0.07518 -0.888672,-0.134765 -0.293712,-0.05922 -0.58475,-0.132503 -0.871094,-0.220703 h -0.002 c -0.286937,-0.08922 -0.56912,-0.193091 -0.845703,-0.310547 -0.276004,-0.116509 -0.545578,-0.247185 -0.808594,-0.390625 -0.262701,-0.143652 -0.518539,-0.299641 -0.765625,-0.46875 -0.248121,-0.169207 -0.486823,-0.349814 -0.716797,-0.542969 v -0.002 h -0.002 c -0.229311,-0.193637 -0.44742,-0.397712 -0.65625,-0.613282 -0.208988,-0.215375 -0.40731,-0.440615 -0.59375,-0.675781 -0.186498,-0.235147 -0.361352,-0.479826 -0.523438,-0.732422 -0.162486,-0.252234 -0.310769,-0.5121 -0.447265,-0.779297 h -0.002 v -0.002 c -0.135611,-0.267397 -0.256975,-0.540721 -0.365235,-0.820312 -0.108397,-0.279216 -0.203171,-0.562938 -0.283203,-0.851563 -0.08075,-0.288794 -0.147692,-0.581555 -0.199218,-0.876953 v -0.002 c -0.05061,-0.29517 -0.08648,-0.593824 -0.107422,-0.892578 -0.0151,-0.21197 -0.02338,-0.424185 -0.02344,-0.6367187 v -0.00195 c 2.11e-4,-0.29974 0.01677,-0.5982574 0.04687,-0.8964843 0.02746,-0.274847 0.07044,-0.5472224 0.123047,-0.8183594 z m 14.511719,0.064453 c 0.107392,0.178865 0.224174,0.3515569 0.324219,0.5351563 a 15,15 0 0 0 -0.324219,-0.5351563 z m -26.13086,0.7285156 a 15,15 0 0 0 -0.279297,0.5820313 c 0.09201,-0.194751 0.179253,-0.3919764 0.279297,-0.5820313 z m 16.515625,0.921875 h 2.830078 c 0.06644,0 0.129601,0.014429 0.1875,0.037109 0.06278,0.02532 0.118995,0.06251 0.166016,0.1093749 0.04702,0.04687 0.08405,0.103276 0.109375,0.166016 0.04898,0.120189 0.04898,0.256764 0,0.376953 l -0.002,0.002 c -0.02524,0.06123 -0.06135,0.116001 -0.107422,0.16211 l -1.976562,1.976562 H -57.25 c 0.277006,0 0.5,0.22296 0.5,0.5 0,0.277001 -0.222998,0.5 -0.5,0.5 h -3.507812 c -0.210569,0 -0.388961,-0.131146 -0.462891,-0.314453 -0.01169,-0.02948 -0.0096,-0.06156 -0.01563,-0.0918 -0.0064,-0.03175 -0.01953,-0.05973 -0.01953,-0.09375 -2.7e-4,-0.06539 0.01374,-0.129796 0.03906,-0.191406 0.02547,-0.06161 0.05887,-0.117572 0.105469,-0.164062 l 0.0039,-0.0039 1.970703,-1.970703 h -1.623047 c -0.277006,0 -0.5,-0.222961 -0.5,-0.5 0,-0.27704 0.222998,-0.5000003 0.5,-0.5000003 z M -77.90625,10.398438 a 15,15 0 0 0 -0.207031,0.566406 c 0.06777,-0.18964 0.131923,-0.38037 0.207031,-0.566406 z m -0.486328,1.408203 a 15,15 0 0 0 -0.150391,0.578125 c 0.04803,-0.193422 0.09493,-0.38774 0.150391,-0.578125 z m -0.345703,1.451171 a 15,15 0 0 0 -0.09961,0.65625 c 0.03071,-0.219729 0.05947,-0.439665 0.09961,-0.65625 z m 29.660156,1.222657 C -49.02777,14.98009 -49,15.487205 -49,16 a 15,15 0 0 0 -0.07813,-1.519531 z M -49,16 c 0,0.438308 -0.02949,0.870014 -0.06641,1.298828 A 15,15 0 0 0 -49,16 Z M -78.933594,14.701172 A 15,15 0 0 0 -79,16 c 0,-0.438308 0.02949,-0.870014 0.06641,-1.298828 z M -79,16 a 15,15 0 0 0 0.07813,1.519531 C -78.97223,17.01991 -79,16.512795 -79,16 Z m 29.837891,2.085938 c -0.03071,0.219729 -0.05947,0.439665 -0.09961,0.65625 a 15,15 0 0 0 0.09961,-0.65625 z m -0.294922,1.529296 c -0.04803,0.193422 -0.09493,0.38774 -0.150391,0.578125 a 15,15 0 0 0 0.150391,-0.578125 z m -0.429688,1.419922 c -0.06777,0.18964 -0.131923,0.38037 -0.207031,0.566406 a 15,15 0 0 0 0.207031,-0.566406 z m -0.558593,1.34961 c -0.09201,0.194751 -0.179253,0.391976 -0.279297,0.582031 a 15,15 0 0 0 0.279297,-0.582031 z m -26.734376,0.77539 a 15,15 0 0 0 0.324219,0.535156 c -0.107392,-0.178865 -0.224174,-0.351556 -0.324219,-0.535156 z m 26.058594,0.496094 c -0.116131,0.194758 -0.226988,0.393098 -0.351562,0.582031 a 15,15 0 0 0 0.351562,-0.582031 z m -25.289062,0.765625 a 15,15 0 0 0 0.498047,0.664063 c -0.167976,-0.219802 -0.342182,-0.434958 -0.498047,-0.664063 z m 24.501953,0.423828 c -0.149638,0.204102 -0.295556,0.411338 -0.455078,0.607422 a 15,15 0 0 0 0.455078,-0.607422 z m -23.636719,0.724609 a 15,15 0 0 0 0.667969,0.732422 c -0.227395,-0.239975 -0.456663,-0.477857 -0.667969,-0.732422 z m 22.796875,0.320313 c -0.198967,0.226131 -0.395377,0.454209 -0.607422,0.667969 a 15,15 0 0 0 0.607422,-0.667969 z m -21.810547,0.753906 a 15,15 0 0 0 0.667969,0.607422 c -0.226131,-0.198967 -0.454209,-0.395377 -0.667969,-0.607422 z m 20.861328,0.232422 c -0.239975,0.227395 -0.477857,0.456663 -0.732422,0.667969 a 15,15 0 0 0 0.732422,-0.667969 z m -19.755859,0.759766 a 15,15 0 0 0 0.607422,0.455078 c -0.204102,-0.149638 -0.411338,-0.295556 -0.607422,-0.455078 z m 18.539063,0.27539 c -0.219802,0.167976 -0.434958,0.342182 -0.664063,0.498047 a 15,15 0 0 0 0.664063,-0.498047 z m -17.324219,0.615235 a 15,15 0 0 0 0.582031,0.351562 c -0.194758,-0.116131 -0.393098,-0.226988 -0.582031,-0.351562 z m 15.933593,0.328125 c -0.178865,0.107392 -0.351556,0.224174 -0.535156,0.324219 a 15,15 0 0 0 0.535156,-0.324219 z m -14.662109,0.419922 a 15,15 0 0 0 0.582031,0.279297 c -0.194751,-0.09201 -0.391976,-0.179253 -0.582031,-0.279297 z m 1.365235,0.630859 a 15,15 0 0 0 0.566406,0.207031 c -0.18964,-0.06777 -0.38037,-0.131923 -0.566406,-0.207031 z m 1.408203,0.486328 a 15,15 0 0 0 0.578125,0.150391 c -0.193422,-0.04803 -0.38774,-0.09493 -0.578125,-0.150391 z m 1.451171,0.345703 a 15,15 0 0 0 0.65625,0.09961 c -0.219729,-0.03071 -0.439665,-0.05947 -0.65625,-0.09961 z m 4.261719,0.183594 C -62.98009,30.97223 -63.487205,31 -64,31 a 15,15 0 0 0 1.519531,-0.07813 z M -64,31 c -0.438308,0 -0.870014,-0.02949 -1.298828,-0.06641 A 15,15 0 0 0 -64,31 Z"
       style="opacity:0.8;fill:#ffffff;fill-opacity:1;fill-rule:evenodd;stroke:none;stroke-width:1.353302;stroke-linecap:round;stroke-linejoin:miter;stroke-miterlimit:4;stroke-dasharray:none;stroke-dashoffset:3;stroke-opacity:1;paint-order:stroke fill markers" />
  </g>
  <g
     id="system-reboot">
    <rect
       style="opacity:0;fill:#000000;fill-opacity:1;fill-rule:evenodd;stroke:none;stroke-width:2;stroke-linecap:round;stroke-linejoin:round;stroke-miterlimit:4;stroke-dasharray:none;stroke-opacity:1;paint-order:fill markers stroke"
       id="rect1129-7"
       width="32"
       height="32"
       x="-40"
       y="1.1025606e-07"
       rx="0"
       ry="0" />
    <path
       id="path1092"
       d="M -24 2 C -31.737895 2 -38 8.2621055 -38 16 C -38 23.737895 -31.737895 30 -24 30 C -16.262105 30 -10 23.737895 -10 16 C -10 8.2621055 -16.262105 2 -24 2 z M -24.111328 7 C -21.954808 6.97605 -19.828659 7.7340924 -18.148438 9.1777344 L -18.148438 8.3613281 C -18.148438 8.0843281 -17.925436 7.8613281 -17.648438 7.8613281 C -17.371437 7.8613281 -17.148438 8.0843281 -17.148438 8.3613281 L -17.148438 10.361328 C -17.148438 10.371028 -17.153697 10.379092 -17.154297 10.388672 A 0.50078729 0.50078729 0 0 1 -17.154297 10.392578 A 0.50078729 0.50078729 0 0 1 -17.175781 10.503906 C -17.188571 10.546456 -17.207509 10.584206 -17.230469 10.621094 A 0.50078729 0.50078729 0 0 1 -17.232422 10.623047 C -17.233394 10.624547 -17.235328 10.625453 -17.236328 10.626953 A 0.50078729 0.50078729 0 0 1 -17.261719 10.664062 C -17.293099 10.704192 -17.329009 10.736732 -17.371094 10.765625 C -17.412884 10.794315 -17.456134 10.817041 -17.505859 10.832031 A 0.50078729 0.50078729 0 0 1 -17.525391 10.835938 C -17.544571 10.840938 -17.563964 10.844936 -17.583984 10.847656 A 0.50078729 0.50078729 0 0 1 -17.603516 10.851562 C -17.619106 10.853063 -17.632458 10.861328 -17.648438 10.861328 L -19.648438 10.861328 C -19.925436 10.861328 -20.148438 10.638328 -20.148438 10.361328 C -20.148438 10.084328 -19.925437 9.8613281 -19.648438 9.8613281 L -18.882812 9.8613281 C -21.296874 7.8436531 -24.712212 7.4044623 -27.591797 8.8476562 C -30.83033 10.47075 -32.57254 14.060939 -31.84375 17.609375 A 0.50014109 0.50014109 0 1 1 -32.822266 17.810547 C -33.64114 13.823491 -31.677909 9.776848 -28.039062 7.953125 C -27.129351 7.497194 -26.17113 7.207512 -25.203125 7.078125 C -24.840123 7.029605 -24.475018 7.00404 -24.111328 7 z M -15.662109 13.763672 A 0.50014109 0.50014109 0 0 1 -15.177734 14.189453 C -14.35886 18.176509 -16.322091 22.223152 -19.960938 24.046875 C -20.870649 24.502806 -21.82887 24.792488 -22.796875 24.921875 C -25.310651 25.257875 -27.888273 24.512997 -29.851562 22.828125 L -29.851562 23.638672 C -29.851562 23.915672 -30.074562 24.138672 -30.351562 24.138672 C -30.628563 24.138672 -30.851562 23.915672 -30.851562 23.638672 L -30.851562 21.638672 C -30.851562 21.628972 -30.846303 21.620908 -30.845703 21.611328 A 0.50078729 0.50078729 0 0 1 -30.845703 21.607422 A 0.50078729 0.50078729 0 0 1 -30.824219 21.496094 C -30.811429 21.453544 -30.792491 21.415794 -30.769531 21.378906 A 0.50078729 0.50078729 0 0 1 -30.763672 21.373047 C -30.755472 21.360367 -30.747551 21.347787 -30.738281 21.335938 C -30.706901 21.295807 -30.670991 21.263268 -30.628906 21.234375 C -30.587116 21.205685 -30.543866 21.182959 -30.494141 21.167969 A 0.50078729 0.50078729 0 0 1 -30.416016 21.152344 C -30.409316 21.151451 -30.403234 21.149038 -30.396484 21.148438 C -30.380894 21.146937 -30.367542 21.138672 -30.351562 21.138672 L -28.351562 21.138672 C -28.074564 21.138672 -27.851563 21.361672 -27.851562 21.638672 C -27.851562 21.915672 -28.074565 22.138672 -28.351562 22.138672 L -29.117188 22.138672 C -26.703126 24.156347 -23.287788 24.595538 -20.408203 23.152344 C -17.16967 21.529251 -15.42746 17.939061 -16.15625 14.390625 A 0.50014109 0.50014109 0 0 1 -15.712891 13.765625 A 0.50014109 0.50014109 0 0 1 -15.662109 13.763672 z "
       style="color:#000000;overflow:visible;opacity:0.85;fill:#ffffff;fill-opacity:1;stroke-width:0.93749988" />
  </g>
  <g
     id="system-shutdown">
    <path
       id="path957"
       d="M 16 2 C 8.2621055 2 2 8.2621055 2 16 C 2 23.737895 8.2621055 30 16 30 C 23.737895 30 30 23.737895 30 16 C 30 8.2621055 23.737895 2 16 2 z M 16 7 C 16.277001 7 16.5 7.223 16.5 7.5 L 16.5 15.5 C 16.5 15.777 16.277001 16 16 16 C 15.723001 16 15.5 15.777 15.5 15.5 L 15.5 7.5 C 15.5 7.223 15.723001 7 16 7 z M 13.003906 7.5449219 A 0.50014109 0.50014109 0 0 1 13.175781 8.515625 C 9.5569197 9.880856 7.4370744 13.63046 8.1308594 17.435547 C 8.8246454 21.240633 12.132182 23.999824 16 24 C 19.867818 24.000176 23.175009 21.240569 23.869141 17.435547 C 24.563273 13.630524 22.442956 9.881186 18.824219 8.515625 A 0.50014109 0.50014109 0 1 1 19.177734 7.5800781 C 23.24244 9.1139291 25.633193 13.341285 24.853516 17.615234 C 24.073839 21.889183 20.344483 25.000197 16 25 C 11.655518 24.999801 7.9257704 21.889251 7.1464844 17.615234 C 6.3671984 13.341215 8.7593732 9.1135571 12.824219 7.5800781 A 0.50014109 0.50014109 0 0 1 13.003906 7.5449219 z "
       style="color:#000000;overflow:visible;opacity:0.85;fill:#ffffff;fill-opacity:1;stroke-width:0.93749988" />
    <rect
       ry="0"
       rx="0"
       y="5e-07"
       x="6.2499998e-07"
       height="32"
       width="32"
       id="rect1086"
       style="opacity:0;fill:#000000;fill-opacity:1;fill-rule:evenodd;stroke:none;stroke-width:2;stroke-linecap:round;stroke-linejoin:round;stroke-miterlimit:4;stroke-dasharray:none;stroke-opacity:1;paint-order:fill markers stroke" />
  </g>
  <g
     id="system-lock-screen">
    <rect
       style="opacity:0;fill:#000000;fill-opacity:1;fill-rule:evenodd;stroke:none;stroke-width:2;stroke-linecap:round;stroke-linejoin:round;stroke-miterlimit:4;stroke-dasharray:none;stroke-opacity:1;paint-order:fill markers stroke"
       id="rect1067"
       width="32"
       height="32"
       x="123"
       y="1.0960464e-07"
       rx="0"
       ry="0" />
    <path
       inkscape:connector-curvature="0"
       id="path985"
       d="m 139,2.0000001 c -7.73789,0 -14,6.262105 -14,13.9999999 0,7.737895 6.26211,14 14,14 7.73789,0 14,-6.262105 14,-14 0,-7.7378949 -6.26211,-13.9999999 -14,-13.9999999 z m 0,4 c 2.77,0 5,2.2300001 5,4.9999999 v 3 h 2 c 1.108,0 2,0.892 2,2 v 6 c 0,1.108 -0.892,2 -2,2 h -14 c -1.108,0 -2,-0.892 -2,-2 v -6 c 0,-1.108 0.892,-2 2,-2 h 2 v -3 c 0,-2.7699998 2.23,-4.9999999 5,-4.9999999 z m 0,1 c -2.216,0 -4,1.7840001 -4,3.9999999 v 3 h 8 v -3 c 0,-2.2159998 -1.784,-3.9999999 -4,-3.9999999 z M 132,15 c -0.554,0 -1,0.446 -1,1 v 6 c 0,0.554 0.446,1 1,1 h 14 c 0.554,0 1,-0.446 1,-1 v -6 c 0,-0.554 -0.446,-1 -1,-1 z m 7,2 c 0.277,0 0.5,0.223 0.5,0.5 v 2 c 0,0.277 -0.223,0.5 -0.5,0.5 -0.277,0 -0.5,-0.223 -0.5,-0.5 v -2 c 0,-0.277 0.223,-0.5 0.5,-0.5 z"
       style="color:#000000;overflow:visible;opacity:0.85;fill:#ffffff;fill-opacity:1;stroke-width:0.9375" />
  </g>
  <g
     id="system-switch-user">
    <rect
       ry="0"
       rx="0"
       y="1.1381393e-07"
       x="163.21501"
       height="32"
       width="32"
       id="rect956"
       style="opacity:0;fill:#000000;fill-opacity:1;fill-rule:evenodd;stroke:none;stroke-width:2;stroke-linecap:round;stroke-linejoin:round;stroke-miterlimit:4;stroke-dasharray:none;stroke-opacity:1;paint-order:fill markers stroke" />
    <path
       inkscape:connector-curvature="0"
       id="path1020"
       d="m 179.21501,2.0000001 c -7.73789,0 -14,6.262105 -14,13.9999999 0,7.737895 6.26211,14 14,14 7.73789,0 14,-6.262105 14,-14 0,-7.7378949 -6.26211,-13.9999999 -14,-13.9999999 z m 5.09766,8.5039059 c 0.0644,0.0081 0.12752,0.02787 0.1875,0.0625 l 3.46484,2 c 0.0183,0.01057 0.0285,0.02861 0.0449,0.04102 0.029,0.02179 0.0565,0.04282 0.0801,0.07031 0.0189,0.02193 0.0323,0.04582 0.0469,0.07031 0.0182,0.03036 0.0354,0.05961 0.0469,0.09375 0.0104,0.03061 0.0133,0.06168 0.0176,0.09375 0.003,0.02207 0.0137,0.04155 0.0137,0.06445 0,0.01105 -0.005,0.02038 -0.006,0.03125 -0.002,0.03143 -0.0115,0.06072 -0.0195,0.0918 -0.009,0.03629 -0.0182,0.07096 -0.0351,0.103515 -0.004,0.0076 -0.004,0.01596 -0.008,0.02344 -0.009,0.01553 -0.0229,0.02487 -0.0332,0.03906 -0.0232,0.03202 -0.0481,0.06031 -0.0781,0.08594 -0.0223,0.01913 -0.0454,0.03412 -0.0703,0.04883 -0.0285,0.01685 -0.0561,0.03199 -0.0879,0.04297 -0.0346,0.0121 -0.069,0.0172 -0.10547,0.02148 -0.0195,0.0023 -0.0365,0.01172 -0.0566,0.01172 h -17 c -0.277,0 -0.5,-0.223 -0.5,-0.5 0,-0.277 0.223,-0.5 0.5,-0.5 h 15.13282 l -1.84766,-1.066406 c -0.23989,-0.1385 -0.32209,-0.443705 -0.18359,-0.683594 0.10388,-0.179917 0.30272,-0.270322 0.49609,-0.246094 z M 170.71501,18.5 h 17 c 0.277,0 0.5,0.223 0.5,0.5 0,0.277 -0.223,0.5 -0.5,0.5 H 172.5822 l 1.84766,1.066406 c 0.23989,0.1385 0.32209,0.443705 0.18359,0.683594 -0.1385,0.239889 -0.4437,0.322094 -0.68359,0.183594 l -3.46485,-2 c -0.0183,-0.01057 -0.0285,-0.02861 -0.0449,-0.04102 -0.029,-0.02179 -0.0565,-0.04283 -0.0801,-0.07031 -0.0189,-0.02193 -0.0323,-0.04582 -0.0469,-0.07031 -0.0182,-0.03036 -0.0354,-0.05961 -0.0469,-0.09375 -0.0104,-0.03061 -0.0133,-0.06168 -0.0176,-0.09375 -0.003,-0.02207 -0.0137,-0.04155 -0.0137,-0.06445 0,-0.01105 0.005,-0.02038 0.006,-0.03125 0.002,-0.03142 0.0115,-0.06072 0.0195,-0.0918 0.009,-0.03629 0.0183,-0.07096 0.0352,-0.103515 0.004,-0.0076 0.004,-0.01597 0.008,-0.02344 0.009,-0.01553 0.0229,-0.02487 0.0332,-0.03906 0.0232,-0.03202 0.0481,-0.06031 0.0781,-0.08594 0.0223,-0.01913 0.0454,-0.03412 0.0703,-0.04883 0.0285,-0.01685 0.0561,-0.03198 0.0879,-0.04297 0.0346,-0.0121 0.069,-0.0172 0.10547,-0.02148 0.0195,-0.0023 0.0365,-0.01172 0.0566,-0.01172 z"
       style="color:#000000;overflow:visible;opacity:0.85;fill:#ffffff;fill-opacity:1;stroke-width:0.93749994" />
  </g>
</svg>
