<?xml version="1.0" encoding="UTF-8" standalone="no"?>
<svg
   xmlns:dc="http://purl.org/dc/elements/1.1/"
   xmlns:cc="http://creativecommons.org/ns#"
   xmlns:rdf="http://www.w3.org/1999/02/22-rdf-syntax-ns#"
   xmlns:svg="http://www.w3.org/2000/svg"
   xmlns="http://www.w3.org/2000/svg"
   xmlns:sodipodi="http://sodipodi.sourceforge.net/DTD/sodipodi-0.dtd"
   xmlns:inkscape="http://www.inkscape.org/namespaces/inkscape"
   id="svg2"
   width="32"
   height="32"
   version="1.1"
   viewBox="0 0 32 32"
   sodipodi:docname="system.svg"
   inkscape:version="0.92.4 5da689c313, 2019-01-14">
  <metadata
     id="metadata59">
    <rdf:RDF>
      <cc:Work
         rdf:about="">
        <dc:format>image/svg+xml</dc:format>
        <dc:type
           rdf:resource="http://purl.org/dc/dcmitype/StillImage" />
        <dc:title />
      </cc:Work>
    </rdf:RDF>
  </metadata>
  <sodipodi:namedview
     pagecolor="#c8c8c8"
     bordercolor="#666666"
     borderopacity="1"
     objecttolerance="10"
     gridtolerance="10"
     guidetolerance="10"
     inkscape:pageopacity="0"
     inkscape:pageshadow="2"
     inkscape:window-width="1920"
     inkscape:window-height="1027"
     id="namedview57"
     showgrid="true"
     inkscape:zoom="2"
     inkscape:cx="-136.63213"
     inkscape:cy="-20.574772"
     inkscape:window-x="0"
     inkscape:window-y="28"
     inkscape:window-maximized="1"
     inkscape:current-layer="svg2"
     inkscape:snap-bbox="true"
     inkscape:bbox-nodes="true"
     inkscape:snap-nodes="false"
     inkscape:snap-smooth-nodes="false"
     inkscape:snap-global="true"
     inkscape:snap-bbox-edge-midpoints="true"
     inkscape:object-nodes="false"
     inkscape:snap-others="false">
    <inkscape:grid
       type="xygrid"
       id="grid862" />
  </sodipodi:namedview>
  <defs
     id="defs87">
    <style
       id="current-color-scheme"
       type="text/css">
   .ColorScheme-Text { color:#dedede; } .ColorScheme-Highlight { color:#5294e2; } .ColorScheme-ButtonBackground { color:#dedede; }
  </style>
    <style
       id="current-color-scheme-6"
       type="text/css" />
    <linearGradient
       id="a">
      <stop
         id="stop945"
         stop-color="#fff"
         offset="0" />
      <stop
         id="stop947"
         stop-opacity=".235"
         stop-color="#fff"
         offset=".508" />
      <stop
         id="stop949"
         stop-opacity=".157"
         stop-color="#fff"
         offset=".835" />
      <stop
         id="stop951"
         stop-opacity=".392"
         stop-color="#fff"
         offset="1" />
    </linearGradient>
    <linearGradient
       id="c">
      <stop
         id="stop954"
         stop-color="#3d3d3d"
         offset="0" />
      <stop
         id="stop956"
         stop-opacity=".498"
         stop-color="#686868"
         offset=".5" />
      <stop
         id="stop958"
         stop-opacity="0"
         stop-color="#686868"
         offset="1" />
    </linearGradient>
    <linearGradient
       id="b">
      <stop
         id="stop961"
         stop-color="#919caf"
         offset="0" />
      <stop
         id="stop963"
         stop-color="#68758e"
         offset=".262" />
      <stop
         id="stop965"
         stop-color="#485a6c"
         offset=".705" />
      <stop
         id="stop967"
         stop-color="#444c5c"
         offset="1" />
    </linearGradient>
    <style
       id="style924"
       type="text/css" />
    <style
       id="style923"
       type="text/css" />
  </defs>
  <g
     id="22-22-system-suspend"
     transform="translate(-158.62305,-988.36218)">
    <rect
       id="rect4222"
       width="22"
       height="22"
       x="0"
       y="1030.36"
       style="opacity:0.00100002;fill:currentColor;fill-opacity:1;stroke:none;stroke-width:2;stroke-linecap:round;stroke-linejoin:round;stroke-miterlimit:4;stroke-dasharray:none;stroke-opacity:1" />
    <g
       id="g4380"
       transform="matrix(1.0009385,0,0,0.99883233,-322.31608,1012.4029)"
       style="display:inline;opacity:1;fill:currentColor;fill-opacity:1">
      <path
         id="path4398"
         class="ColorScheme-Text"
         d="M 8.0449219,2 C 5.4709885,1.9800034 3.1612109,3.6075004 2.3203125,6.0351562 2.0969331,6.6800174 1.9985687,7.3426625 2,8 1.9989991,8.6573375 2.0969831,9.3199826 2.3203125,9.9648438 3.1612109,12.3925 5.4709885,14.02 8.0449219,14 10.618845,13.980003 12.900212,12.315429 13.703125,9.875 13.906195,9.2577756 14.001361,8.6263907 14,8 14.001001,7.3736093 13.906205,6.7422244 13.703125,6.125 12.900212,3.684571 10.618845,2.0199966 8.0449219,2 Z M 8.0292969,3.9980469 C 9.7515617,4.0114312 11.263538,5.1131547 11.800781,6.7460938 11.936599,7.1589011 12.00029,7.582557 12,8 12.00029,8.417443 11.936639,8.8410989 11.800781,9.2539062 11.263538,10.886845 9.7515617,11.988573 8.0292969,12.001953 6.307032,12.015337 4.7736051,10.936893 4.2109375,9.3125 4.0615674,8.8812761 3.9955932,8.4378711 3.9960938,8 3.9955932,7.5621289 4.0615574,7.1187239 4.2109375,6.6875 4.7736051,5.0631071 6.307032,3.9846625 8.0292969,3.9980469 Z M 5.8554688,7 C 5.3807835,7 5,7.446 5,8 5,8.554 5.3807835,9 5.8554688,9 H 10.142578 C 10.61726,9 11,8.554 11,8 11,7.446 10.61726,7 10.142578,7 Z"
         transform="matrix(0.99906238,0,0,1.001169,325.01106,20.983802)"
         style="fill:#eaeaea;fill-opacity:1"
         inkscape:connector-curvature="0" />
    </g>
  </g>
  <g
     id="22-22-system-switch-user"
     transform="translate(85.376952,-988.36218)">
    <rect
       id="rect4220"
       width="22"
       height="22"
       x="0"
       y="1030.36"
       style="opacity:0.00100002;fill:currentColor;fill-opacity:1;stroke:none;stroke-width:2;stroke-linecap:round;stroke-linejoin:round;stroke-miterlimit:4;stroke-dasharray:none;stroke-opacity:1" />
    <path
       id="path4481"
       class="ColorScheme-Text"
       d="m 10.9943,1035.362 c -1.8700303,0 -3.3939153,1.5345 -3.4492153,3.4512 -0.0459,0.012 -0.0915,0.033 -0.13476,0.055 -0.43005,0.227 -0.54034,0.9343 -0.2461,1.5899 0.23672,0.5274 0.65753,0.8538 1.03906,0.8437 0.28723,1.7528 1.430425,3.0606 2.7910153,3.0606 h 0.0117 c 1.36059,0 2.5038,-1.3078 2.79102,-3.0606 0.38154,0.01 0.80234,-0.3163 1.03906,-0.8437 0.29424,-0.6556 0.18394,-1.3629 -0.24609,-1.5899 -0.0433,-0.023 -0.0888,-0.044 -0.13477,-0.055 -0.0553,-1.9167 -1.57919,-3.4512 -3.44922,-3.4512 z m 2.40039,8 c -0.28889,0.7005 -1.27408,1.2246 -2.44922,1.2246 -1.1698503,0 -2.1455953,-0.5173 -2.4394453,-1.2129 -2.46908,0.2581 -4.26818,0.8896 -4.48438,1.6367 -0.003,0.01 0.002,0.016 0,0.024 -0.007,0.026 -0.007,0.049 -0.01,0.076 -10e-4,0.012 -0.0117,0.021 -0.0117,0.035 -9e-5,0 0,0.011 0,0.012 v 1.8477 c 0,0.1976 0.15571,0.3574 0.34961,0.3574 H 17.65034 c 0.1939,0 0.3496,-0.1598 0.3496,-0.3574 v -1.8477 c 0,-0.01 3.5e-4,-0.015 0,-0.023 -0.002,-0.043 -0.0208,-0.081 -0.0332,-0.123 -0.22075,-0.7563 -2.05842,-1.3964 -4.57226,-1.6484 z"
       style="fill:#eaeaea;fill-opacity:1"
       inkscape:connector-curvature="0" />
  </g>
  <g
     id="22-22-system-shutdown"
     transform="translate(-77.623048,-988.36218)">
    <rect
       id="rect4229"
       width="22"
       height="22"
       x="0"
       y="1030.36"
       style="opacity:0.00100002;fill:currentColor;fill-opacity:1;stroke:none;stroke-width:2;stroke-linecap:round;stroke-linejoin:round;stroke-miterlimit:4;stroke-dasharray:none;stroke-opacity:1" />
    <path
       id="rect4324"
       class="ColorScheme-Text"
       d="m 11.000336,1034.362 c -0.553987,0 -0.99995,0.4462 -0.99995,1 v 5.0019 c 0,0.5538 0.445963,0.9981 0.99995,0.9981 0.553988,0 0.99995,-0.4443 0.99995,-0.9981 v -5.0019 c 0,-0.5538 -0.445962,-1 -0.99995,-1 z m 2.939305,1.9902 a 1.000176,0.99982748 0 0 0 -0.542942,1.8086 c 1.377976,1.0304 1.941017,2.8148 1.404226,4.4492 -0.536779,1.6344 -2.050513,2.7386 -3.771293,2.752 -1.7207811,0.013 -3.2501263,-1.0675 -3.8123083,-2.6934 -0.562183,-1.6258 -0.02587,-3.419 1.335869,-4.4707 a 1.000176,0.99982748 0 1 0 -1.222594,-1.582 c -2.035135,1.5718 -2.842036,4.2772 -2.001852,6.707 0.840173,2.4298 3.144793,4.0591 5.7165093,4.0391 2.571705,-0.02 4.853744,-1.6863 5.655965,-4.1289 0.80223,-2.4426 -0.04794,-5.1339 -2.107316,-6.6739 a 1.000176,0.99982748 0 0 0 -0.654264,-0.207 z"
       style="fill:#eaeaea;fill-opacity:1"
       inkscape:connector-curvature="0" />
  </g>
  <g
     id="22-22-system-reboot"
     transform="rotate(-90,-541.99151,605.99151)">
    <rect
       id="rect4235"
       width="22"
       height="22"
       x="0"
       y="1030.36"
       style="opacity:0.00100002;fill:currentColor;fill-opacity:1;stroke:none;stroke-width:2;stroke-linecap:round;stroke-linejoin:round;stroke-miterlimit:4;stroke-dasharray:none;stroke-opacity:1" />
    <g
       id="layer12"
       transform="matrix(1.0009385,0,0,0.99883233,-322.31609,1012.4029)"
       style="display:inline;opacity:1;fill:currentColor;fill-opacity:1">
      <path
         id="path6796"
         class="ColorScheme-Text"
         d="M 8.0449219,2 C 5.4709885,1.98 3.161211,3.6075002 2.3203125,6.0351562 2.0969411,6.6800174 1.998566,7.342662 2,8 1.998566,8.657338 2.0969411,9.3199826 2.3203125,9.9648438 3.161211,12.3925 5.4709885,14.02 8.0449219,14 10.618845,13.980003 12.900212,12.315429 13.703125,9.875 13.906197,9.2577753 14.001356,8.626391 14,8 14.001356,7.373609 13.906197,6.7422247 13.703125,6.125 12.900212,3.6845712 10.618845,2.019997 8.0449219,2 Z M 8.0292969,3.9980469 C 9.7515617,4.0114279 11.263537,5.1131547 11.800781,6.7460938 11.9366,7.1589017 12.00029,7.5825571 12,8 12.00029,8.4174429 11.936599,8.8410983 11.800781,9.2539062 11.263537,10.886845 9.7515617,11.988572 8.0292969,12.001953 6.307032,12.015337 4.773605,10.936893 4.2109375,9.3125 4.0615674,8.881276 3.995597,8.4378713 3.9960938,8 3.995597,7.5621287 4.0615674,7.118724 4.2109375,6.6875 4.773605,5.0631072 6.307032,3.9846629 8.0292969,3.9980469 Z M 6.4746094,6 A 0.4736353,0.52746185 0 0 0 6.0625,6.7890625 L 7.5898438,9.734375 A 0.4736353,0.52746185 0 0 0 7.9746094,10 0.4736353,0.52746185 0 0 0 8.0234375,10 0.4736353,0.52746185 0 0 0 8.4101562,9.734375 L 9.9375,6.7890625 A 0.4736353,0.52746185 0 0 0 9.5273438,6 Z"
         transform="matrix(0.99906238,0,0,1.001169,325.01107,20.983802)"
         style="fill:#eaeaea;fill-opacity:1"
         inkscape:connector-curvature="0" />
    </g>
  </g>
  <g
     id="22-22-system-suspend-hibernate"
     transform="translate(-35.623048,-988.36218)">
    <rect
       id="rect4248"
       width="22"
       height="22"
       x="0"
       y="1030.36"
       style="opacity:0.00100002;fill:currentColor;fill-opacity:1;stroke:none;stroke-width:2;stroke-linecap:round;stroke-linejoin:round;stroke-miterlimit:4;stroke-dasharray:none;stroke-opacity:1" />
    <g
       id="g4447"
       transform="matrix(1.0009385,0,0,0.99883233,-322.31607,1012.4029)"
       style="display:inline;opacity:1;fill:currentColor;fill-opacity:1">
      <path
         id="path4455"
         class="ColorScheme-Text"
         d="M 80.044922,2 C 77.470989,1.9800034 75.161212,3.6075014 74.320312,6.0351562 74.096933,6.6800174 73.998569,7.3426625 74,8 73.999,8.6573375 74.09698,9.3199826 74.320312,9.9648438 75.161212,12.3925 77.470989,14.02 80.044922,14 82.618845,13.98 84.900212,12.315429 85.703125,9.875 85.906195,9.2577756 86.001361,8.6263907 86,8 86.001001,7.3736093 85.906205,6.7422244 85.703125,6.125 84.900212,3.684571 82.618845,2.0199966 80.044922,2 Z m -0.01563,1.9980469 c 1.722265,0.013384 3.234241,1.1151078 3.771484,2.7480469 C 83.936599,7.1589011 84.00029,7.582557 84,8 84.00029,8.417443 83.936639,8.8410989 83.800781,9.2539062 83.263538,10.886845 81.751562,11.988574 80.029297,12.001953 78.307032,12.015337 76.773605,10.936893 76.210938,9.3125 76.061566,8.8812761 75.995593,8.4378711 75.996094,8 75.995593,7.5621289 76.061556,7.1187239 76.210938,6.6875 76.773605,5.0631071 78.307032,3.9846625 80.029297,3.9980469 Z M 80,6 a 2,2 0 0 0 -2,2 2,2 0 0 0 2,2 2,2 0 0 0 2,-2 2,2 0 0 0 -2,-2 z"
         transform="matrix(0.99906238,0,0,1.001169,253.07856,20.983802)"
         style="fill:#eaeaea;fill-opacity:1"
         inkscape:connector-curvature="0" />
    </g>
  </g>
  <g
     id="22-22-system-lock-screen"
     transform="translate(45.376952,-988.36218)">
    <rect
       id="rect4255"
       width="22"
       height="22"
       x="0"
       y="1030.36"
       style="opacity:0.00100002;fill:currentColor;fill-opacity:1;stroke:none;stroke-width:2;stroke-linecap:round;stroke-linejoin:round;stroke-miterlimit:4;stroke-dasharray:none;stroke-opacity:1" />
    <path
       id="path5975"
       class="ColorScheme-Text"
       d="m 11,1034.3622 c -2.216,0 -4,1.8216 -4,4.0625 v 1.9375 H 6 c -0.554,0 -1,0.446 -1,1 v 6 c 0,0.554 0.446,1 1,1 h 10 c 0.554,0 1,-0.446 1,-1 v -6 c 0,-0.554 -0.446,-1 -1,-1 h -1 v -1.9375 c 0,-2.24 -1.784,-4.0625 -4,-4.0625 z m 0,2 c 1.108,0 2,0.892 2,2 v 2 H 9 v -2 c 0,-1.108 0.892,-2 2,-2 z"
       style="fill:#eaeaea;fill-opacity:1"
       inkscape:connector-curvature="0" />
  </g>
  <g
     id="g1109"
     transform="translate(0,1.0000005)" />
  <g
     id="system-log-out"
     transform="translate(-82.623047)">
    <rect
       ry="0"
       rx="0"
       y="5.5000001e-08"
       x="82.623047"
       height="32"
       width="32"
       id="rect950"
       style="opacity:0;fill:#000000;fill-opacity:1;fill-rule:evenodd;stroke:none;stroke-width:2;stroke-linecap:round;stroke-linejoin:round;stroke-miterlimit:4;stroke-dasharray:none;stroke-opacity:1;paint-order:fill markers stroke" />
    <g
       transform="translate(-0.16943576,48.002224)"
       id="g1381">
      <g
         id="g895"
         transform="translate(-45.000007,-13.002225)">
        <rect
           style="opacity:1;fill:#eaeaea;fill-opacity:1;fill-rule:evenodd;stroke:none;stroke-width:2.23606801;stroke-linecap:round;stroke-linejoin:miter;stroke-miterlimit:4;stroke-dasharray:none;stroke-dashoffset:3;stroke-opacity:1;paint-order:stroke fill markers"
           id="rect881"
           width="10"
           height="2"
           x="143"
           y="-20"
           ry="1" />
        <g
           transform="translate(-6.5355314,-2.1213214)"
           id="g889">
          <rect
             style="opacity:1;fill:#eaeaea;fill-opacity:1;fill-rule:evenodd;stroke:none;stroke-width:2;stroke-linecap:round;stroke-linejoin:miter;stroke-miterlimit:4;stroke-dasharray:none;stroke-dashoffset:3;stroke-opacity:1;paint-order:stroke fill markers"
             id="rect883"
             width="8"
             height="2"
             x="94.287842"
             y="-126.1579"
             transform="rotate(45)"
             ry="1" />
          <rect
             transform="matrix(0.70710678,-0.70710678,-0.70710678,-0.70710678,0,0)"
             y="-102.28784"
             x="118.1579"
             height="2"
             width="8"
             id="rect885"
             style="opacity:1;fill:#eaeaea;fill-opacity:1;fill-rule:evenodd;stroke:none;stroke-width:2;stroke-linecap:round;stroke-linejoin:miter;stroke-miterlimit:4;stroke-dasharray:none;stroke-dashoffset:3;stroke-opacity:1;paint-order:stroke fill markers"
             ry="1" />
        </g>
      </g>
      <path
         style="opacity:1;fill:none;fill-opacity:1;fill-rule:evenodd;stroke:#eaeaea;stroke-width:2;stroke-linecap:round;stroke-linejoin:miter;stroke-miterlimit:4;stroke-dasharray:none;stroke-dashoffset:3;stroke-opacity:1;paint-order:stroke fill markers"
         id="path1321"
         sodipodi:type="arc"
         sodipodi:cx="98.996796"
         sodipodi:cy="-32.002224"
         sodipodi:rx="10.000031"
         sodipodi:ry="10.000031"
         sodipodi:start="1.3089969"
         sodipodi:end="4.9741884"
         sodipodi:open="true"
         d="m 101.58499,-22.342935 a 10.000031,10.000031 0 0 1 -10.77974,-3.923506 10.000031,10.000031 0 0 1 -10e-7,-11.471565 10.000031,10.000031 0 0 1 10.779741,-3.923507" />
    </g>
  </g>
  <g
     id="22-22-system-log-out"
     transform="translate(93.000002)">
    <rect
       transform="scale(-1,1)"
       id="rect4242"
       width="22"
       height="22"
       x="66"
       y="41.997807"
       style="opacity:0.00100002;fill:currentColor;fill-opacity:1;stroke:none;stroke-width:2;stroke-linecap:round;stroke-linejoin:round;stroke-miterlimit:4;stroke-dasharray:none;stroke-opacity:1" />
    <g
       transform="translate(-1.9637485e-6,-19.007557)"
       id="g1445">
      <g
         transform="matrix(0.55585372,0,0,0.55585372,-156.92759,82.675619)"
         id="g1403">
        <rect
           ry="1"
           y="-20"
           x="143"
           height="2"
           width="10"
           id="rect1395"
           style="opacity:1;fill:#eaeaea;fill-opacity:1;fill-rule:evenodd;stroke:none;stroke-width:2.23606801;stroke-linecap:round;stroke-linejoin:miter;stroke-miterlimit:4;stroke-dasharray:none;stroke-dashoffset:3;stroke-opacity:1;paint-order:stroke fill markers" />
        <g
           id="g1401"
           transform="translate(-6.5355314,-2.1213214)">
          <rect
             ry="1"
             transform="rotate(45)"
             y="-126.1579"
             x="94.287842"
             height="2"
             width="8"
             id="rect1397"
             style="opacity:1;fill:#eaeaea;fill-opacity:1;fill-rule:evenodd;stroke:none;stroke-width:2;stroke-linecap:round;stroke-linejoin:miter;stroke-miterlimit:4;stroke-dasharray:none;stroke-dashoffset:3;stroke-opacity:1;paint-order:stroke fill markers" />
          <rect
             ry="1"
             style="opacity:1;fill:#eaeaea;fill-opacity:1;fill-rule:evenodd;stroke:none;stroke-width:2;stroke-linecap:round;stroke-linejoin:miter;stroke-miterlimit:4;stroke-dasharray:none;stroke-dashoffset:3;stroke-opacity:1;paint-order:stroke fill markers"
             id="rect1399"
             width="8"
             height="2"
             x="118.1579"
             y="-102.28784"
             transform="matrix(0.70710678,-0.70710678,-0.70710678,-0.70710678,0,0)" />
        </g>
      </g>
      <path
         d="m -75.257303,76.838812 a 5.3630223,5.0039539 0 0 1 -5.781183,-1.963298 5.3630223,5.0039539 0 0 1 0,-5.740301 5.3630223,5.0039539 0 0 1 5.781183,-1.963298"
         sodipodi:open="true"
         sodipodi:end="4.9741884"
         sodipodi:start="1.3089969"
         sodipodi:ry="5.0039539"
         sodipodi:rx="5.3630223"
         sodipodi:cy="72.005363"
         sodipodi:cx="-76.645355"
         sodipodi:type="arc"
         id="path1405"
         style="opacity:1;fill:none;fill-opacity:1;fill-rule:evenodd;stroke:#eaeaea;stroke-width:2;stroke-linecap:round;stroke-linejoin:miter;stroke-miterlimit:4;stroke-dasharray:none;stroke-dashoffset:3;stroke-opacity:1;paint-order:stroke fill markers" />
    </g>
  </g>
  <g
     id="system-suspend">
    <rect
       ry="0"
       rx="0"
       y="0"
       x="-163.62305"
       height="32"
       width="32"
       id="rect1127"
       style="opacity:0;fill:#000000;fill-opacity:1;fill-rule:evenodd;stroke:none;stroke-width:2;stroke-linecap:round;stroke-linejoin:round;stroke-miterlimit:4;stroke-dasharray:none;stroke-opacity:1;paint-order:fill markers stroke" />
    <g
       id="g1023"
       transform="translate(-11.693267,36.070204)">
      <g
         transform="translate(-6,1.0000036)"
         id="g1019">
        <rect
           style="opacity:1;fill:#eaeaea;fill-opacity:1;fill-rule:evenodd;stroke:none;stroke-width:2.33572388;stroke-linecap:round;stroke-linejoin:miter;stroke-miterlimit:4;stroke-dasharray:none;stroke-dashoffset:3;stroke-opacity:1;paint-order:stroke fill markers"
           id="rect1013"
           width="10.445675"
           height="2.0891349"
           x="-76.640625"
           y="-107.8177"
           ry="1.0445675"
           transform="rotate(-45)" />
        <rect
           ry="1"
           y="-23"
           x="-130"
           height="2"
           width="8"
           id="rect1015"
           style="opacity:1;fill:#eaeaea;fill-opacity:1;fill-rule:evenodd;stroke:none;stroke-width:2;stroke-linecap:round;stroke-linejoin:miter;stroke-miterlimit:4;stroke-dasharray:none;stroke-dashoffset:3;stroke-opacity:1;paint-order:stroke fill markers" />
        <rect
           ry="1"
           style="opacity:1;fill:#eaeaea;fill-opacity:1;fill-rule:evenodd;stroke:none;stroke-width:2;stroke-linecap:round;stroke-linejoin:miter;stroke-miterlimit:4;stroke-dasharray:none;stroke-dashoffset:3;stroke-opacity:1;paint-order:stroke fill markers"
           id="rect1017"
           width="8"
           height="2"
           x="-130"
           y="26.999992"
           transform="scale(1,-1)" />
      </g>
      <path
         transform="rotate(-45)"
         style="opacity:1;fill:none;fill-opacity:1;fill-rule:evenodd;stroke:#eaeaea;stroke-width:2.0000751;stroke-linecap:round;stroke-linejoin:miter;stroke-miterlimit:4;stroke-dasharray:none;stroke-dashoffset:3;stroke-opacity:1;paint-order:stroke fill markers"
         id="path1021"
         sodipodi:type="arc"
         sodipodi:cx="-80.915016"
         sodipodi:cy="-110.30865"
         sodipodi:rx="10.713958"
         sodipodi:ry="10.713958"
         sodipodi:start="1.3089969"
         sodipodi:end="4.9741884"
         sodipodi:open="true"
         d="m -78.142039,-99.959759 a 10.713958,10.713958 0 0 1 -11.549338,-4.203611 10.713958,10.713958 0 0 1 0,-12.29055 10.713958,10.713958 0 0 1 11.549337,-4.20362" />
    </g>
  </g>
  <g
     id="system-reboot">
    <rect
       style="opacity:0;fill:#000000;fill-opacity:1;fill-rule:evenodd;stroke:none;stroke-width:2;stroke-linecap:round;stroke-linejoin:round;stroke-miterlimit:4;stroke-dasharray:none;stroke-opacity:1;paint-order:fill markers stroke"
       id="rect1129"
       width="32"
       height="32"
       x="-122.62305"
       y="0"
       rx="0"
       ry="0" />
    <g
       transform="translate(-22.725085,52.948052)"
       id="g1077">
      <rect
         style="opacity:1;fill:#eaeaea;fill-opacity:1;fill-rule:evenodd;stroke:none;stroke-width:1.73205078;stroke-linecap:round;stroke-linejoin:miter;stroke-miterlimit:4;stroke-dasharray:none;stroke-dashoffset:3;stroke-opacity:1;paint-order:stroke fill markers"
         id="rect1036"
         width="6"
         height="2"
         x="16.174963"
         y="-86.249504"
         ry="1"
         transform="rotate(-75)" />
      <path
         style="color:#000000;font-style:normal;font-variant:normal;font-weight:normal;font-stretch:normal;font-size:medium;line-height:normal;font-family:sans-serif;font-variant-ligatures:normal;font-variant-position:normal;font-variant-caps:normal;font-variant-numeric:normal;font-variant-alternates:normal;font-feature-settings:normal;text-indent:0;text-align:start;text-decoration:none;text-decoration-line:none;text-decoration-style:solid;text-decoration-color:#000000;letter-spacing:normal;word-spacing:normal;text-transform:none;writing-mode:lr-tb;direction:ltr;text-orientation:mixed;dominant-baseline:auto;baseline-shift:baseline;text-anchor:start;white-space:normal;shape-padding:0;clip-rule:nonzero;display:inline;overflow:visible;visibility:visible;opacity:1;isolation:auto;mix-blend-mode:normal;color-interpolation:sRGB;color-interpolation-filters:linearRGB;solid-color:#000000;solid-opacity:1;vector-effect:none;fill:#eaeaea;fill-opacity:1;fill-rule:evenodd;stroke:none;stroke-width:2;stroke-linecap:round;stroke-linejoin:miter;stroke-miterlimit:4;stroke-dasharray:none;stroke-dashoffset:3;stroke-opacity:1;paint-order:stroke fill markers;color-rendering:auto;image-rendering:auto;shape-rendering:auto;text-rendering:auto;enable-background:accumulate"
         d="m -86.234375,-47.894531 a 1.0001,1.0001 0 0 0 -0.169922,0.01367 c -4.613578,0.681883 -8.300894,4.206889 -9.189453,8.785156 -0.888559,4.578267 1.212775,9.227743 5.236328,11.585937 4.023553,2.358195 9.105722,1.920573 12.666016,-1.091796 3.560294,-3.01237 4.835215,-7.954021 3.175781,-12.3125 a 1.0001,1.0001 0 1 0 -1.869141,0.710937 c 1.360041,3.572127 0.320294,7.605338 -2.597656,10.074219 -2.917949,2.468881 -7.065653,2.827263 -10.363281,0.894531 -3.297628,-1.932732 -5.013403,-5.728208 -4.285156,-9.480469 0.728246,-3.75226 3.73833,-6.628641 7.519531,-7.1875 a 1.0001,1.0001 0 0 0 -0.123047,-1.992187 z"
         id="path1046"
         inkscape:connector-curvature="0" />
      <rect
         ry="1"
         y="-22.174963"
         x="-86.249504"
         height="2"
         width="6"
         id="rect1072"
         style="opacity:1;fill:#eaeaea;fill-opacity:1;fill-rule:evenodd;stroke:none;stroke-width:1.73205078;stroke-linecap:round;stroke-linejoin:miter;stroke-miterlimit:4;stroke-dasharray:none;stroke-dashoffset:3;stroke-opacity:1;paint-order:stroke fill markers"
         transform="rotate(15)" />
    </g>
  </g>
  <g
     id="system-shutdown">
    <rect
       ry="0"
       rx="0"
       y="0"
       x="-82.623047"
       height="32"
       width="32"
       id="rect1131"
       style="opacity:0;fill:#000000;fill-opacity:1;fill-rule:evenodd;stroke:none;stroke-width:2;stroke-linecap:round;stroke-linejoin:round;stroke-miterlimit:4;stroke-dasharray:none;stroke-opacity:1;paint-order:fill markers stroke" />
    <g
       transform="translate(2.3769531,44)"
       id="g1134">
      <rect
         style="opacity:1;fill:#eaeaea;fill-opacity:1;fill-rule:evenodd;stroke:none;stroke-width:2.23606801;stroke-linecap:round;stroke-linejoin:miter;stroke-miterlimit:4;stroke-dasharray:none;stroke-dashoffset:3;stroke-opacity:1;paint-order:stroke fill markers"
         id="rect1098"
         width="10"
         height="2"
         x="-39"
         y="67.99942"
         ry="1"
         transform="rotate(90)" />
      <path
         d="m -61.92891,-35.071121 a 10.000031,10.000031 0 0 1 2.167735,10.897937 10.000031,10.000031 0 0 1 -9.238825,6.173185 10.000031,10.000031 0 0 1 -9.238824,-6.173185 10.000031,10.000031 0 0 1 2.167734,-10.897936"
         sodipodi:end="3.9269908"
         sodipodi:start="5.4977871"
         sodipodi:ry="10.000031"
         sodipodi:rx="10.000031"
         sodipodi:cy="-28.000031"
         sodipodi:cx="-69"
         sodipodi:type="arc"
         id="path1108"
         style="opacity:1;fill:none;fill-opacity:1;fill-rule:evenodd;stroke:#eaeaea;stroke-width:2;stroke-linecap:round;stroke-linejoin:miter;stroke-miterlimit:4;stroke-dasharray:none;stroke-dashoffset:3;stroke-opacity:1;paint-order:stroke fill markers"
         sodipodi:open="true" />
    </g>
  </g>
  <g
     id="system-suspend-hibernate">
    <rect
       style="opacity:0;fill:#000000;fill-opacity:1;fill-rule:evenodd;stroke:none;stroke-width:2;stroke-linecap:round;stroke-linejoin:round;stroke-miterlimit:4;stroke-dasharray:none;stroke-opacity:1;paint-order:fill markers stroke"
       id="rect1133"
       width="32"
       height="32"
       x="-40.623047"
       y="0"
       rx="0"
       ry="0" />
    <g
       transform="translate(14.376953,49)"
       id="g1193">
      <path
         sodipodi:open="true"
         style="opacity:1;fill:none;fill-opacity:1;fill-rule:evenodd;stroke:#eaeaea;stroke-width:2;stroke-linecap:round;stroke-linejoin:miter;stroke-miterlimit:4;stroke-dasharray:none;stroke-dashoffset:3;stroke-opacity:1;paint-order:stroke fill markers"
         id="path1155"
         sodipodi:type="arc"
         sodipodi:cx="-39"
         sodipodi:cy="-33.99855"
         sodipodi:rx="10.000031"
         sodipodi:ry="10.000031"
         sodipodi:start="6.0213859"
         sodipodi:end="3.403392"
         d="m -29.340711,-36.586749 a 10.000031,10.000031 0 0 1 -3.923506,10.779745 10.000031,10.000031 0 0 1 -11.471565,0 10.000031,10.000031 0 0 1 -3.923507,-10.779745" />
      <path
         sodipodi:nodetypes="cscccssssccsccsccc"
         style="fill:#eaeaea;fill-opacity:1;stroke:#eaeaea;stroke-width:0.69999999;stroke-miterlimit:4;stroke-dasharray:none;stroke-opacity:1"
         inkscape:connector-curvature="0"
         d="m -38.645414,-34.965942 c -0.817196,0 -1.77211,-0.377655 -1.77211,-1.441104 0,-0.874037 0.908157,-1.120045 2.056674,-1.430629 0.409629,-0.111974 1.039822,-0.282991 1.346864,-0.457026 -0.416173,-0.204835 -1.367963,-0.388721 -2.036276,-0.517867 -1.881263,-0.364151 -2.784701,-0.577543 -2.784701,-1.436231 0,-1.698774 4.96758,-2.401201 5.315684,-2.401201 0.195346,0 0.354242,0.215264 0.354242,0.480376 0,0.265117 -0.158858,0.47977 -0.354242,0.47977 -1.045031,0 -3.866255,0.787249 -4.509825,1.385768 0.388951,0.214048 1.386076,0.405318 2.079366,0.540633 1.881067,0.363517 2.784701,0.576913 2.784701,1.435576 0,0.873965 -0.908182,1.119973 -2.05667,1.430629 -0.482709,0.131029 -1.271538,0.345042 -1.47712,0.55169 0.08213,0.254617 0.660374,0.418878 1.053428,0.418878 0.195422,0 0.35428,0.215264 0.35428,0.480377 -3.3e-5,0.264435 -0.158895,0.480349 -0.35428,0.480349 z"
         p-id="8143"
         id="path1175" />
    </g>
  </g>
  <g
     id="system-lock-screen">
    <rect
       style="opacity:0;fill:#000000;fill-opacity:1;fill-rule:evenodd;stroke:none;stroke-width:2;stroke-linecap:round;stroke-linejoin:round;stroke-miterlimit:4;stroke-dasharray:none;stroke-opacity:1;paint-order:fill markers stroke"
       id="rect1209"
       width="32"
       height="32"
       x="40.376953"
       y="0"
       rx="0"
       ry="0" />
    <g
       transform="translate(34.376997,44.99956)"
       id="g1308">
      <g
         id="g1302">
        <path
           transform="rotate(-90)"
           style="opacity:1;fill:none;fill-opacity:1;fill-rule:evenodd;stroke:#eaeaea;stroke-width:2;stroke-linecap:round;stroke-linejoin:miter;stroke-miterlimit:4;stroke-dasharray:none;stroke-dashoffset:3;stroke-opacity:1;paint-order:stroke fill markers"
           id="path1271"
           sodipodi:type="arc"
           sodipodi:cx="28.99855"
           sodipodi:cy="21.999956"
           sodipodi:rx="10.000031"
           sodipodi:ry="10.000031"
           sodipodi:start="1.5707963"
           sodipodi:end="4.712389"
           sodipodi:open="true"
           d="m 28.998551,31.999988 a 10.000031,10.000031 0 0 1 -8.660282,-5.000016 10.000031,10.000031 0 0 1 0,-10.000032 10.000031,10.000031 0 0 1 8.660282,-5.000015" />
        <path
           d="m -16.755156,-30.410618 a 5.5240893,5.5240893 0 0 1 -6.608991,-4.078749 5.5240893,5.5240893 0 0 1 4.000915,-6.656399 5.5240893,5.5240893 0 0 1 6.702888,3.922531"
           sodipodi:open="true"
           sodipodi:end="6.0213859"
           sodipodi:start="1.344201"
           sodipodi:ry="5.5240893"
           sodipodi:rx="5.5240893"
           sodipodi:cy="-35.793495"
           sodipodi:cx="-17.996204"
           sodipodi:type="arc"
           id="path1292"
           style="opacity:1;fill:none;fill-opacity:1;fill-rule:evenodd;stroke:#eaeaea;stroke-width:2;stroke-linecap:round;stroke-linejoin:miter;stroke-miterlimit:4;stroke-dasharray:none;stroke-dashoffset:3;stroke-opacity:1;paint-order:stroke fill markers"
           transform="rotate(60)" />
        <circle
           r="1.9999996"
           cy="-26"
           cx="21.999956"
           id="circle1297"
           style="opacity:1;fill:#eaeaea;fill-opacity:1;fill-rule:evenodd;stroke:none;stroke-width:2.66666603;stroke-linecap:round;stroke-linejoin:miter;stroke-miterlimit:4;stroke-dasharray:none;stroke-dashoffset:3;stroke-opacity:1;paint-order:stroke fill markers" />
      </g>
    </g>
  </g>
  <g
     id="system-switch-user">
    <rect
       ry="0"
       rx="0"
       y="0"
       x="80.376953"
       height="32"
       width="32"
       id="rect1211"
       style="opacity:0;fill:#000000;fill-opacity:1;fill-rule:evenodd;stroke:none;stroke-width:2;stroke-linecap:round;stroke-linejoin:round;stroke-miterlimit:4;stroke-dasharray:none;stroke-opacity:1;paint-order:fill markers stroke" />
    <g
       transform="translate(44.876958,44.999837)"
       id="g1361">
      <path
         style="opacity:1;fill:none;fill-opacity:1;fill-rule:evenodd;stroke:#eaeaea;stroke-width:1.99981999;stroke-linecap:round;stroke-linejoin:miter;stroke-miterlimit:4;stroke-dasharray:none;stroke-dashoffset:3;stroke-opacity:1;paint-order:stroke fill markers"
         id="circle1357"
         sodipodi:type="arc"
         sodipodi:cx="52.999985"
         sodipodi:cy="-29.999872"
         sodipodi:rx="9.0000896"
         sodipodi:ry="9.0000896"
         sodipodi:start="3.7339576"
         sodipodi:end="1.295148"
         d="m 45.533307,-35.024844 a 9.0000896,9.0000896 0 0 1 10.152402,-3.565051 9.0000896,9.0000896 0 0 1 6.313522,8.713225 9.0000896,9.0000896 0 0 1 -6.549684,8.537125"
         sodipodi:open="true" />
      <circle
         id="path1335"
         style="opacity:1;fill:none;fill-opacity:1;fill-rule:evenodd;stroke:#eaeaea;stroke-width:1.99988401;stroke-linecap:round;stroke-linejoin:miter;stroke-miterlimit:4;stroke-dasharray:none;stroke-dashoffset:3;stroke-opacity:1;paint-order:stroke fill markers"
         cx="49.5"
         cy="-27.5"
         r="8.5000582" />
    </g>
  </g>
</svg>
