<?xml version="1.0" encoding="UTF-8" standalone="no"?>
<svg
   xmlns:dc="http://purl.org/dc/elements/1.1/"
   xmlns:cc="http://creativecommons.org/ns#"
   xmlns:rdf="http://www.w3.org/1999/02/22-rdf-syntax-ns#"
   xmlns:svg="http://www.w3.org/2000/svg"
   xmlns="http://www.w3.org/2000/svg"
   xmlns:sodipodi="http://sodipodi.sourceforge.net/DTD/sodipodi-0.dtd"
   xmlns:inkscape="http://www.inkscape.org/namespaces/inkscape"
   id="SVGRoot"
   version="1.1"
   viewBox="0 0 32 32"
   height="32"
   width="32"
   inkscape:version="1.0.2 (e86c870879, 2021-01-15)"
   sodipodi:docname="window.svg">
  <defs
     id="defs858" />
  <sodipodi:namedview
     inkscape:lockguides="false"
     showguides="true"
     id="base"
     pagecolor="#c8c8c8"
     bordercolor="#666666"
     borderopacity="1.0"
     inkscape:pageopacity="0"
     inkscape:pageshadow="2"
     inkscape:zoom="9.9073969"
     inkscape:cx="27.914904"
     inkscape:cy="26.183822"
     inkscape:document-units="px"
     inkscape:current-layer="layer1"
     inkscape:document-rotation="0"
     showgrid="true"
     inkscape:window-width="1920"
     inkscape:window-height="935"
     inkscape:window-x="0"
     inkscape:window-y="38"
     inkscape:window-maximized="1"
     inkscape:snap-smooth-nodes="false"
     inkscape:snap-bbox="true"
     inkscape:bbox-nodes="true"
     inkscape:snap-bbox-edge-midpoints="true"
     inkscape:snap-others="false"
     inkscape:snap-nodes="true"
     inkscape:snap-global="true"
     inkscape:snap-grids="true"
     inkscape:snap-to-guides="true"
     inkscape:snap-page="false"
     inkscape:object-nodes="false"
     height="31px">
    <inkscape:grid
       id="grid1428"
       type="xygrid"
       originx="4.4953642"
       originy="4.787" />
  </sodipodi:namedview>
  <metadata
     id="metadata861">
    <rdf:RDF>
      <cc:Work
         rdf:about="">
        <dc:format>image/svg+xml</dc:format>
        <dc:type
           rdf:resource="http://purl.org/dc/dcmitype/StillImage" />
        <dc:title></dc:title>
      </cc:Work>
    </rdf:RDF>
  </metadata>
  <g
     inkscape:label="Layer 1"
     inkscape:groupmode="layer"
     id="layer1"
     transform="translate(4.4953642,4.787)">
    <g
       style="opacity:0.2"
       transform="matrix(1.7493122,0,0,1.7499488,-107.44584,-908.25986)"
       id="g46">
      <g
         transform="translate(19,-242)"
         id="g44" />
    </g>
    <g
       id="window-close">
      <rect
         width="32"
         height="32"
         x="-4.4953642"
         y="-4.7870002"
         style="opacity:0.00100002"
         id="rect36" />
      <g
         id="g965"
         transform="translate(-2.4953645,-25.287)">
        <rect
           style="fill:#eaeaea;fill-opacity:1;stroke:none;stroke-width:1.70639;stroke-linecap:round;stroke-linejoin:round;paint-order:stroke fill markers"
           id="rect880"
           width="22"
           height="3"
           x="-26.909903"
           y="34.208893"
           ry="1.5"
           transform="rotate(-45)" />
        <rect
           style="fill:#eaeaea;fill-opacity:1;stroke:none;stroke-width:1.70639;stroke-linecap:round;stroke-linejoin:round;paint-order:stroke fill markers"
           id="rect961"
           width="22"
           height="3"
           x="-46.708893"
           y="14.409903"
           ry="1.5"
           transform="matrix(-0.70710678,-0.70710678,-0.70710678,0.70710678,0,0)" />
      </g>
    </g>
    <g
       id="window-pin">
      <rect
         y="6"
         x="29"
         height="22"
         width="22"
         id="rect930"
         style="fill:#00ffff;fill-opacity:0" />
      <g
         id="g1034"
         transform="translate(-7.298e-4)">
        <path
           id="circle1017"
           style="fill:#eaeaea;fill-opacity:1;stroke-width:12;stroke-linecap:round;stroke-linejoin:round;stroke-opacity:0.34902;paint-order:stroke fill markers"
           d="m 40.00073,9 a 6,6 0 0 0 -6,6 6,6 0 0 0 6,6 6,6 0 0 0 6,-6 6,6 0 0 0 -6,-6 z M 39.948,12 a 3,3 0 0 1 0.05273,0 3,3 0 0 1 3,3 3,3 0 0 1 -3,3 3,3 0 0 1 -3,-3 3,3 0 0 1 2.947265,-3 z" />
        <rect
           style="fill:#eaeaea;fill-opacity:1;stroke-width:6.87384;stroke-linecap:round;stroke-linejoin:round;stroke-opacity:0.34902;paint-order:stroke fill markers"
           id="rect1028"
           width="3.0000012"
           height="7"
           x="38.500729"
           y="19"
           ry="1.5000006" />
      </g>
    </g>
    <g
       id="window-unpin"
       transform="translate(22)">
      <rect
         y="6"
         x="29"
         height="22"
         width="22"
         id="rect1045"
         style="fill:#00ffff;fill-opacity:0" />
      <g
         id="g1051"
         transform="translate(-7.298e-4)">
        <path
           id="path1047"
           style="fill:#eaeaea;fill-opacity:1;stroke-width:12;stroke-linecap:round;stroke-linejoin:round;stroke-opacity:0.34902;paint-order:stroke fill markers"
           d="m 40.00073,9 a 6,6 0 0 0 -6,6 6,6 0 0 0 6,6 6,6 0 0 0 6,-6 6,6 0 0 0 -6,-6 z M 39.948,12 a 3,3 0 0 1 0.05273,0 3,3 0 0 1 3,3 3,3 0 0 1 -3,3 3,3 0 0 1 -3,-3 3,3 0 0 1 2.947265,-3 z" />
        <rect
           style="fill:#eaeaea;fill-opacity:1;stroke-width:6.87384;stroke-linecap:round;stroke-linejoin:round;stroke-opacity:0.34902;paint-order:stroke fill markers"
           id="rect1049"
           width="3.0000012"
           height="7"
           x="38.500729"
           y="19"
           ry="1.5000006" />
      </g>
    </g>
  </g>
</svg>
