<?xml version="1.0" encoding="UTF-8" standalone="no"?>
<svg
   xmlns:dc="http://purl.org/dc/elements/1.1/"
   xmlns:cc="http://creativecommons.org/ns#"
   xmlns:rdf="http://www.w3.org/1999/02/22-rdf-syntax-ns#"
   xmlns:svg="http://www.w3.org/2000/svg"
   xmlns="http://www.w3.org/2000/svg"
   xmlns:sodipodi="http://sodipodi.sourceforge.net/DTD/sodipodi-0.dtd"
   xmlns:inkscape="http://www.inkscape.org/namespaces/inkscape"
   width="22"
   height="22"
   version="1.1"
   id="svg12"
   sodipodi:docname="yakuake.svg"
   inkscape:version="1.0.2 (e86c870879, 2021-01-15)">
  <metadata
     id="metadata16">
    <rdf:RDF>
      <cc:Work
         rdf:about="">
        <dc:format>image/svg+xml</dc:format>
        <dc:type
           rdf:resource="http://purl.org/dc/dcmitype/StillImage" />
      </cc:Work>
    </rdf:RDF>
  </metadata>
  <sodipodi:namedview
     pagecolor="#ffffff"
     bordercolor="#666666"
     borderopacity="1"
     objecttolerance="10"
     gridtolerance="10"
     guidetolerance="10"
     inkscape:pageopacity="0"
     inkscape:pageshadow="2"
     inkscape:window-width="1920"
     inkscape:window-height="935"
     id="namedview14"
     showgrid="true"
     inkscape:zoom="8.8068182"
     inkscape:cx="-18.972366"
     inkscape:cy="6.2647224"
     inkscape:window-x="0"
     inkscape:window-y="38"
     inkscape:window-maximized="1"
     inkscape:current-layer="svg12"
     inkscape:document-rotation="0"
     inkscape:snap-bbox="true"
     inkscape:bbox-nodes="true"
     inkscape:snap-bbox-edge-midpoints="true"
     inkscape:snap-smooth-nodes="true">
    <inkscape:grid
       type="xygrid"
       id="grid841" />
  </sodipodi:namedview>
  <defs
     id="defs3">
    <style
       id="current-color-scheme"
       type="text/css">.ColorScheme-Text { color:#363636; } .ColorScheme-Highlight { color:#4285f4; }</style>
  </defs>
  <g
     id="g849"
     transform="translate(9.1011959e-4,-0.00104976)"
     style="fill:#ea0000;fill-opacity:1" />
  <g
     id="yakuake">
    <rect
       width="22"
       height="22"
       fill="none"
       id="rect9"
       x="0"
       y="0" />
    <path
       id="rect839"
       style="fill:#eaeaea;stroke-width:1.5;stroke-linecap:round;stroke-linejoin:round;paint-order:stroke fill markers"
       d="M 5 2 C 3.338 2 2 3.338 2 5 L 2 17 C 2 18.662 3.338 20 5 20 L 17 20 C 18.662 20 20 18.662 20 17 L 20 5 C 20 3.338 18.662 2 17 2 L 5 2 z M 6.4648438 7.4648438 L 10 11 L 6.4648438 14.535156 L 5.7578125 13.828125 L 8.5859375 11 L 5.7578125 8.171875 L 6.4648438 7.4648438 z M 10 14 L 15 14 L 15 15 L 10 15 L 10 14 z " />
  </g>
</svg>
